<?xml version="1.0" encoding="utf-8"?>
<!-- Generator: Adobe Illustrator 16.0.0, SVG Export Plug-In . SVG Version: 6.00 Build 0)  -->
<!DOCTYPE svg PUBLIC "-//W3C//DTD SVG 1.1//EN" "http://www.w3.org/Graphics/SVG/1.1/DTD/svg11.dtd">
<svg version="1.1" id="Layer_1" xmlns="http://www.w3.org/2000/svg" xmlns:xlink="http://www.w3.org/1999/xlink" x="0px" y="0px"
	 width="738.095px" height="510.714px" viewBox="0 0 738.095 510.714" enable-background="new 0 0 738.095 510.714"
	 xml:space="preserve">
<g>
	<defs>
		<rect id="SVGID_1_" width="738.095" height="510.714"/>
	</defs>
	<clipPath id="SVGID_2_">
		<use xlink:href="#SVGID_1_"  overflow="visible"/>
	</clipPath>
	<g clip-path="url(#SVGID_2_)">
		<defs>
			<rect id="SVGID_3_" x="657.241" width="80.854" height="406.082"/>
		</defs>
		<clipPath id="SVGID_4_">
			<use xlink:href="#SVGID_3_"  overflow="visible"/>
		</clipPath>
	</g>
	<g clip-path="url(#SVGID_2_)">
		<defs>
			<path id="SVGID_5_" d="M349.813,401.332l-190.596,4.028c0,0-103.435,0.195-50.443,28.327c18.31,9.722,37.287,6.52,60.874,3.317
				c25.05-3.4,55.299-6.801,95.466,5.278c77.987,23.453,153.722,17.218,186.254,16.722c32.532-0.495,187.435,2.423,193.475-32.543
				c0,0,10.474-27.361-186.28-27.361C427.692,399.101,391.727,399.773,349.813,401.332"/>
		</defs>
		<clipPath id="SVGID_6_">
			<use xlink:href="#SVGID_5_"  overflow="visible"/>
		</clipPath>
		
			<linearGradient id="SVGID_7_" gradientUnits="userSpaceOnUse" x1="0" y1="510.708" x2="1" y2="510.708" gradientTransform="matrix(551.2733 0 0 -551.2733 207.5 281972.6563)">
			<stop  offset="0" style="stop-color:#D5D7D8"/>
			<stop  offset="1" style="stop-color:#656668"/>
		</linearGradient>
		<rect x="55.782" y="399.101" clip-path="url(#SVGID_6_)" fill="url(#SVGID_7_)" width="599.534" height="66.636"/>
	</g>
	<g clip-path="url(#SVGID_2_)">
		<defs>
			<rect id="SVGID_8_" width="738.095" height="510.714"/>
		</defs>
		<clipPath id="SVGID_9_">
			<use xlink:href="#SVGID_8_"  overflow="visible"/>
		</clipPath>
		<g opacity="0.5" clip-path="url(#SVGID_9_)">
			<g>
				<defs>
					<rect id="SVGID_10_" x="136.195" y="53.56" width="536.167" height="336.283"/>
				</defs>
				<clipPath id="SVGID_11_">
					<use xlink:href="#SVGID_10_"  overflow="visible"/>
				</clipPath>
				<g clip-path="url(#SVGID_11_)">
					<defs>
						<path id="SVGID_12_" d="M151.976,214.381c0,0,30.162-189.324,173.244-157.138c143.081,32.186,212.803,67.039,302.104,98.369
							c89.301,31.329,53.534,204.914-177.296,197.9c0,0-144.132-10.274-254.166,33.938
							C195.863,387.449,99.156,423.661,151.976,214.381"/>
					</defs>
					<clipPath id="SVGID_13_">
						<use xlink:href="#SVGID_12_"  overflow="visible"/>
					</clipPath>
					
						<linearGradient id="SVGID_14_" gradientUnits="userSpaceOnUse" x1="0" y1="510.71" x2="1" y2="510.71" gradientTransform="matrix(536.1656 0 0 -536.1656 136.25 274048.9375)">
						<stop  offset="0" style="stop-color:#00B1D9"/>
						<stop  offset="0.6658" style="stop-color:#9ACBE7"/>
						<stop  offset="1" style="stop-color:#C8DBF1"/>
					</linearGradient>
					<rect x="99.156" y="25.057" clip-path="url(#SVGID_13_)" fill="url(#SVGID_14_)" width="617.469" height="398.604"/>
				</g>
			</g>
		</g>
		<path clip-path="url(#SVGID_9_)" fill="#3D60AC" d="M625.14,225.436c5.72-2.734,11.413,15.475,11.413,15.475
			c9.723,12.847,23.311-4.244,21.981,14.962c-2.325,33.606,38.682,10.567,19.763,45.653c-18.917,35.086,16.705,19.839,4.947,48.13
			c-11.756,28.289,3.481,62.032-14.207,48.165c0,0-15.575-34.156-31.639-44.723c-16.063-10.569,9.623-23.108,4.598-37.463
			c-7.299-20.847-24.888-20.027-12.207-42.432C642.471,250.799,605.694,234.736,625.14,225.436"/>
		<path clip-path="url(#SVGID_9_)" fill="#FFFFFF" d="M674.64,384.967c-7.669-5.393-16.642-42.972-17.178-65.354
			c-0.274-11.465-3.663-16.243-6.653-20.458c-2.857-4.028-5.327-7.506-3.89-15.495c2.749-15.267-4.477-21.856-4.551-21.921
			l0.836-0.955c0.323,0.282,7.847,7.079,4.964,23.102c-1.345,7.464,0.871,10.585,3.675,14.536c2.941,4.147,6.604,9.309,6.887,21.159
			c0.576,24.022,9.749,59.504,16.639,64.351L674.64,384.967z"/>
	</g>
	<g clip-path="url(#SVGID_2_)">
		<defs>
			<path id="SVGID_15_" d="M674.518,386.159c-2.487-0.504-4.105-1.785-4.813-3.811c-1.822-5.211,2.535-14.33,6.384-18.912
				c0.282-0.336,6.898-8.4,6.17-19.942c-0.118-1.878-0.313-3.604-0.483-5.128c-0.451-4.035-0.777-6.951,0.72-8.634
				c1.369-1.537,4.365-2.233,9.715-2.26c10.743-0.051,14.985-4.492,18.393-8.061c1.364-1.429,2.541-2.662,3.948-3.431
				c4.542-2.479,9.412-2.978,11.329-1.16c1.456,1.38,0.768,3.744-0.064,5.485c-1.589,3.32-3.597,5.371-5.369,7.18
				c-2.465,2.516-4.412,4.502-3.426,8.358c0.194,0.754,0.418,1.521,0.643,2.286c1.566,5.358,3.045,10.419-5.156,14.106
				c-1.926,0.865-3.688,1.558-5.248,2.171c-6.49,2.545-10.777,4.228-15.373,13.929c-0.854,1.804-1.606,3.51-2.334,5.157
				c-3.467,7.856-5.732,12.992-12.038,12.992C676.604,386.486,675.611,386.379,674.518,386.159 M713.942,314.87
				c-1.579,0.863-2.882,2.225-4.259,3.666c-3.24,3.394-7.276,7.62-17.48,7.668c-5.818,0.026-9.006,0.831-10.657,2.687
				c-1.873,2.104-1.52,5.256-1.032,9.618c0.17,1.506,0.362,3.217,0.479,5.064c0.693,11.021-5.813,18.974-5.876,19.05
				c-3.886,4.631-8.677,14.232-6.61,20.143c0.866,2.479,2.805,4.039,5.76,4.635c1.18,0.24,2.252,0.353,3.241,0.353
				c7.137-0.002,9.751-5.92,13.204-13.747c0.725-1.642,1.473-3.336,2.32-5.127c4.381-9.245,8.261-10.771,14.688-13.292
				c1.572-0.616,3.352-1.315,5.306-2.193c9.21-4.139,7.427-10.237,5.854-15.619c-0.221-0.754-0.441-1.503-0.629-2.244
				c-0.81-3.165,0.745-4.752,3.101-7.156c1.751-1.786,3.93-4.009,5.608-7.52c1.838-3.843,0.902-5.904-0.208-6.956
				c-1.007-0.953-2.582-1.421-4.455-1.421C719.826,312.478,716.835,313.291,713.942,314.87"/>
		</defs>
		<clipPath id="SVGID_16_">
			<use xlink:href="#SVGID_15_"  overflow="visible"/>
		</clipPath>
		
			<linearGradient id="SVGID_17_" gradientUnits="userSpaceOnUse" x1="0" y1="510.7139" x2="1" y2="510.7139" gradientTransform="matrix(59.991 0 0 -59.991 668 30988.375)">
			<stop  offset="0" style="stop-color:#59C7DB"/>
			<stop  offset="1" style="stop-color:#5B71B6"/>
		</linearGradient>
		<rect x="666.439" y="312.478" clip-path="url(#SVGID_16_)" fill="url(#SVGID_17_)" width="62.357" height="75.275"/>
	</g>
	<g clip-path="url(#SVGID_2_)">
		<defs>
			<path id="SVGID_18_" d="M704.16,332.387c-1.855,6.495-5.75,16.173-18.104,25.179c-11.259,8.207-12.856,36.252-12.919,37.441
				l1.266,0.066c0.015-0.284,1.624-28.628,12.4-36.481c12.671-9.239,16.67-19.181,18.577-25.855
				c1.968-6.889,12.678-8.862,12.785-8.883l-0.221-1.25C717.472,322.687,706.347,324.733,704.16,332.387"/>
		</defs>
		<clipPath id="SVGID_19_">
			<use xlink:href="#SVGID_18_"  overflow="visible"/>
		</clipPath>
		
			<linearGradient id="SVGID_20_" gradientUnits="userSpaceOnUse" x1="-4.882813e-004" y1="510.7139" x2="0.9995" y2="510.7139" gradientTransform="matrix(45.0282 0 0 -45.0282 673.125 23355.3633)">
			<stop  offset="0" style="stop-color:#59C7DB"/>
			<stop  offset="1" style="stop-color:#5B71B6"/>
		</linearGradient>
		<rect x="673.137" y="322.604" clip-path="url(#SVGID_19_)" fill="url(#SVGID_20_)" width="45.028" height="72.47"/>
	</g>
	<g clip-path="url(#SVGID_2_)">
		<defs>
			<rect id="SVGID_21_" width="738.095" height="510.714"/>
		</defs>
		<clipPath id="SVGID_22_">
			<use xlink:href="#SVGID_21_"  overflow="visible"/>
		</clipPath>
		<path clip-path="url(#SVGID_22_)" fill="#00B1D9" d="M700.148,253.739c-8.003-2.744-6.341,12.681-9.723,24.094
			c-3.382,11.414-37.622,4.979-23.249,33.559c14.37,28.58-18.177,9.56-8.455,34.499c9.724,24.94,0.846,51.614,11.414,44.829
			c10.566-6.785,5.938-38.19,16.927-41.923c10.99-3.732,12.784-8.083,1.902-18.229c-10.882-10.145,28.515-20.219,18.791-40.702
			C698.035,269.38,709.395,256.91,700.148,253.739"/>
		<path clip-path="url(#SVGID_22_)" fill="#FFFFFF" d="M675.039,389.526c-1.007-4.271-9.603-41.846-1.583-46.387
			c7.07-4.003,6.896-19.572,5.793-34.274c-0.976-13.016,15.739-19.098,16.451-19.352l0.424,1.196
			c-0.165,0.059-16.515,6.013-15.61,18.061c1.133,15.1,1.254,31.12-6.431,35.473c-6.092,3.449-0.483,33.646,2.19,44.991
			L675.039,389.526z"/>
		<polygon clip-path="url(#SVGID_22_)" fill="#4A4A4A" points="693.232,376.146 681.807,419.498 656.27,419.498 644.843,376.146 		
			"/>
		<path clip-path="url(#SVGID_22_)" fill="#3A3A3A" d="M693.232,376.146c0,0-25.155,4.724-25.155,43.352H656.27l-11.427-43.352
			H693.232z"/>
	</g>
	<g clip-path="url(#SVGID_2_)">
		<defs>
			<path id="SVGID_23_" d="M316.258,229.036c-17.25,8.249,15.375,22.5,4.125,42.375c-11.249,19.875,4.353,19.148,10.829,37.643
				c4.456,12.732-18.328,23.856-4.079,33.231s28.067,39.674,28.067,39.674c15.69,12.301,2.174-17.632,12.604-42.729
				c10.428-25.097-21.173-11.569-4.39-42.694c16.782-31.124-19.595-10.688-17.532-40.499c0.646-9.335-2.681-9.003-7.242-8.67
				c-3.76,0.274-8.36,0.549-12.259-4.603c0,0-4.368-13.976-9.062-13.976C316.967,228.787,316.612,228.866,316.258,229.036"/>
		</defs>
		<clipPath id="SVGID_24_">
			<use xlink:href="#SVGID_23_"  overflow="visible"/>
		</clipPath>
		
			<linearGradient id="SVGID_25_" gradientUnits="userSpaceOnUse" x1="0" y1="510.6328" x2="1" y2="510.6328" gradientTransform="matrix(58.8493 0 0 -58.8493 311.125 30361.9727)">
			<stop  offset="0" style="stop-color:#59C7DB"/>
			<stop  offset="1" style="stop-color:#5B71B6"/>
		</linearGradient>
		<rect x="299.008" y="228.787" clip-path="url(#SVGID_24_)" fill="url(#SVGID_25_)" width="81.188" height="165.472"/>
	</g>
	<g clip-path="url(#SVGID_2_)">
		<defs>
			<rect id="SVGID_26_" width="738.095" height="510.714"/>
		</defs>
		<clipPath id="SVGID_27_">
			<use xlink:href="#SVGID_26_"  overflow="visible"/>
		</clipPath>
		<path clip-path="url(#SVGID_27_)" fill="#FFFFFF" d="M360.169,370.555c-6.803-4.782-14.763-38.119-15.237-57.977
			c-0.244-10.17-3.25-14.408-5.904-18.146c-2.534-3.573-4.725-6.659-3.45-13.745c2.439-13.544-3.971-19.392-4.036-19.446
			l0.742-0.847c0.285,0.249,6.959,6.279,4.403,20.492c-1.194,6.619,0.772,9.39,3.259,12.896c2.61,3.678,5.859,8.256,6.11,18.771
			c0.51,21.31,8.648,52.784,14.76,57.084L360.169,370.555z"/>
	</g>
	<g clip-path="url(#SVGID_2_)">
		<defs>
			<path id="SVGID_28_" d="M374.173,275.517c-3,10.125-33.375,4.417-20.624,29.771c12.749,25.353-16.125,8.479-7.5,30.604
				c8.625,22.123,0.75,45.785,10.125,39.768c9.374-6.019,5.268-33.879,15.017-37.191c9.749-3.309,11.341-7.171,1.688-16.171
				c-9.653-9,25.295-17.935,16.669-36.107c-8.624-18.172,1.453-29.234-6.749-32.046c-0.563-0.193-1.073-0.285-1.535-0.285
				C375.904,253.857,376.936,266.195,374.173,275.517"/>
		</defs>
		<clipPath id="SVGID_29_">
			<use xlink:href="#SVGID_28_"  overflow="visible"/>
		</clipPath>
		
			<linearGradient id="SVGID_30_" gradientUnits="userSpaceOnUse" x1="0" y1="510.6602" x2="1" y2="510.6602" gradientTransform="matrix(46.5178 0 0 -46.5178 344.4063 24072.5391)">
			<stop  offset="0" style="stop-color:#59C7DB"/>
			<stop  offset="1" style="stop-color:#5B71B6"/>
		</linearGradient>
		<rect x="337.424" y="253.857" clip-path="url(#SVGID_29_)" fill="url(#SVGID_30_)" width="60.749" height="127.82"/>
	</g>
	<g clip-path="url(#SVGID_2_)">
		<defs>
			<rect id="SVGID_31_" width="738.095" height="510.714"/>
		</defs>
		<clipPath id="SVGID_32_">
			<use xlink:href="#SVGID_31_"  overflow="visible"/>
		</clipPath>
		<path clip-path="url(#SVGID_32_)" fill="#FFFFFF" d="M360.523,374.6c-0.894-3.789-8.518-37.12-1.404-41.148
			c6.272-3.552,6.118-17.364,5.138-30.406c-0.865-11.546,13.962-16.94,14.595-17.166l0.375,1.062
			c-0.146,0.053-14.649,5.334-13.848,16.021c1.006,13.395,1.113,27.608-5.705,31.468c-5.403,3.061-0.428,29.848,1.945,39.911
			L360.523,374.6z"/>
	</g>
	<g clip-path="url(#SVGID_2_)">
		<defs>
			<polygon id="SVGID_33_" points="332.721,362.73 342.858,401.188 365.511,401.188 375.646,362.73 			"/>
		</defs>
		<clipPath id="SVGID_34_">
			<use xlink:href="#SVGID_33_"  overflow="visible"/>
		</clipPath>
		
			<linearGradient id="SVGID_35_" gradientUnits="userSpaceOnUse" x1="0" y1="510.7139" x2="1" y2="510.7139" gradientTransform="matrix(42.926 0 0 -42.926 332.7188 22304.8906)">
			<stop  offset="0" style="stop-color:#00B1D9"/>
			<stop  offset="0.6658" style="stop-color:#9ACBE7"/>
			<stop  offset="1" style="stop-color:#C8DBF1"/>
		</linearGradient>
		<rect x="332.721" y="362.73" clip-path="url(#SVGID_34_)" fill="url(#SVGID_35_)" width="42.925" height="38.457"/>
	</g>
	<g clip-path="url(#SVGID_2_)">
		<defs>
			<path id="SVGID_36_" d="M332.721,362.73l10.137,38.457h10.474c0-34.268,22.314-38.457,22.314-38.457H332.721z"/>
		</defs>
		<clipPath id="SVGID_37_">
			<use xlink:href="#SVGID_36_"  overflow="visible"/>
		</clipPath>
		
			<linearGradient id="SVGID_38_" gradientUnits="userSpaceOnUse" x1="-4.882813e-004" y1="510.7139" x2="0.9995" y2="510.7139" gradientTransform="matrix(61.121 0 0 -61.121 332.7188 31597.2656)">
			<stop  offset="0" style="stop-color:#00B1D9"/>
			<stop  offset="0.6658" style="stop-color:#9ACBE7"/>
			<stop  offset="1" style="stop-color:#C8DBF1"/>
		</linearGradient>
		<rect x="332.721" y="362.73" clip-path="url(#SVGID_37_)" fill="url(#SVGID_38_)" width="42.925" height="38.457"/>
	</g>
	<g clip-path="url(#SVGID_2_)">
		<defs>
			<rect id="SVGID_39_" width="738.095" height="510.714"/>
		</defs>
		<clipPath id="SVGID_40_">
			<use xlink:href="#SVGID_39_"  overflow="visible"/>
		</clipPath>
		<path clip-path="url(#SVGID_40_)" fill="#EFA986" d="M273.78,218.38c0,0-10.279,3.019-9.649,16.992
			C264.762,249.346,273.78,218.38,273.78,218.38"/>
		<path clip-path="url(#SVGID_40_)" fill="#EFA986" d="M274.727,218.38c0,0-0.793,1.079,0.198,8.031
			c0.992,6.953-0.887,9.862-1.111,12.754c-0.224,2.894-3.619,21.581-3.71,22.406c-0.092,0.828-0.549,10.775-1.871,13.413
			c-1.324,2.64-11.053,17.598-11.184,18.344c-0.13,0.748-4.725-2.604-4.725-2.604s8.736-18.175,9.303-19.967
			c0.703-2.226,2.853-7.737,2.985-10.621c0.323-7.05-0.316-23.423-0.069-26.989C265.008,226.471,270.269,219.442,274.727,218.38"/>
		<path clip-path="url(#SVGID_40_)" fill="#EFAA87" d="M261.625,278.046c0,0-1.531,3.362-2.436,3.571
			c-0.903,0.208-1.98,1.329-2.756,1.674c-0.775,0.344-3.214,0.53-3.87,1.168c-0.267,0.261-1.294,2.504-1.895,2.974
			s-1.932,1.277-1.52,1.783c0.411,0.504,1.794,0.108,1.794,0.108s-0.521,0.462-0.298,1.021c0.435,1.087,1.164,1.136,1.164,1.136
			s-0.235,0.815,0.061,1.22c0.649,0.893,1.356,0.918,1.356,0.918s0.061,0.631,0.627,1.123c0.725,0.629,1.619,0.271,1.619,0.271
			s0.723,1.001,1.392,0.805c0.67-0.192,1.059-0.692,1.536-0.984c0.478-0.292,3.817-4.133,5.05-7.725
			c1.233-3.593,3.372-6.511,3.372-6.511L261.625,278.046z"/>
		
			<rect x="246.897" y="253.303" transform="matrix(-0.6299 0.7767 -0.7767 -0.6299 641.5237 249.2388)" clip-path="url(#SVGID_40_)" fill="#214461" width="28.962" height="48.33"/>
		<path clip-path="url(#SVGID_40_)" fill="#DC9D7C" d="M251.129,288.88c0,0,2.911-3.233,4.36-3.173
			c1.451,0.062,0.462,1.286,0.462,1.286s0.957-1.227,1.988-0.576c1.031,0.65-0.2,2.022-0.2,2.022s0.97-0.737,1.732,0.285
			c0.764,1.021-0.508,1.93-0.508,1.93s1.919-0.283,1.508,1.285c-0.694,2.646-3.551,3.939-3.551,3.939s-0.799,0.222-1.466-0.813
			c0,0-1.794,0.688-2.287-1.393c0,0-2.1-0.483-1.433-2.159C251.734,291.514,249.524,290.739,251.129,288.88"/>
		<path clip-path="url(#SVGID_40_)" fill="#4C4A4C" d="M283.178,177.557c0,0,14.865-1.236,14.458,14.401
			c-0.406,15.637-2.883,17.991,0.01,29.041c2.892,11.05-14.494-6.276-14.494-6.276L283.178,177.557z"/>
		<path clip-path="url(#SVGID_40_)" fill="#EFAA87" d="M299.375,274.19c0,0,5.474,6.976,7.406,11.594
			c1.932,4.614,5.153,14.729,4.723,22.564c-0.429,7.837-3.004,22.541-2.253,25.868c0.751,3.328,1.501,10.2,2.307,12.56
			c0.806,2.361,4.024,9.229,4.347,16.313c0.323,7.085-4.509,38.213-4.293,41.11c0.215,2.899-5.475,1.181-5.475,1.181
			s-1.931-28.121-3.005-32.952c-1.073-4.831-2.361-21.252-3.327-22.432c-0.967-1.182-3.608-13.417-3.199-15.349
			c0.408-1.934-10.541-30.914-11.185-36.71c-0.644-5.797-16.788-23.748-16.788-23.748S282.738,268.796,299.375,274.19"/>
		<path clip-path="url(#SVGID_40_)" fill="#EFAA87" d="M273.25,274.19c0,0-0.279,2.925-0.602,3.998
			c-0.322,1.071-7.728,28.444-8.479,38.965c-0.752,10.517-2.683,19.438-3.005,21.686c-0.323,2.248,0.322,9.762,0.965,11.695
			c0.643,1.931-3.22,47.549-3.542,48.623c-0.322,1.072,2.577,1.394,4.616,1.072c2.04-0.321,12.343-33.488,11.699-39.069
			c-0.644-5.583-1.287-17.483,0.537-22.321c1.825-4.836,18.248-39.828,18.354-41.974C293.9,294.717,300.899,257.742,273.25,274.19"
			/>
		<path clip-path="url(#SVGID_40_)" fill="#EFAA87" d="M306.239,401.96c0,0-0.529,3.705-1.107,4.717
			c-0.579,1.011-2.165,6.159-2.888,7.123c-0.722,0.962-2.31,8.18,0,9.046c2.309,0.866,7.749,2.309,9.576-0.576
			c1.83-2.889,2.069-5.777,1.781-7.991c-0.288-2.213-2.483-12.374-2.454-13.379C311.178,399.896,306.239,401.96,306.239,401.96"/>
		<path clip-path="url(#SVGID_40_)" fill="#FFFFFF" d="M303.166,411.799c0,0-0.247,5.608,3.987,5.608
			c4.236,0,6.112-5.104,6.112-5.104s1.444,2.506,0,7.849c-1.445,5.339-7.459,4.233-8.806,4.041
			C303.111,424,296.725,422.311,303.166,411.799"/>
		<path clip-path="url(#SVGID_40_)" fill="#FFFFFF" d="M259.044,396.922c0,0-2.994,5.354-4.771,6.439
			c-2.215,1.354-6.515,5.689-8.016,5.891c-1.504,0.199-6.902,1.156-5.859,4.204c0.855,2.497,13.731,2.142,15.183,0.89
			c1.453-1.252,5.796-5.745,7.548-5.646c1.753,0.102,1.102,6.481,1.102,6.481h1.902c0,0,0.665-6.208,0.745-7.275
			c0.237-3.159-2.015-5.483-2.116-7.285c-0.099-1.803-0.202-3.146-0.202-3.146L259.044,396.922z"/>
		<path clip-path="url(#SVGID_40_)" fill="#EFAA87" d="M246.687,409.105c0,0,4.245,1.466,7.512-0.41
			c3.266-1.878,9.536-4.73,11.753-4.751c0,0-1.208-3.697-1.234-4.111c-0.025-0.414-0.157-2.36-0.157-2.36l-5.481-0.878
			c0,0-3.557,5.219-5.122,6.448C252.39,404.271,248.375,407.336,246.687,409.105"/>
		<path clip-path="url(#SVGID_40_)" fill="#5C77BA" d="M268.542,273.708c0,0-1.528,6.357-2.093,8.211
			c-0.563,1.851-4.181,30.576-5.071,48.544c0,0,21.655,8.209,51.441,6.841c0,0,0.725-33.005-2.011-42.343
			c-2.739-9.34-7.694-18.077-11.433-20.771C296.048,271.792,268.542,273.708,268.542,273.708"/>
		<path clip-path="url(#SVGID_40_)" fill="#E9E8E8" d="M264.821,236.105c0.241,3.785,1.79,6.205,2.112,7.573
			c0.322,1.369,0,4.509,0.402,7.65c0.403,3.138,1.61,18.112,1.207,22.38c-0.402,4.265,29.286,2.338,31.539,1.05
			c0,0-5-8.939-5.134-12.644c-0.046-1.272-0.806-5.233,1.288-8.13c1.105-1.529,3.154-6.4,5.2-9.959c0,0-0.379-0.738,0,0
			c0.794-1.381,1.624-2.757,2.204-3.781c0.756-1.338,1.177-2.924,1.177-2.924s1.32-16.423-2.302-18.274
			c-3.623-1.852-5.554-2.173-9.096-2.335s-5.878-0.885-5.878-0.885l-8.291,0.885c0,0-2.926,1.37-5.018,1.533
			c-2.093,0.16-4.651,4.707-5.917,8.001C267.271,228.959,264.579,232.321,264.821,236.105"/>
		<path clip-path="url(#SVGID_40_)" fill="#EFA986" d="M298.015,217.333c0,0,6.562,0.544,9.029,6.575
			c2.468,6.031,2.26,12.155,2.794,14.382c0.535,2.229,1.319,15.133,1.881,17.04c0.562,1.906,2.493,10.75,2.925,17.897
			c0.432,7.149-0.633,22.224-0.633,22.224l-3.637-1.766c0,0-3.237-22.354-4.64-27.081c-1.2-4.041-1.2-10.915-1.874-13.397
			c-0.673-2.483-4.795-17.419-5.458-18.933C297.384,231.955,292.375,217.257,298.015,217.333"/>
		<path clip-path="url(#SVGID_40_)" fill="#EFA986" d="M284.632,179.141c-3.685-0.604-12.116,0.32-14.506,9.995
			c0,0-0.005,2.683,0.4,4.834c0.404,2.153-2.161,8.074-1.71,8.432c0.452,0.357,2.418,0.974,2.418,0.974s1.395,6.947,3.754,7.159
			c2.357,0.21,11.472-0.609,16.618-8.463C296.753,194.215,299.511,181.576,284.632,179.141"/>
		<path clip-path="url(#SVGID_40_)" fill="#EFA986" d="M278.515,207.842c0,0,0.181,0.972,0.35,2.402
			c0.087,0.733,0.17,1.582,0.223,2.483c0.147,2.494,0.072,5.379-0.779,7.21c0,0,4.625,2.812,9.572-4.068
			c0,0-0.489-8.536,2.353-13.075C293.076,198.258,278.515,207.842,278.515,207.842"/>
		<path clip-path="url(#SVGID_40_)" fill="#4C4A4C" d="M270.126,189.136c0,0,5.547,4.788,11.42,6.299
			c5.875,1.512,8.985,8.109,8.985,8.109s10.394-10.366,4.121-20.427S270.137,177.543,270.126,189.136"/>
		<path clip-path="url(#SVGID_40_)" fill="#A77961" d="M278.865,210.245c0.087,0.732,0.17,1.582,0.223,2.482
			c5.181-2.513,8.037-5.958,8.037-5.958C284.079,208.949,278.865,210.245,278.865,210.245"/>
		<path clip-path="url(#SVGID_40_)" fill="#4C4A4C" d="M282.627,195.779c0,0,6.008,16.158,5.289,20.047c0,0,3.181-0.548,8.844,1.183
			C296.76,217.009,294.023,188.185,282.627,195.779"/>
		<path clip-path="url(#SVGID_40_)" fill="#EFA986" d="M289.923,216.347c0,0-1.979,12.116-9.305,10.749
			c-7.326-1.37-1.769-10.248-1.769-10.248S282.102,214.122,289.923,216.347"/>
		<path clip-path="url(#SVGID_40_)" fill="#EFA986" d="M310.287,293.072c0,0-0.576,1.918-1.481,3.849
			c-0.442,0.943-1.102,7.291-1.126,8.116c-0.022,0.691,0.466,0.318,0.735-0.117c0.153-0.252,0.736-2.42,1.23-3.559
			c0.416-0.955,0.74-1.302,0.888-0.973c0.15,0.333,0.156,4.445-0.35,6.162c-0.505,1.719-0.417,5.774,0.545,5.262
			c0.964-0.512,3.663-7.631,3.688-10.385c0.025-2.756-0.397-6.085-0.397-6.085L310.287,293.072z"/>
		<polygon clip-path="url(#SVGID_40_)" fill="#EFA986" points="380.942,415.379 383.02,408.488 392.348,409.829 391.064,416.028 		
			"/>
		<polygon clip-path="url(#SVGID_40_)" fill="#EFA986" points="436.074,414.225 436.596,417.564 445.631,415.896 445.061,410.901 		
			"/>
		<path clip-path="url(#SVGID_40_)" fill="#212123" d="M414.793,307.097c0,0-1.401,11.975-2.941,24.247
			c-0.351,2.792-0.708,5.6-1.057,8.283c-1.148,8.821-2.214,16.322-2.668,17.639c-1.225,3.541-14.713,52.514-14.713,52.514
			s-11.486,1.185-11.931-0.265c0,0,9.044-55.109,8.879-57.117c-0.168-2.007,1.803-58.649,1.803-58.649
			S414.12,303.841,414.793,307.097"/>
		<path clip-path="url(#SVGID_40_)" fill="#434244" d="M426.929,289.901c0,0,11.836,55.395,12.842,59.635
			c1.003,4.237,7.285,62.563,7.285,62.563s-3.682,2.58-12.505,2.133c0,0-13.422-61.214-14.494-63.246
			c-4.157-7.886-18.563-46.985-20.571-52.453c-2.008-5.467-7.562-10.988-7.562-10.988S406.435,279.05,426.929,289.901"/>
		<path clip-path="url(#SVGID_40_)" fill="#EFA986" d="M457.64,230.298c0,0,8.353-4.549,9.136-4.362
			c0.781,0.188,0.975,0.679,0.21,1.138c-0.766,0.459-7.956,4.643-7.956,4.643s10.69-3.636,11.367-3.632
			c0.396,0.002,0.821,0.927,0.433,1.213c-0.389,0.286-10.807,4.53-10.807,4.53s9.986-3.374,10.548-3.191
			c0.49,0.159,0.68,1.118-0.046,1.423c-0.726,0.305-9.842,3.991-9.842,3.991s7.401-1.972,7.782-1.517
			c0.233,0.278,0.638,1.06-1.285,1.506c-1.924,0.445-6.37,2.002-6.37,2.002L457.64,230.298z"/>
		<path clip-path="url(#SVGID_40_)" fill="#EFA986" d="M448.773,237.107c0,0,2.665-1.681,2.531-3.534
			c-0.112-1.576,0.813-3.731,1.095-4.394c0.379-0.886,0.603-4.048,1.643-3.578c1.043,0.471-0.132,5.224-0.193,6.267
			c-0.061,1.045,3.47-1.815,4.487-1.807c1.02,0.008,4.979,6.396,2.352,8.066c-2.627,1.668-6.424,1.629-6.835,2.019
			c-0.41,0.39-1.869,1.294-1.869,1.294L448.773,237.107z"/>
		<path clip-path="url(#SVGID_40_)" fill="#608CC9" d="M421.105,230.143c0,0,6.081,15.751,7.327,15.688
			c1.245-0.061,22.054-10.232,22.054-10.232s3.756,5.662,2.731,6.337c-1.427,0.943-28.332,19.952-30.382,18.962
			c-2.049-0.989-2.976-13.248-2.976-13.248S414.754,230.829,421.105,230.143"/>
		<path clip-path="url(#SVGID_40_)" fill="#EFA986" d="M422.914,205.692c0,0-0.044,0.587-0.096,1.495
			c-0.039,0.668-0.082,1.509-0.116,2.421c-0.092,2.466-0.112,5.434,0.217,6.781c0.614,2.524-10.809-7.733-10.809-7.733
			s0.567-8.365-0.295-17.703C410.954,181.617,422.914,205.692,422.914,205.692"/>
		<path clip-path="url(#SVGID_40_)" fill="#608CC9" d="M427.399,261.706c-0.772,4.055-0.82,9.347-0.508,15.275
			c0.131,2.52,0.322,5.149,0.556,7.843c0.314,3.671,0.7,7.467,1.07,11.273c0,0-7.682,4.005-38.02,8.887
			c-1.207-39.354,7.643-79.65,7.643-79.65c2.253-8.542,6.935-11.633,13.988-16.967c0.041,0,0.998,0.081,10.347,6.775
			c0.677,0.483,4.047,6.726,5.985,13.628c3.436,12.219,2.559,18.55,0.113,28.003c-0.265,1.055-0.547,2.148-0.821,3.298
			C427.625,260.596,427.513,261.143,427.399,261.706"/>
		<path clip-path="url(#SVGID_40_)" fill="#A77961" d="M422.818,207.187c-0.039,0.668-0.098,1.964-0.132,2.872
			c-3.74-2.6-5.495-5.035-6.409-6.069C417.994,205.694,422.818,207.187,422.818,207.187"/>
		<path clip-path="url(#SVGID_40_)" fill="#212123" d="M411.852,331.344c-0.351,2.792-0.708,5.6-1.057,8.283
			c0-0.001-0.003-0.001-0.003-0.002c-4.261-10.777-8.544-33.493-8.63-33.9C402.758,307.333,411.852,331.344,411.852,331.344"/>
		<path clip-path="url(#SVGID_40_)" fill="#EFA986" d="M412.127,208.368c0,0,14.354,15.735,17.924,27.23
			c0,0-0.995-9.536-7.312-20.419C422.739,215.179,418.303,208.457,412.127,208.368"/>
		<path clip-path="url(#SVGID_40_)" fill="#EFA986" d="M430.033,182.137c0,0,3.936,6.675,3.948,8.074s-1.677,1.403-0.792,2.866
			c0.886,1.463,2.685,4.205,1.818,5.094c-0.867,0.887-2.935,0.452-3.363,2.357c-0.429,1.904-2.834,7.703-5.477,7.692
			c-2.646-0.011-11.742-4.597-12.348-6.464c-0.606-1.866-4.061-12.278-5.159-14.283c-1.101-2.004,18.048-11.668,19.71-8.502
			L430.033,182.137z"/>
		<path clip-path="url(#SVGID_40_)" fill="#444444" d="M429.68,181.464c0,0,2.847-1.386,1.829-4.202
			c-1.017-2.815-3.438-6.555-8.997-4.762c-5.558,1.795-9.761,5.6-13.602,6.219c-3.84,0.621-4.732,4.363-1.355,11.338
			c3.376,6.975,4.731,10.517,4.731,10.517s1.161-6.125,2.62-5.892c1.457,0.232,3.804-3.734,3.804-3.734l0.389,1.025l2.593-0.173
			c0,0-3.383-7.308-1.592-8.233C421.892,182.644,429.399,182.275,429.68,181.464"/>
		<path clip-path="url(#SVGID_40_)" fill="#444444" d="M421.691,191.8c0,0,1.719,6.253,3.143,6.322
			c1.423,0.068,6.28,0.864,7.188,1.578c0,0,0.712,0.544,0.411,1.452c-0.299,0.908-1.156,6.317,0.563,8.112
			c0,0-1.224,1.929-7.355-0.218c-6.132-2.146-9.362-5.057-9.362-5.057s4.397-8.37,2.821-12.016L421.691,191.8z"/>
		<path clip-path="url(#SVGID_40_)" fill="#EFA986" d="M418.705,189.883c0,0-1.787-3.374-5.027-1.03
			c-2.36,1.703,0.776,7.396,3.219,7.282C419.339,196.022,420.03,192.84,418.705,189.883"/>
		<path clip-path="url(#SVGID_40_)" fill="#608CC9" d="M404.404,240.392l19.429-3.49c0,0-1.135-22.12-12.593-21.19
			C399.782,216.639,401.331,227.255,404.404,240.392"/>
		<path clip-path="url(#SVGID_40_)" fill="#EFA986" d="M453.397,296.1c0,0,2.098,0.926,3.074,0.876
			c0.979-0.047,6.985-0.646,7.768,0.387c0.781,1.032,6.545,6.851,5.764,7.732c-0.782,0.88-1.368,0.441-1.759,0
			c-0.389-0.439-4.835-4.184-5.373-4.244c0,0,3.957,4.439,3.272,5.761c-0.683,1.321-1.904,1.075-2.638,1.321
			c-0.733,0.242-1.953,1.173-3.272,0.586c-1.319-0.586-6.35-6.064-7.571-6.848c-1.222-0.781-6.984-3.777-7.033-4.072
			C445.579,297.306,453.397,296.1,453.397,296.1"/>
		<path clip-path="url(#SVGID_40_)" fill="#212123" d="M436.597,417.564c0,0,6.815-1.443,7.053-1.657
			c0.234-0.212,1.655-2.939,2.721-2.486c1.064,0.453,1.137,3.74,2.181,4.279c1.043,0.538,9.303,5.908,10.324,6.895
			c1.02,0.986,7.192,0.286,7.933,2.02c0.739,1.73,0.871,5.851-8.369,5.045c-9.239-0.809-19.743,0.879-21.747-0.176
			C434.686,430.427,436.01,420.23,436.597,417.564"/>
		<path clip-path="url(#SVGID_40_)" fill="#212123" d="M381.483,413.763c0,0,6.959-0.335,7.225-0.508s2.104-2.636,3.084-2.019
			c0.979,0.618,0.524,3.874,1.469,4.573c0.944,0.696,8.238,7.32,9.087,8.458c0.85,1.137,7.055,1.434,7.508,3.262
			c0.452,1.829-0.076,5.917-9.067,3.64c-8.991-2.273-19.631-2.291-21.439-3.651C377.537,426.154,380.476,416.3,381.483,413.763"/>
		<path clip-path="url(#SVGID_40_)" fill="#4B6D9D" d="M427.447,284.825c0,0-12.646-11.664-13.347-13.676
			c-0.691-1.979-7.763-28.848-7.979-29.693l20.77,35.525C427.022,279.501,427.214,282.131,427.447,284.825"/>
		<path clip-path="url(#SVGID_40_)" fill="#608CC9" d="M419.311,223.858c0,0-2.762-9.454-12.74-5.227
			c-5.491,2.33-5.592,9.29,3.145,33.301c0,0,6.076,16.37,7.585,18.185c5.477,6.592,28.024,29.039,30.789,29.843l6.235-4.074
			c0,0-11.447-12.93-15.628-18.403c-4.202-5.504-11.444-17.317-11.444-17.317L419.311,223.858z"/>
		<polygon clip-path="url(#SVGID_40_)" fill="#434244" points="350.021,107.507 412.492,107.794 412.283,153.076 412.239,162.611 
			402.745,153.031 349.813,152.788 		"/>
		<path clip-path="url(#SVGID_40_)" fill="#FFFFFF" d="M376.374,132.086c-0.009,2.636,2.121,4.779,4.757,4.787
			c2.634,0.008,4.777-2.121,4.785-4.756c0.01-2.635-2.121-4.779-4.756-4.787S376.383,129.452,376.374,132.086"/>
		<path clip-path="url(#SVGID_40_)" fill="#FFFFFF" d="M360.704,132.038c-0.008,2.635,2.121,4.778,4.756,4.786
			c2.637,0.008,4.779-2.122,4.787-4.756c0.008-2.635-2.121-4.777-4.757-4.787C362.855,127.273,360.712,129.402,360.704,132.038"/>
		<path clip-path="url(#SVGID_40_)" fill="#FFFFFF" d="M391.684,132.135c-0.007,2.636,2.122,4.778,4.758,4.787
			c2.635,0.008,4.777-2.121,4.786-4.758c0.008-2.633-2.122-4.777-4.756-4.785C393.835,127.372,391.694,129.5,391.684,132.135"/>
		<polygon clip-path="url(#SVGID_40_)" fill="#3D60AC" points="495.643,159.436 558.115,159.724 557.907,205.004 557.863,214.541 
			548.369,204.96 495.435,204.717 		"/>
		<path clip-path="url(#SVGID_40_)" fill="#FFFFFF" d="M521.997,184.016c-0.007,2.635,2.123,4.778,4.757,4.787
			c2.635,0.007,4.777-2.123,4.786-4.757c0.01-2.635-2.121-4.778-4.756-4.787C524.149,179.251,522.006,181.381,521.997,184.016"/>
		<path clip-path="url(#SVGID_40_)" fill="#FFFFFF" d="M506.327,183.966c-0.007,2.635,2.121,4.778,4.757,4.786
			c2.635,0.009,4.778-2.121,4.786-4.756c0.009-2.634-2.12-4.778-4.756-4.786C508.479,179.202,506.336,181.331,506.327,183.966"/>
		<path clip-path="url(#SVGID_40_)" fill="#FFFFFF" d="M537.309,184.064c-0.009,2.635,2.121,4.778,4.756,4.786
			c2.636,0.009,4.778-2.12,4.787-4.756c0.007-2.635-2.121-4.777-4.757-4.786C539.46,179.3,537.317,181.429,537.309,184.064"/>
		<path clip-path="url(#SVGID_40_)" fill="#00B1D9" d="M473.203,118.335l-12.014-5.222c-0.985-0.427-1.438-1.572-1.009-2.558
			c0.429-0.985,1.575-1.436,2.559-1.008l8.496,3.691l6.134-13.594c0.441-0.98,1.594-1.415,2.573-0.974
			c0.978,0.442,1.413,1.594,0.972,2.573L473.203,118.335z"/>
		<path clip-path="url(#SVGID_40_)" fill="#00B1D9" d="M486.86,129.799c-11.077,7.784-26.423,5.105-34.207-5.973
			c-7.784-11.078-5.104-26.422,5.973-34.206c11.077-7.783,26.423-5.105,34.207,5.974
			C500.616,106.671,497.938,122.015,486.86,129.799 M460.643,92.49c-9.494,6.672-11.791,19.825-5.118,29.32
			c6.671,9.494,19.824,11.791,29.318,5.119c9.496-6.671,11.792-19.825,5.12-29.32C483.29,88.115,470.138,85.819,460.643,92.49"/>
		<polygon clip-path="url(#SVGID_40_)" fill="#00B1D9" points="96.765,138.332 178.145,138.706 177.874,197.692 177.816,210.116 
			165.45,197.635 96.494,197.317 		"/>
		<path clip-path="url(#SVGID_40_)" fill="#FFFFFF" d="M131.097,170.351c-0.011,3.432,2.763,6.223,6.196,6.233
			c3.432,0.012,6.224-2.762,6.235-6.195c0.01-3.432-2.764-6.225-6.197-6.233C133.898,164.144,131.108,166.917,131.097,170.351"/>
		<path clip-path="url(#SVGID_40_)" fill="#FFFFFF" d="M110.683,170.286c-0.01,3.434,2.763,6.224,6.196,6.236
			c3.433,0.011,6.225-2.763,6.235-6.196c0.011-3.434-2.763-6.224-6.195-6.235C113.486,164.08,110.695,166.853,110.683,170.286"/>
		<path clip-path="url(#SVGID_40_)" fill="#FFFFFF" d="M151.041,170.414c-0.011,3.433,2.763,6.224,6.195,6.234
			c3.433,0.011,6.225-2.761,6.236-6.195c0.01-3.433-2.764-6.226-6.196-6.235C153.843,164.207,151.052,166.98,151.041,170.414"/>
		<path clip-path="url(#SVGID_40_)" fill="#EFA986" d="M232.494,310.36c0,0,2.661,0.534,3.932,0.573
			c1.273,0.04,7.156-2.627,9.039-2.373c1.883,0.255,14.161,5.472,14.719,5.853c0.558,0.38-0.262,1.218-0.262,1.218l-28.191,0.334
			L232.494,310.36z"/>
		
			<rect x="222.98" y="315.566" transform="matrix(1 -0.0075 0.0075 1 -2.3883 1.8669)" clip-path="url(#SVGID_40_)" fill="#323757" width="46.89" height="4.293"/>
		
			<rect x="251.259" y="294.485" transform="matrix(0.2924 -0.9563 0.9563 0.2924 -89.296 472.5796)" clip-path="url(#SVGID_40_)" fill="#323757" width="46.891" height="4.295"/>
		<path clip-path="url(#SVGID_40_)" fill="#52536A" d="M184.26,406.448l-1.809,3.914c0,0-7.616-2.841-7.655-2.936
			c-0.037-0.095,2.097-5.435,2.097-5.435L184.26,406.448z"/>
		<path clip-path="url(#SVGID_40_)" fill="#6B6C8A" d="M249.496,406.364l2.108,6.157c0,0-8.359,1.843-9.574,1.745
			c-0.107-0.009-1.581-6.975-1.581-6.975L249.496,406.364z"/>
		<path clip-path="url(#SVGID_40_)" fill="#2D2C2F" d="M241.095,412.472c0,0,5.841-1.586,6.015-1.841
			c0.174-0.254,2.316-1.698,3.421-1.514c1.104,0.185,1.205,1.505,2.308,1.775c1.103,0.269,9.639,2.999,10.822,3.695
			c1.183,0.698,6.83-1.354,7.917,0.107c1.088,1.463,2.143,5.307-6.73,6.636s-18.372,5.29-20.495,4.749
			C242.228,425.541,240.77,414.836,241.095,412.472"/>
		<path clip-path="url(#SVGID_40_)" fill="#2D2C2F" d="M174.197,406.383c0,0,5.414,2.311,5.699,2.223
			c0.285-0.089,2.793,0.099,3.523,0.905c0.732,0.809,0.011,1.876,0.69,2.749c0.68,0.871,4.539,5.979,5.669,7.157
			c0.923,0.965,5.991,1.865,7.616,3.563c1.225,1.281-0.216,6.398-8.835,3.953c-8.394-2.382-18.788-6.51-20.083-8.201
			C167.18,417.038,172.524,407.991,174.197,406.383"/>
		<path clip-path="url(#SVGID_40_)" fill="#353A5D" d="M179.749,329.615c0,0,23.812,10.589,28.858,14.208
			c5.045,3.621,16.094,10.288,16.462,11.92c0.367,1.633,2.555,0.043-1.364,8.192c-3.918,8.153-22.443,27.771-24.179,29.903
			c-1.812,2.224-14.662,15.546-14.662,15.546l-9.665-7.28c0,0,18.583-27.323,21.272-31.342c2.688-4.017,3.901-4.613,2.31-6.387
			c-1.591-1.774-7.943-1.746-40.647-15.293c-3.268-1.355-12.385-4.49-13.587-8.879c-2.172-7.93-0.31-17.979,8.48-22.399
			C161.817,313.386,179.749,329.615,179.749,329.615"/>
		<path clip-path="url(#SVGID_40_)" fill="#EFA986" d="M191.073,252.962c-0.209,0.185-0.436,0.588-0.673,1.144
			c-0.343,0.797-0.704,1.907-1.054,3.129c-1.081,3.778-2.061,8.623-2.061,8.623s-13.629-11.354-11.703-12.068
			c1.928-0.714,3.352-4.031,3.352-4.031S192.509,251.688,191.073,252.962"/>
		<path clip-path="url(#SVGID_40_)" fill="#EDDCC5" d="M190.223,292.187c0,0-11.061,21.148-11.539,29.079
			c-0.48,7.928-23.091-2.497-23.091-2.497L190.223,292.187z"/>
		<path clip-path="url(#SVGID_40_)" fill="#323757" d="M178.726,320.758l0.254,1.972l0.395,2.599h-0.001h-0.004
			c-0.34-0.02-22.081-1.386-23.655-0.985c-1.588,0.402,2.993-5.127,2.993-5.127L178.726,320.758z"/>
		<path clip-path="url(#SVGID_40_)" fill="#4A5181" d="M179.375,325.329c0,0,24.601,5.789,30.684,7.732
			c6.081,1.943,16.548,5.365,19.361,6.971c1.494,0.854,3.775,2.129,6.507,11.019c3.096,10.078,10.166,38.421,11.77,42.835
			c1.009,2.771,3.907,13.677,3.907,13.677l-12.571,2.181c0,0-14.971-30.142-16.186-38.175c-2.043-13.522-7.286-13.596-9.404-14.828
			c-2.118-1.231-12.316,1.079-48.6-1.813c-3.625-0.289-13.539-0.47-16.104-4.383c-4.636-7.07-9.315-15.101-2.115-22.207
			C153.823,321.229,179.375,325.329,179.375,325.329"/>
		<path clip-path="url(#SVGID_40_)" fill="#EFA986" d="M195.877,224.493c0,0,4.258,7.354,3.287,9.355
			c-0.968,2,4.448,6.85,3.558,7.876c-0.888,1.028-2.721,2.272-2.691,2.572c0.031,0.299-1.574,9.882-3.663,10.095
			c-2.09,0.215-16.373-0.525-17.558-4.993c-1.185-4.468-4.668-14.256-5.489-16.072C172.5,231.507,180.734,217.47,195.877,224.493"/>
		<path clip-path="url(#SVGID_40_)" fill="#434244" d="M178.268,223.073c-1.19,0.883-2.15,1.816-2.918,2.771
			c-0.937,0.441-6.462,3.185-5.313,6.15c1.545,3.99,7.791,14.68,8.318,15.798c0.07,0.148,0.071-0.133,0.019-0.733
			c0.385-3.774,5.03-8.004,5.03-8.004l2.478-1.118c-1.293-2.405-0.781-4.653-0.781-4.653c2.805-3.007,12.128-6.246,12.128-6.246
			C195.901,213.737,184.517,218.436,178.268,223.073"/>
		<path clip-path="url(#SVGID_40_)" fill="#EFA986" d="M182.486,235.926c-0.66-1.006-4.138-0.841-3.63,2.125
			c0.506,2.968,4.774,5.348,5.703,4.025C185.489,240.752,183.189,236.999,182.486,235.926"/>
		<path clip-path="url(#SVGID_40_)" fill="#3D60AC" d="M175.582,253.792c0,0-17.263,10.059-21.158,27.625
			c-3.895,17.563-10.94,48.408-11.064,52.062c0,0,23.361-11.241,36.014-8.148c0,0,7.967-28.623,12.158-35.384
			c4.191-6.759-2.037-22.652-2.037-22.652S183.54,257.757,175.582,253.792"/>
		<path clip-path="url(#SVGID_40_)" fill="#6D6D6D" d="M112.638,261.653l13.911,40.795c0.105,0.309,0.169,0.632,0.189,0.959
			l3.337,53.641l58.159,1.295l16.947,61.692c0.513,1.866,0.186,3.868-0.937,5.459c-0.737,1.044-1.793,1.969-3.265,2.149
			c-3.688,0.451-78.355,0-78.355,0v-3.086c0-1.538,1.273-2.783,2.843-2.783h69.802c1.153,0,2.259-0.5,2.965-1.393
			c0.414-0.521,0.71-1.169,0.594-1.909c-0.308-1.966-15.21-52.229-15.21-52.229l-56.238-0.996c-2.56-0.046-4.641-2.037-4.747-4.543
			l-2.443-57.715c-0.015-0.37-0.075-0.733-0.178-1.085l-11.368-39c0,0-1.191-2.72,0.999-2.983
			C111.831,259.66,112.396,260.943,112.638,261.653"/>
		<path clip-path="url(#SVGID_40_)" fill="#212123" d="M188.546,359.478c0,0,0.043-4.453-6.061-4.766
			c-7.01-0.356-52.598-0.672-52.598-0.672l0.304,4.737L188.546,359.478z"/>
		<path clip-path="url(#SVGID_40_)" fill="#828282" d="M216.703,323.17v2.075h99.075v-2.075c0-1.938-1.302-3.509-2.908-3.509
			h-93.257C218.007,319.661,216.703,321.231,216.703,323.17"/>
		<path clip-path="url(#SVGID_40_)" fill="#6D6D6D" d="M280.223,426.595h29.94v-4.789h-25.629c-2.381,0-4.311,1.93-4.311,4.31
			V426.595z"/>
		<rect x="304.305" y="325.245" clip-path="url(#SVGID_40_)" fill="#6D6D6D" width="3.956" height="101.349"/>
		<rect x="296.355" y="325.245" clip-path="url(#SVGID_40_)" fill="#6D6D6D" width="3.957" height="101.349"/>
		<path clip-path="url(#SVGID_40_)" fill="#A77961" d="M190.399,254.106c-0.342,0.798-0.704,1.907-1.054,3.13
			c-2.04-0.85-5.931-4.439-6.051-4.551C184.918,253.315,190.399,254.106,190.399,254.106"/>
		<path clip-path="url(#SVGID_40_)" fill="#6D6D6D" d="M258.74,325.246h57.037v-2.076c0-1.939-1.34-3.508-2.993-3.508H267.67
			L258.74,325.246z"/>
		<path clip-path="url(#SVGID_40_)" fill="#3D60AC" d="M183.159,267.393c0,0,4.11,5.825,6.65,10.235
			c2.882,5.002,5.714,9.941,6.339,11.051c1.271,2.258,5.794,3.466,7.795,4.323c1.841,0.79,32.5,17.201,32.89,17.164
			c0.389-0.033-3.303,6.115-3.303,6.115s-42.571-12.207-44.485-13.955c-1.912-1.749-7.593-9.709-9.917-12.989
			c-2.213-3.124-5.608-8.247-7.408-10.454c-2.014-2.469-6.236-10.915-0.866-15.126C177.713,258.375,181.508,264.922,183.159,267.393
			"/>
		<path clip-path="url(#SVGID_40_)" fill="#31579C" d="M171.49,278.588c0,0,4.923,13.354,7.885,17.905
			c2.961,4.554,6.229,8.339,6.229,8.339l1.576-4.607C187.18,300.225,174.437,282.697,171.49,278.588"/>
		<path clip-path="url(#SVGID_40_)" fill="#00B1D9" d="M642.977,308.96c-0.027,68.035-1.933,81.354-19.018,96.597
			c-6.69,5.97-18.995,18.371-54.498,24.546c-10.658,1.854-23.404,3.146-38.715,3.537c-6.248,0.158-11.98-0.069-17.226-0.641
			c-4.397-0.475-8.451-1.194-12.177-2.128c-39.02-9.776-41.934-43.21-24.868-71.334c4.521-7.447,9.685-14.294,15.1-20.678
			c8.357-9.857,17.318-18.615,25.434-26.789c7.479-7.532,14.241-14.568,19.156-21.517c2.073-2.928,3.817-5.838,5.148-8.766
			c0.317-0.691,0.636-1.379,0.957-2.057c1.05-2.21,2.13-4.335,3.221-6.369c2.05-3.817,4.136-7.307,6.149-10.431
			c1.605-2.494,3.164-4.754,4.614-6.759c4.983-6.887,8.684-10.754,8.684-10.754s0.462-0.218,1.315-0.57
			c0.451-0.19,1.02-0.419,1.688-0.674c0.268-0.103,0.55-0.209,0.85-0.32c0.297-0.11,0.608-0.223,0.937-0.338
			c0.3-0.106,0.612-0.216,0.933-0.325c0.379-0.129,0.772-0.26,1.183-0.394c0.24-0.078,0.484-0.157,0.735-0.235
			c0.148-0.047,0.299-0.095,0.45-0.141c0.056-0.017,0.114-0.035,0.172-0.053c5.065-1.552,12.014-3.171,19.576-3.44
			C615.2,238.128,643.003,249.186,642.977,308.96"/>
		<path clip-path="url(#SVGID_40_)" fill="#BACCE9" d="M552.204,411.386c0,0,0.56,4.561,1.3,6.57
			c0.742,2.013,4.764,6.656,3.064,11.116c-1.842,4.837-9.887,0.175-13.169-1.301c-3.281-1.477-2.533-4.152-2.884-7.434
			c-0.351-3.278-1.951-3.366-1.359-5.675c0.589-2.305,4.179-6.72,4.179-6.72L552.204,411.386z"/>
		<path clip-path="url(#SVGID_40_)" fill="#EFA986" d="M544.885,405.557c0,0-2.061,2.882-2.003,2.962
			c0.057,0.077,8.821,5.414,9.432,3.684c0.484-1.375,0.688-3.368,0.688-3.368L544.885,405.557z"/>
		<path clip-path="url(#SVGID_40_)" fill="#BACCE9" d="M515.173,414.61c0,0-2.673,2.343-5.074,5.944
			c-2.402,3.602-8.776,3.792-9.048,8.71c-0.273,4.915,8.665,5.067,13.358,3.467c4.694-1.601,5.402-6.401,8.239-7.604
			c2.839-1.201,4.313-2.172,4.094-4.515c-0.217-2.346-1.787-6.149-1.787-6.149s-1.765,0.563-2.801,0.677
			C521.116,415.255,517.629,415.297,515.173,414.61"/>
		<path clip-path="url(#SVGID_40_)" fill="#E9E8E8" d="M547.343,281.406c0,0-1.8,10.696-3.249,17.762
			c-0.589,2.865-1.118,5.134-1.447,5.847c-0.416,0.9-3.792,4.524-7.924,8.78c-7.249,7.463-16.829,16.861-16.829,16.861l-3.745-7.108
			c0,0,8.508-9.974,14.277-16.63c2.67-3.079,4.752-5.448,5.134-5.79c1.205-1.078,2.604-11.708,4.572-20.466
			c1.967-8.759,5.91-13.6,5.91-13.6L547.343,281.406z"/>
		<path clip-path="url(#SVGID_40_)" fill="#EFA986" d="M534.723,313.795c-7.249,7.463-16.829,16.86-16.829,16.86l-3.745-7.107
			c0,0,8.51-9.975,14.277-16.63C530.193,307.784,533.439,309.854,534.723,313.795"/>
		<path clip-path="url(#SVGID_40_)" fill="#EFA986" d="M515.594,411.334l-0.421,3.275c0,0,4.653,1.645,9.782-0.146l0.104-2.912
			L515.594,411.334z"/>
		<path clip-path="url(#SVGID_40_)" fill="#E9E8E8" d="M581.653,329.21c0.268,0.951-49.289,0-49.289,0s13.708-9.979,14.598-12.644
			c0.889-2.666-3.491-18.659-4.063-23.862c-0.456-4.164-1.602-22.796,1.144-25.641c2.869-2.976,13.2-6.094,13.2-6.094l15.063,0.561
			c0,0,2.486,0.519,4.263,1.345c1.777,0.824,11.938,4.443,13.589,9.521c1.651,5.078-10.14,21.401-10.14,21.401
			s-0.023,0.733-0.059,1.936c-0.045,1.604-0.113,4.039-0.175,6.685c-0.078,3.422-0.147,7.189-0.147,9.941
			C579.637,318.836,581.387,328.259,581.653,329.21"/>
		<path clip-path="url(#SVGID_40_)" fill="#303769" d="M581.654,329.212c0,0,6.74,9.899,6.835,16.657
			c0.096,6.76-11.962,29.398-13.786,32.636c-5.487,9.735-20.527,30.735-20.527,30.735s-2.595-0.065-10.686-3.208
			c0,0,10.008-27.738,11.276-30.617c5.379-12.215,8.382-20.877,6.573-22.972s-6.739-4.194-8.167-5.433
			c-1.428-1.237-26.304,4.702-28.913,5.378c-6.748,1.749-3.671,13.494-2.178,18.76c2.499,8.808,4.682,40.618,4.682,40.618
			s-4.808,2.049-12.86,0.318c0,0-15.813-57.438-16.319-63.15c-0.507-5.711-0.756-15.13,38.209-22.289L581.654,329.212z"/>
		<path clip-path="url(#SVGID_40_)" fill="#EFA986" d="M561.375,228.243c0,0-13.075-2.948-10.089,13.507
			c2.988,16.455,6.133,17.748,14.021,14.343c7.89-3.406,7.183-13.949,7.579-19.118S565.548,228.424,561.375,228.243"/>
		<path clip-path="url(#SVGID_40_)" fill="#EFA986" d="M557.915,265.194c0,0,5.792,6.14,14.943,0.56c0,0-2.048-13.306-0.97-19.785
			c1.077-6.48-11.94,10.04-11.94,10.04c0.171,0.09,0.284,0.709,0.311,1.589c0.022,0.745-0.017,1.68-0.137,2.637
			C559.853,262.388,559.185,264.665,557.915,265.194"/>
		<path clip-path="url(#SVGID_40_)" fill="#3B4048" d="M572.249,245.418c0,0-0.338-5.186-2.231-5.347
			c-1.894-0.162-2.184,1.926-2.184,1.926l-1.913,0.361c0,0,0.604-4.544-1.287-5.337c-1.891-0.794-12.251,2.501-13.768,1.167
			c-1.52-1.333-0.804-10.551,1.941-11.813c2.743-1.262,10.325-4.088,15.878-0.328c0,0,4.331-0.493,4.973,3
			C574.301,232.542,573.426,242.821,572.249,245.418"/>
		<path clip-path="url(#SVGID_40_)" fill="#A77961" d="M560.122,260.234c9.442-2.91,10.153-8.596,10.163-8.685
			c-3.108,5.342-10.026,6.048-10.026,6.048C560.281,258.343,560.242,259.277,560.122,260.234"/>
		<path clip-path="url(#SVGID_40_)" fill="#EFA986" d="M576.723,262.946c0,0-6.914,13.763-18.084,12.876
			c-11.171-0.891-1.903-14.726-1.396-14.854C557.801,260.829,568.698,258.115,576.723,262.946"/>
		<path clip-path="url(#SVGID_40_)" fill="#E9E8E8" d="M526.694,328.514c0,0,34.226,4.219,54.96,0.697l-39.619-4.95
			C542.035,324.261,541.8,325.271,526.694,328.514"/>
		<path clip-path="url(#SVGID_40_)" fill="#EFA986" d="M552.293,322.701l-2.549,1.293c0,0,0.58,4.049,1.976,5.275l2.862-0.729
			C554.582,328.54,553.984,324.099,552.293,322.701"/>
		<path clip-path="url(#SVGID_40_)" fill="#E9E8E8" d="M591.896,314.408c-0.509,0.591-7.238,3.298-14.839,6.225l-0.001,0.001
			c-10.384,4-22.097,7.785-22.097,7.785l-2.666-5.718c0,0,12.266-6.665,20.554-11.339c3.916-2.208,6.942-3.973,7.371-4.38
			c1.334-1.269,1.679-3.304,0.698-6.854c-0.98-3.549-3.238-19.866-3.491-21.769c-0.253-1.903,0.635-6.981,5.395-7.236
			c4.761-0.253,7.184,1.092,7.184,1.092s1.193,0.496,2.083,12.046C592.975,295.813,593.101,313.013,591.896,314.408"/>
		<path clip-path="url(#SVGID_40_)" fill="#B1B1B1" d="M579.959,295.734L579.959,295.734c-0.045,1.603-0.113,4.039-0.175,6.684
			c-4.646-11.387-1.961-20.477-1.915-20.629C577.367,284.879,579.923,295.583,579.959,295.734"/>
		<path clip-path="url(#SVGID_40_)" fill="#B1B1B1" d="M544.094,299.168L544.094,299.168c-0.589,2.864-1.118,5.135-1.447,5.848
			c-1.588-7.679-0.16-17.51-0.16-17.51C542.703,292.2,544.094,299.168,544.094,299.168"/>
		<path clip-path="url(#SVGID_40_)" fill="#EFA986" d="M577.057,320.633L577.057,320.633c-10.385,4.001-22.475,7.906-22.475,7.906
			l-2.289-5.839c0,0,12.266-6.665,20.554-11.339C572.847,311.361,575.862,312.831,577.057,320.633"/>
		<polygon clip-path="url(#SVGID_40_)" fill="#434244" points="551.555,328.881 502.908,328.163 527.469,340.634 		"/>
		<polygon clip-path="url(#SVGID_40_)" fill="#212123" points="527.469,340.634 551.555,331.305 551.555,328.881 525.566,338.254 		
			"/>
		<path clip-path="url(#SVGID_40_)" fill="#EFA986" d="M550.293,324.083c0,0-3.038-0.475-5.138-0.962
			c-1.626-0.381-5.667,0.142-6.695,1.185c-1.029,1.044-4.304,8.311-4.923,8.754c-0.62,0.444,0.318,1.47,1.404,0.955
			c0,0,0.998,3.179,3.462,1.989c2.464-1.191,4.137-3.79,5.427-4.247c1.289-0.458,8.805-2.768,8.805-2.768
			S552.23,323.309,550.293,324.083"/>
		<path clip-path="url(#SVGID_40_)" fill="#EFA986" d="M539.201,323.829c0,0-1.952,0.942-2.461,1.362
			c-0.51,0.42-2.576,1.968-3.076,2.331s0.755,1.397,4.448-0.201C541.804,325.723,539.201,323.829,539.201,323.829"/>
		<polygon clip-path="url(#SVGID_40_)" fill="#212123" points="527.469,340.634 513.001,301.128 466.355,301.89 480.145,338.296 		
			"/>
		<path clip-path="url(#SVGID_40_)" fill="#434244" d="M498.075,318.605c1.424,2.846,0.993,5.943-0.961,6.923
			c-1.953,0.977-4.691-0.539-6.114-3.385c-1.424-2.846-0.993-5.943,0.961-6.922C493.914,314.244,496.651,315.759,498.075,318.605"/>
		<path clip-path="url(#SVGID_40_)" fill="#EFA986" d="M567.873,239.801c0.172-1.452,3.041-1.984,3.271,0.192
			c0.232,2.176-1.303,5.997-2.393,5.621C567.664,245.238,567.637,241.802,567.873,239.801"/>
		<path clip-path="url(#SVGID_40_)" fill="#3D60AC" d="M626.832,178.912c-1.646,0.531-3.377,0.545-4.927,0.027
			c-1.76-0.585-3.081-1.781-3.727-3.366c-1.495-3.027-3.784-5.853-5.489-7.733c-5.064-1.485-9.044-5.346-10.667-10.366
			c-2.694-8.336,1.896-17.314,10.232-20.009c8.339-2.696,17.315,1.893,20.009,10.232c1.47,4.538,0.836,9.429-1.733,13.45
			c0.123,3.433,0.582,6.433,1.364,8.923c1.287,3.253-0.723,7.124-4.495,8.636C627.211,178.782,627.022,178.851,626.832,178.912
			 M612.656,138.703c-7.657,2.474-11.871,10.717-9.396,18.373c1.508,4.663,5.232,8.239,9.96,9.564l0.181,0.049l0.126,0.14
			c1.775,1.944,4.23,4.944,5.831,8.192l0.02,0.044c0.495,1.238,1.54,2.175,2.94,2.642c1.438,0.479,3.069,0.406,4.597-0.207
			c3.115-1.25,4.804-4.377,3.763-6.971l-0.008-0.021l-0.007-0.025c-0.838-2.653-1.322-5.85-1.438-9.498l-0.008-0.206l0.113-0.172
			c2.446-3.722,3.065-8.28,1.698-12.509C628.552,140.442,620.312,136.227,612.656,138.703"/>
		<polygon clip-path="url(#SVGID_40_)" fill="#3D60AC" points="622.054,175.01 613.567,159.77 618.041,161.166 619.173,158.019 
			621.847,159.443 623.887,155.521 628.557,172.352 627.304,172.699 623.518,159.05 622.395,161.208 619.888,159.875 
			618.843,162.781 616.286,161.982 623.189,174.378 		"/>
		
			<rect x="622.008" y="177.074" transform="matrix(0.928 -0.3726 0.3726 0.928 -21.632 246.7434)" clip-path="url(#SVGID_40_)" fill="#3D60AC" width="11.271" height="4.544"/>
		
			<rect x="618.983" y="172.67" transform="matrix(0.928 -0.3725 0.3725 0.928 -20.5956 246.0619)" clip-path="url(#SVGID_40_)" fill="#3D60AC" width="14.899" height="7.312"/>
		
			<rect x="223.215" y="126.81" transform="matrix(0.9798 0.2 -0.2 0.9798 32.9886 -45.773)" clip-path="url(#SVGID_40_)" fill="#456EB5" width="39.588" height="27.106"/>
		<polygon clip-path="url(#SVGID_40_)" fill="#5382C2" points="220.905,149.682 243.331,138.796 259.693,157.601 		"/>
		<polygon clip-path="url(#SVGID_40_)" fill="#31579C" points="265.114,131.045 242.342,143.628 226.325,123.125 		"/>
	</g>
</g>
</svg>
