<svg xmlns="http://www.w3.org/2000/svg" xmlns:xlink="http://www.w3.org/1999/xlink" viewBox="0 0 444.25 412.89"><defs><style>.cls-1{opacity:.85;}.cls-2{fill:url(#_Áåçûìÿííûé_ãðàäèåíò_38-6);}.cls-3{fill:url(#linear-gradient-2);}.cls-4{fill:#fff;}.cls-5{fill:url(#_Áåçûìÿííûé_ãðàäèåíò_32-3);}.cls-6{fill:url(#linear-gradient-17);}.cls-7{fill:url(#_Áåçûìÿííûé_ãðàäèåíò_334-2);}.cls-8{fill:url(#_Áåçûìÿííûé_ãðàäèåíò_3-7);}.cls-9{fill:url(#_Áåçûìÿííûé_ãðàäèåíò_333);}.cls-10{fill:url(#_Áåçûìÿííûé_ãðàäèåíò_32-2);}.cls-11{fill:#2481ce;}.cls-12{fill:url(#linear-gradient-15);}.cls-13{fill:url(#_Áåçûìÿííûé_ãðàäèåíò_38-2);}.cls-14{fill:url(#_Áåçûìÿííûé_ãðàäèåíò_3-11);}.cls-15{fill:url(#_Áåçûìÿííûé_ãðàäèåíò_3-10);}.cls-16{fill:url(#linear-gradient-18);}.cls-17{fill:url(#linear-gradient-14);}.cls-18,.cls-19{opacity:.06;}.cls-20{fill:url(#linear-gradient-6);}.cls-21{fill:#ccd5e2;}.cls-22{isolation:isolate;}.cls-23{opacity:.33;}.cls-24{fill:url(#_Áåçûìÿííûé_ãðàäèåíò_3-9);}.cls-25{fill:url(#_Áåçûìÿííûé_ãðàäèåíò_52);mix-blend-mode:multiply;}.cls-26{fill:#ffb4c4;}.cls-27{fill:#00aeef;}.cls-28{fill:url(#_Áåçûìÿííûé_ãðàäèåíò_32);}.cls-29{fill:#091946;}.cls-30{fill:#eef6f7;}.cls-31{fill:url(#linear-gradient-11);}.cls-32{fill:#dde6ed;}.cls-33{fill:url(#_Áåçûìÿííûé_ãðàäèåíò_3-8);}.cls-34{fill:url(#linear-gradient-10);}.cls-35{fill:#1a4f8f;}.cls-36{fill:url(#_Áåçûìÿííûé_ãðàäèåíò_38-4);}.cls-37{fill:#4d3a89;}.cls-38{fill:url(#_Áåçûìÿííûé_ãðàäèåíò_38-3);}.cls-39{fill:url(#_Áåçûìÿííûé_ãðàäèåíò_3-4);}.cls-40{fill:#798599;}.cls-41{fill:url(#linear-gradient-16);}.cls-42{fill:#9141af;}.cls-43{fill:#f3f7f7;}.cls-44{fill:#ff9f1a;}.cls-45{fill:#133677;}.cls-46{fill:url(#_Áåçûìÿííûé_ãðàäèåíò_38);}.cls-47,.cls-48{fill:#d8e4ef;}.cls-49{fill:#d6c7e2;}.cls-50{fill:url(#linear-gradient-5);}.cls-51{fill:#eadcf4;}.cls-52{fill:url(#_Áåçûìÿííûé_ãðàäèåíò_3-3);}.cls-53{fill:url(#_Áåçûìÿííûé_ãðàäèåíò_32-4);}.cls-54{fill:#e1e9ee;}.cls-55{fill:url(#_Áåçûìÿííûé_ãðàäèåíò_3-5);}.cls-56{fill:url(#_Áåçûìÿííûé_ãðàäèåíò_3-12);}.cls-57{fill:#ecf1f5;}.cls-58{fill:url(#linear-gradient-7);}.cls-59{fill:url(#_Áåçûìÿííûé_ãðàäèåíò_3-2);}.cls-60{fill:#afbbd2;}.cls-61{fill:#bbdbed;}.cls-62{fill:url(#linear-gradient-9);}.cls-63{fill:url(#_Áåçûìÿííûé_ãðàäèåíò_3-6);}.cls-64{fill:url(#linear-gradient-3);}.cls-65{fill:url(#_Áåçûìÿííûé_ãðàäèåíò_334);}.cls-66{fill:url(#_Áåçûìÿííûé_ãðàäèåíò_3);}.cls-67{fill:url(#linear-gradient);}.cls-68{fill:#619dd8;}.cls-69{fill:url(#_Áåçûìÿííûé_ãðàäèåíò_269);}.cls-70{fill:#757f96;}.cls-71,.cls-19{fill:#002e61;}.cls-48{opacity:.65;}.cls-72{fill:#818b9b;}.cls-73{fill:url(#_Áåçûìÿííûé_ãðàäèåíò_203);}.cls-74{fill:url(#_Áåçûìÿííûé_ãðàäèåíò_32-5);}.cls-75{fill:url(#linear-gradient-19);}.cls-76{fill:url(#linear-gradient-4);}.cls-77{fill:url(#linear-gradient-8);}.cls-78{fill:#bcadc9;}.cls-79{fill:#ffb0c1;}.cls-80{fill:#b1bdd4;}.cls-81{fill:url(#_Áåçûìÿííûé_ãðàäèåíò_38-5);}.cls-82{fill:url(#linear-gradient-12);}.cls-83{fill:url(#linear-gradient-13);}</style><linearGradient id="linear-gradient" x1="295.67" y1="230.08" x2="312.42" y2="230.08" gradientUnits="userSpaceOnUse"><stop offset="0" stop-color="#704b9d"></stop><stop offset="1" stop-color="#714a9d"></stop></linearGradient><linearGradient id="linear-gradient-2" x1="315.18" y1="240.92" x2="326.47" y2="240.92" xlink:href="#linear-gradient"></linearGradient><linearGradient id="_&#xC1;&#xE5;&#xE7;&#xFB;&#xEC;&#xFF;&#xED;&#xED;&#xFB;&#xE9;_&#xE3;&#xF0;&#xE0;&#xE4;&#xE8;&#xE5;&#xED;&#xF2;_32" x1="-56.64" y1="233.47" x2="-52.63" y2="233.47" gradientTransform="translate(268.47) rotate(-180) scale(1 -1)" gradientUnits="userSpaceOnUse"><stop offset="0" stop-color="#ffb0c1"></stop><stop offset=".32" stop-color="#fab"></stop><stop offset=".72" stop-color="#ff9bac"></stop><stop offset="1" stop-color="#ff8d9d"></stop></linearGradient><linearGradient id="_&#xC1;&#xE5;&#xE7;&#xFB;&#xEC;&#xFF;&#xED;&#xED;&#xFB;&#xE9;_&#xE3;&#xF0;&#xE0;&#xE4;&#xE8;&#xE5;&#xED;&#xF2;_32-2" x1="-42.17" y1="223.67" x2="-38.17" y2="223.67" xlink:href="#_&#xC1;&#xE5;&#xE7;&#xFB;&#xEC;&#xFF;&#xED;&#xED;&#xFB;&#xE9;_&#xE3;&#xF0;&#xE0;&#xE4;&#xE8;&#xE5;&#xED;&#xF2;_32"></linearGradient><linearGradient id="linear-gradient-3" x1="303.17" y1="194.76" x2="317.65" y2="194.76" xlink:href="#linear-gradient"></linearGradient><linearGradient id="_&#xC1;&#xE5;&#xE7;&#xFB;&#xEC;&#xFF;&#xED;&#xED;&#xFB;&#xE9;_&#xE3;&#xF0;&#xE0;&#xE4;&#xE8;&#xE5;&#xED;&#xF2;_38" x1="-47.54" y1="128.33" x2="-51.4" y2="155.54" gradientTransform="translate(268.47) rotate(-180) scale(1 -1)" gradientUnits="userSpaceOnUse"><stop offset="0" stop-color="#091946"></stop><stop offset=".81" stop-color="#1a3474"></stop></linearGradient><linearGradient id="linear-gradient-4" x1="-51.68" y1="200.59" x2="-61.8" y2="200.59" gradientTransform="translate(268.47) rotate(-180) scale(1 -1)" xlink:href="#linear-gradient"></linearGradient><linearGradient id="_&#xC1;&#xE5;&#xE7;&#xFB;&#xEC;&#xFF;&#xED;&#xED;&#xFB;&#xE9;_&#xE3;&#xF0;&#xE0;&#xE4;&#xE8;&#xE5;&#xED;&#xF2;_32-3" x1="-13.02" y1="145.21" x2="-15.3" y2="149.47" xlink:href="#_&#xC1;&#xE5;&#xE7;&#xFB;&#xEC;&#xFF;&#xED;&#xED;&#xFB;&#xE9;_&#xE3;&#xF0;&#xE0;&#xE4;&#xE8;&#xE5;&#xED;&#xF2;_32"></linearGradient><linearGradient id="_&#xC1;&#xE5;&#xE7;&#xFB;&#xEC;&#xFF;&#xED;&#xED;&#xFB;&#xE9;_&#xE3;&#xF0;&#xE0;&#xE4;&#xE8;&#xE5;&#xED;&#xF2;_32-4" x1="-34.67" y1="155.97" x2="-34.41" y2="152.74" xlink:href="#_&#xC1;&#xE5;&#xE7;&#xFB;&#xEC;&#xFF;&#xED;&#xED;&#xFB;&#xE9;_&#xE3;&#xF0;&#xE0;&#xE4;&#xE8;&#xE5;&#xED;&#xF2;_32"></linearGradient><linearGradient id="_&#xC1;&#xE5;&#xE7;&#xFB;&#xEC;&#xFF;&#xED;&#xED;&#xFB;&#xE9;_&#xE3;&#xF0;&#xE0;&#xE4;&#xE8;&#xE5;&#xED;&#xF2;_32-5" x1="-49.95" y1="134.88" x2="-42.49" y2="134.88" xlink:href="#_&#xC1;&#xE5;&#xE7;&#xFB;&#xEC;&#xFF;&#xED;&#xED;&#xFB;&#xE9;_&#xE3;&#xF0;&#xE0;&#xE4;&#xE8;&#xE5;&#xED;&#xF2;_32"></linearGradient><linearGradient id="_&#xC1;&#xE5;&#xE7;&#xFB;&#xEC;&#xFF;&#xED;&#xED;&#xFB;&#xE9;_&#xE3;&#xF0;&#xE0;&#xE4;&#xE8;&#xE5;&#xED;&#xF2;_38-2" x1="-48.65" y1="128.16" x2="-52.49" y2="155.32" xlink:href="#_&#xC1;&#xE5;&#xE7;&#xFB;&#xEC;&#xFF;&#xED;&#xED;&#xFB;&#xE9;_&#xE3;&#xF0;&#xE0;&#xE4;&#xE8;&#xE5;&#xED;&#xF2;_38"></linearGradient><linearGradient id="_&#xC1;&#xE5;&#xE7;&#xFB;&#xEC;&#xFF;&#xED;&#xED;&#xFB;&#xE9;_&#xE3;&#xF0;&#xE0;&#xE4;&#xE8;&#xE5;&#xED;&#xF2;_269" x1="-43.54" y1="131.52" x2="-34.56" y2="136.79" gradientTransform="translate(268.47) rotate(-180) scale(1 -1)" gradientUnits="userSpaceOnUse"><stop offset="0" stop-color="#ffb0c1"></stop><stop offset=".32" stop-color="#fab"></stop><stop offset=".44" stop-color="#ffa7b8"></stop><stop offset=".77" stop-color="#ff99a9"></stop><stop offset="1" stop-color="#ff8d9d"></stop></linearGradient><linearGradient id="_&#xC1;&#xE5;&#xE7;&#xFB;&#xEC;&#xFF;&#xED;&#xED;&#xFB;&#xE9;_&#xE3;&#xF0;&#xE0;&#xE4;&#xE8;&#xE5;&#xED;&#xF2;_38-3" x1="-52.07" y1="133.59" x2="-36.29" y2="122.58" xlink:href="#_&#xC1;&#xE5;&#xE7;&#xFB;&#xEC;&#xFF;&#xED;&#xED;&#xFB;&#xE9;_&#xE3;&#xF0;&#xE0;&#xE4;&#xE8;&#xE5;&#xED;&#xF2;_38"></linearGradient><linearGradient id="linear-gradient-5" x1="225.51" y1="155.29" x2="274.25" y2="155.29" gradientTransform="translate(-409.07 -265.81) scale(2.53)" gradientUnits="userSpaceOnUse"><stop offset=".57" stop-color="#546ab1"></stop><stop offset="1" stop-color="#47c6ec"></stop></linearGradient><linearGradient id="linear-gradient-6" x1="219.93" y1="135.01" x2="279.63" y2="135.01" xlink:href="#linear-gradient-5"></linearGradient><linearGradient id="_&#xC1;&#xE5;&#xE7;&#xFB;&#xEC;&#xFF;&#xED;&#xED;&#xFB;&#xE9;_&#xE3;&#xF0;&#xE0;&#xE4;&#xE8;&#xE5;&#xED;&#xF2;_52" x1=".36" y1="186.22" x2="-7.25" y2="170.33" gradientTransform="translate(132.28) rotate(-180) scale(1 -1)" gradientUnits="userSpaceOnUse"><stop offset="0" stop-color="#fff"></stop><stop offset="1" stop-color="#afbbd2"></stop></linearGradient><linearGradient id="_&#xC1;&#xE5;&#xE7;&#xFB;&#xEC;&#xFF;&#xED;&#xED;&#xFB;&#xE9;_&#xE3;&#xF0;&#xE0;&#xE4;&#xE8;&#xE5;&#xED;&#xF2;_334" x1="79.56" y1="299.51" x2="84.02" y2="299.51" gradientUnits="userSpaceOnUse"><stop offset="0" stop-color="#ff9ca8"></stop><stop offset="1" stop-color="#ffb0c1"></stop></linearGradient><linearGradient id="_&#xC1;&#xE5;&#xE7;&#xFB;&#xEC;&#xFF;&#xED;&#xED;&#xFB;&#xE9;_&#xE3;&#xF0;&#xE0;&#xE4;&#xE8;&#xE5;&#xED;&#xF2;_334-2" x1="97.15" y1="307.8" x2="102.49" y2="307.8" xlink:href="#_&#xC1;&#xE5;&#xE7;&#xFB;&#xEC;&#xFF;&#xED;&#xED;&#xFB;&#xE9;_&#xE3;&#xF0;&#xE0;&#xE4;&#xE8;&#xE5;&#xED;&#xF2;_334"></linearGradient><linearGradient id="_&#xC1;&#xE5;&#xE7;&#xFB;&#xEC;&#xFF;&#xED;&#xED;&#xFB;&#xE9;_&#xE3;&#xF0;&#xE0;&#xE4;&#xE8;&#xE5;&#xED;&#xF2;_3" x1="89.18" y1="198.11" x2="93.72" y2="192.97" gradientUnits="userSpaceOnUse"><stop offset="0" stop-color="#ffb0c1"></stop><stop offset="1" stop-color="#ff9ca8"></stop></linearGradient><linearGradient id="_&#xC1;&#xE5;&#xE7;&#xFB;&#xEC;&#xFF;&#xED;&#xED;&#xFB;&#xE9;_&#xE3;&#xF0;&#xE0;&#xE4;&#xE8;&#xE5;&#xED;&#xF2;_3-2" x1="13.17" y1="253.16" x2="14.96" y2="253.16" gradientTransform="translate(112.6 -50.95) rotate(172.91) scale(1 -1)" xlink:href="#_&#xC1;&#xE5;&#xE7;&#xFB;&#xEC;&#xFF;&#xED;&#xED;&#xFB;&#xE9;_&#xE3;&#xF0;&#xE0;&#xE4;&#xE8;&#xE5;&#xED;&#xF2;_3"></linearGradient><linearGradient id="_&#xC1;&#xE5;&#xE7;&#xFB;&#xEC;&#xFF;&#xED;&#xED;&#xFB;&#xE9;_&#xE3;&#xF0;&#xE0;&#xE4;&#xE8;&#xE5;&#xED;&#xF2;_3-3" x1="-150.39" y1="-25.98" x2="-150.37" y2="-25.77" gradientTransform="translate(450.85 -482.29) rotate(-74.63) scale(4.93 4.94) skewX(-.05)" xlink:href="#_&#xC1;&#xE5;&#xE7;&#xFB;&#xEC;&#xFF;&#xED;&#xED;&#xFB;&#xE9;_&#xE3;&#xF0;&#xE0;&#xE4;&#xE8;&#xE5;&#xED;&#xF2;_3"></linearGradient><linearGradient id="_&#xC1;&#xE5;&#xE7;&#xFB;&#xEC;&#xFF;&#xED;&#xED;&#xFB;&#xE9;_&#xE3;&#xF0;&#xE0;&#xE4;&#xE8;&#xE5;&#xED;&#xF2;_3-4" x1="-150.6" y1="-50.6" x2="-150.6" y2="-50.26" gradientTransform="translate(636.34 -403.68) rotate(-68.61) scale(4.93) skewX(-.02)" xlink:href="#_&#xC1;&#xE5;&#xE7;&#xFB;&#xEC;&#xFF;&#xED;&#xED;&#xFB;&#xE9;_&#xE3;&#xF0;&#xE0;&#xE4;&#xE8;&#xE5;&#xED;&#xF2;_3"></linearGradient><linearGradient id="_&#xC1;&#xE5;&#xE7;&#xFB;&#xEC;&#xFF;&#xED;&#xED;&#xFB;&#xE9;_&#xE3;&#xF0;&#xE0;&#xE4;&#xE8;&#xE5;&#xED;&#xF2;_3-5" x1="423.63" y1="610.83" x2="424.47" y2="612.54" gradientTransform="translate(-472.46 -231.04) rotate(90.54) scale(1 -1)" xlink:href="#_&#xC1;&#xE5;&#xE7;&#xFB;&#xEC;&#xFF;&#xED;&#xED;&#xFB;&#xE9;_&#xE3;&#xF0;&#xE0;&#xE4;&#xE8;&#xE5;&#xED;&#xF2;_3"></linearGradient><linearGradient id="_&#xC1;&#xE5;&#xE7;&#xFB;&#xEC;&#xFF;&#xED;&#xED;&#xFB;&#xE9;_&#xE3;&#xF0;&#xE0;&#xE4;&#xE8;&#xE5;&#xED;&#xF2;_38-4" x1="84.35" y1="180.77" x2="99.43" y2="180.77" gradientTransform="matrix(1, 0, 0, 1, 0, 0)" xlink:href="#_&#xC1;&#xE5;&#xE7;&#xFB;&#xEC;&#xFF;&#xED;&#xED;&#xFB;&#xE9;_&#xE3;&#xF0;&#xE0;&#xE4;&#xE8;&#xE5;&#xED;&#xF2;_38"></linearGradient><linearGradient id="_&#xC1;&#xE5;&#xE7;&#xFB;&#xEC;&#xFF;&#xED;&#xED;&#xFB;&#xE9;_&#xE3;&#xF0;&#xE0;&#xE4;&#xE8;&#xE5;&#xED;&#xF2;_3-6" x1="272.53" y1="194.8" x2="275.46" y2="194.8" xlink:href="#_&#xC1;&#xE5;&#xE7;&#xFB;&#xEC;&#xFF;&#xED;&#xED;&#xFB;&#xE9;_&#xE3;&#xF0;&#xE0;&#xE4;&#xE8;&#xE5;&#xED;&#xF2;_3"></linearGradient><linearGradient id="_&#xC1;&#xE5;&#xE7;&#xFB;&#xEC;&#xFF;&#xED;&#xED;&#xFB;&#xE9;_&#xE3;&#xF0;&#xE0;&#xE4;&#xE8;&#xE5;&#xED;&#xF2;_3-7" x1="272.35" y1="190.73" x2="276.17" y2="190.73" xlink:href="#_&#xC1;&#xE5;&#xE7;&#xFB;&#xEC;&#xFF;&#xED;&#xED;&#xFB;&#xE9;_&#xE3;&#xF0;&#xE0;&#xE4;&#xE8;&#xE5;&#xED;&#xF2;_3"></linearGradient><linearGradient id="_&#xC1;&#xE5;&#xE7;&#xFB;&#xEC;&#xFF;&#xED;&#xED;&#xFB;&#xE9;_&#xE3;&#xF0;&#xE0;&#xE4;&#xE8;&#xE5;&#xED;&#xF2;_3-8" x1="273.6" y1="191.76" x2="286.85" y2="191.76" xlink:href="#_&#xC1;&#xE5;&#xE7;&#xFB;&#xEC;&#xFF;&#xED;&#xED;&#xFB;&#xE9;_&#xE3;&#xF0;&#xE0;&#xE4;&#xE8;&#xE5;&#xED;&#xF2;_3"></linearGradient><linearGradient id="linear-gradient-7" x1="373.95" y1="159" x2="381.67" y2="159" gradientUnits="userSpaceOnUse"><stop offset="0" stop-color="#b71d84"></stop><stop offset="1" stop-color="#b71d84"></stop></linearGradient><linearGradient id="linear-gradient-8" x1="398.67" y1="165.96" x2="403.75" y2="165.96" xlink:href="#linear-gradient-7"></linearGradient><linearGradient id="linear-gradient-9" x1="161.89" y1="341.81" x2="173.04" y2="341.81" xlink:href="#linear-gradient"></linearGradient><linearGradient id="linear-gradient-10" x1="176.47" y1="353.27" x2="197.17" y2="353.27" xlink:href="#linear-gradient"></linearGradient><linearGradient id="linear-gradient-11" x1="-35.59" y1="309.81" x2="-46.02" y2="312.61" gradientTransform="translate(127.32) rotate(-180) scale(1 -1)" xlink:href="#linear-gradient"></linearGradient><linearGradient id="linear-gradient-12" x1="-59.74" y1="308.55" x2="-50.36" y2="308.55" gradientTransform="translate(127.32) rotate(-180) scale(1 -1)" xlink:href="#linear-gradient"></linearGradient><linearGradient id="_&#xC1;&#xE5;&#xE7;&#xFB;&#xEC;&#xFF;&#xED;&#xED;&#xFB;&#xE9;_&#xE3;&#xF0;&#xE0;&#xE4;&#xE8;&#xE5;&#xED;&#xF2;_3-9" x1="-3462.55" y1="-425.96" x2="-3463.5" y2="-426.77" gradientTransform="translate(-3276.1 641.85) rotate(166.37)" xlink:href="#_&#xC1;&#xE5;&#xE7;&#xFB;&#xEC;&#xFF;&#xED;&#xED;&#xFB;&#xE9;_&#xE3;&#xF0;&#xE0;&#xE4;&#xE8;&#xE5;&#xED;&#xF2;_3"></linearGradient><linearGradient id="_&#xC1;&#xE5;&#xE7;&#xFB;&#xEC;&#xFF;&#xED;&#xED;&#xFB;&#xE9;_&#xE3;&#xF0;&#xE0;&#xE4;&#xE8;&#xE5;&#xED;&#xF2;_3-10" x1="-3464.98" y1="-424.84" x2="-3465.27" y2="-425.71" gradientTransform="translate(-3276.1 641.85) rotate(166.37)" xlink:href="#_&#xC1;&#xE5;&#xE7;&#xFB;&#xEC;&#xFF;&#xED;&#xED;&#xFB;&#xE9;_&#xE3;&#xF0;&#xE0;&#xE4;&#xE8;&#xE5;&#xED;&#xF2;_3"></linearGradient><linearGradient id="linear-gradient-13" x1="-57.43" y1="236.26" x2="-49.09" y2="239.93" gradientTransform="translate(127.32) rotate(-180) scale(1 -1)" xlink:href="#linear-gradient"></linearGradient><linearGradient id="linear-gradient-14" x1="-62.56" y1="243.31" x2="-59.9" y2="243.31" gradientTransform="translate(127.32) rotate(-180) scale(1 -1)" xlink:href="#linear-gradient-7"></linearGradient><linearGradient id="linear-gradient-15" x1="-52.33" y1="258.73" x2="-30.6" y2="253.23" gradientTransform="translate(127.32) rotate(-180) scale(1 -1)" xlink:href="#linear-gradient-7"></linearGradient><linearGradient id="linear-gradient-16" x1="-49.93" y1="262.89" x2="-55.7" y2="262.89" gradientTransform="translate(127.32) rotate(-180) scale(1 -1)" xlink:href="#linear-gradient-7"></linearGradient><linearGradient id="_&#xC1;&#xE5;&#xE7;&#xFB;&#xEC;&#xFF;&#xED;&#xED;&#xFB;&#xE9;_&#xE3;&#xF0;&#xE0;&#xE4;&#xE8;&#xE5;&#xED;&#xF2;_3-11" x1="-3530.02" y1="238.23" x2="-3535.18" y2="233.89" gradientTransform="translate(-3357.93) rotate(-180) scale(1 -1)" xlink:href="#_&#xC1;&#xE5;&#xE7;&#xFB;&#xEC;&#xFF;&#xED;&#xED;&#xFB;&#xE9;_&#xE3;&#xF0;&#xE0;&#xE4;&#xE8;&#xE5;&#xED;&#xF2;_3"></linearGradient><linearGradient id="_&#xC1;&#xE5;&#xE7;&#xFB;&#xEC;&#xFF;&#xED;&#xED;&#xFB;&#xE9;_&#xE3;&#xF0;&#xE0;&#xE4;&#xE8;&#xE5;&#xED;&#xF2;_38-5" x1="-46.11" y1="226.15" x2="-42.83" y2="218.48" gradientTransform="translate(127.32) rotate(-180) scale(1 -1)" xlink:href="#_&#xC1;&#xE5;&#xE7;&#xFB;&#xEC;&#xFF;&#xED;&#xED;&#xFB;&#xE9;_&#xE3;&#xF0;&#xE0;&#xE4;&#xE8;&#xE5;&#xED;&#xF2;_38"></linearGradient><linearGradient id="linear-gradient-17" x1="179.4" y1="259.68" x2="200.64" y2="259.68" xlink:href="#linear-gradient-7"></linearGradient><linearGradient id="linear-gradient-18" x1="-73.32" y1="250.38" x2="-69.79" y2="250.38" gradientTransform="translate(127.32) rotate(-180) scale(1 -1)" xlink:href="#linear-gradient-7"></linearGradient><linearGradient id="linear-gradient-19" x1="-66.81" y1="261.44" x2="-61" y2="261.31" gradientTransform="translate(127.32) rotate(-180) scale(1 -1)" xlink:href="#linear-gradient-7"></linearGradient><linearGradient id="_&#xC1;&#xE5;&#xE7;&#xFB;&#xEC;&#xFF;&#xED;&#xED;&#xFB;&#xE9;_&#xE3;&#xF0;&#xE0;&#xE4;&#xE8;&#xE5;&#xED;&#xF2;_203" x1="-73.04" y1="237.97" x2="-60.5" y2="237.97" gradientTransform="translate(127.32) rotate(-180) scale(1 -1)" gradientUnits="userSpaceOnUse"><stop offset="0" stop-color="#ff9f1a"></stop><stop offset="1" stop-color="#ff7227"></stop></linearGradient><linearGradient id="_&#xC1;&#xE5;&#xE7;&#xFB;&#xEC;&#xFF;&#xED;&#xED;&#xFB;&#xE9;_&#xE3;&#xF0;&#xE0;&#xE4;&#xE8;&#xE5;&#xED;&#xF2;_3-12" x1="-3556.26" y1="243.11" x2="-3558.5" y2="245.31" gradientTransform="translate(-3357.93) rotate(-180) scale(1 -1)" xlink:href="#_&#xC1;&#xE5;&#xE7;&#xFB;&#xEC;&#xFF;&#xED;&#xED;&#xFB;&#xE9;_&#xE3;&#xF0;&#xE0;&#xE4;&#xE8;&#xE5;&#xED;&#xF2;_3"></linearGradient><linearGradient id="_&#xC1;&#xE5;&#xE7;&#xFB;&#xEC;&#xFF;&#xED;&#xED;&#xFB;&#xE9;_&#xE3;&#xF0;&#xE0;&#xE4;&#xE8;&#xE5;&#xED;&#xF2;_38-6" x1="-36.53" y1="216.86" x2="-42.95" y2="214.63" gradientTransform="translate(127.32) rotate(-180) scale(1 -1)" xlink:href="#_&#xC1;&#xE5;&#xE7;&#xFB;&#xEC;&#xFF;&#xED;&#xED;&#xFB;&#xE9;_&#xE3;&#xF0;&#xE0;&#xE4;&#xE8;&#xE5;&#xED;&#xF2;_38"></linearGradient><linearGradient id="_&#xC1;&#xE5;&#xE7;&#xFB;&#xEC;&#xFF;&#xED;&#xED;&#xFB;&#xE9;_&#xE3;&#xF0;&#xE0;&#xE4;&#xE8;&#xE5;&#xED;&#xF2;_333" x1="119.53" y1="203.75" x2="124.88" y2="216.87" gradientUnits="userSpaceOnUse"><stop offset="0" stop-color="#ffb4c4"></stop><stop offset="1" stop-color="#ffcad5"></stop></linearGradient></defs><g class="cls-22"><g id="Layer_2"><g id="_&#xD1;&#xEB;&#xEE;&#xE9;_2"><path class="cls-43" d="M302.03,150.38l134.64,76.61s18.35,13.55-2.05,24.37c-20.4,10.82-240.72,137.81-240.72,137.81,0,0-19.62,11.22-41.31,0-25.93-13.41-136.65-78.54-136.65-78.54,0,0-13.15-12.6,18.62-27.03,31.77-14.43,236.34-135.18,236.34-135.18,0,0,15.53-7.39,31.12,1.96Z"></path><g><path class="cls-19" d="M290.69,235.91c.74,4.16,5.02,5,8.54,5.56,2.27,.36,4.55,.64,6.84,.82,1.44,.11,4.37-.27,4.81,1.28,.28,.96,0,2.13,.27,3.15,.22,.8,.58,1.59,1.04,2.28,.86,1.3,2.11,2.31,3.54,2.9,3.09,1.26,7.89,1.03,10.04-1.76,3.53-4.57,9.55-15.02,2.02-18.91-.6-.31-1.19-.39-1.73-.3-1.08-.54-2.24-.85-3.55-.98-1.81-.18-4.87,.53-6.05-1.18-1.03-1.51-1.4-2.98-3.08-4.04-1.59-1.01-3.53-1.34-5.37-1.07-3.67,.53-7.48,2.72-10.67,4.51-2.92,1.63-7.39,3.68-6.67,7.74Z"></path><g><path class="cls-67" d="M308.64,224.39s3.46-.95,3.78,5.28c.04,.82-.67,1.07-.67,1.07l-5.94,2s-3.82,2.36-6.07,2.96-3.64-.11-4.03-.57c-.5-3.05,3.46-3.9,4.93-5,1.46-1.1,5.9-5.49,6.72-5.78s1.28,.04,1.28,.04Z"></path><path class="cls-37" d="M302.3,232.12c1.17-.88,4.24-3.87,5.84-5.17,.56,.13,1.14,.14,1.68-.01,.47-.13,.94-.29,1.31-.58,.22,.03,.46,.09,.71,.21,.29,.76,.51,1.76,.58,3.11,.04,.82-.67,1.07-.67,1.07l-5.94,2s-3.82,2.36-6.07,2.96c-.92,.25-1.69,.27-2.31,.19,.58-2.07,3.62-2.83,4.86-3.77Z"></path><path class="cls-3" d="M326.38,238.61c-.05,.08-5.88,8.12-6.82,8.99-.94,.87-3.67,1.95-4.31,0-.54-3.32,2-6.19,3.72-9.66,.87-1.75,1.28-2.71,2.5-3.93,1.16-1.17,2.96-1.17,4.41,.29,.88,1.93,.5,4.32,.5,4.32Z"></path><path class="cls-37" d="M319.08,247.96c.28-2.7,2.3-5.2,3.75-8.13,.87-1.75,1.28-2.71,2.5-3.93,.27-.27,.57-.47,.9-.62,.42,1.67,.15,3.32,.15,3.32-.05,.08-5.88,8.12-6.82,8.99-.13,.12-.3,.25-.49,.37Z"></path><path class="cls-28" d="M321.1,230.75c-.02,.06,.19,4.39,.19,4.39,0,0,.16,1.22,1.98,1.22s1.83-1.22,1.83-1.22v-4.56l-4,.17Z"></path><path class="cls-10" d="M306.64,220.95c-.02,.06,.19,4.39,.19,4.39,0,0,.16,1.22,1.98,1.22s1.83-1.22,1.83-1.22v-4.56l-4,.17Z"></path><path class="cls-64" d="M306.57,166.09s-4.97,13.04-2.9,29.46c-1.07,7,1.78,17.56,2.9,27.34,1.15,.96,3.32,.44,4.24,.1,.08-10.59,1.93-16.77-.21-26.15,1.5-2.57,7.05-22.2,7.05-22.2l-11.08-8.54Z"></path><path class="cls-37" d="M307.17,195.83c2.39-5.42,5.6-19.5,5.6-19.5v-.38s2.43-.6,4.84-1.18c-.48,1.68-5.58,19.61-7.01,22.06,2.14,9.39,.29,15.56,.21,26.15-.5,.19-1.36,.42-2.23,.45-.21-4.07-.86-17.07-1.41-27.6Z"></path><path class="cls-49" d="M287.35,149.98s7.92,.52,11.44-1.67c2.05-1.27,6.58-12.69,11.69-12.15,5.1,.54,2.13,5.84-.38,8.14-2.51,2.3-5.32,7.34-9.08,9.22s-13.4,.41-13.4,.41l-.26-3.94Z"></path><path class="cls-49" d="M287.47,151.83c1.96,.07,9.03,.24,13.4-.95,4.21-1.15,2.07-11.8,11.69-13.96,.2,.18,.35,.38,.46,.59-.08,.88-.19,2.02-.31,3.23-.62,1.33-1.65,2.66-2.62,3.55-2.51,2.3-5.32,7.34-9.08,9.22s-13.4,.41-13.4,.41l-.14-2.09Z"></path><path class="cls-46" d="M327.86,171.5c8.85-4.03-1.48-21.39-2.36-23.7-.87-2.28-1.58-4.63-2.11-7.01-.53-2.4-.88-4.84-1.36-7.26-.46-2.34-1.1-4.68-2.12-6.84-.83-1.76-2.05-3.68-3.85-4.6-.78-.4-1.67-.59-2.55-.55-.04,0-.04,.07,0,.07,0,0,0,0,.01,0-.92,.18-1.77,.97-2.05,1.9-.34,1.14-.02,2.38,.28,3.49,.35,1.31,.63,2.62,.73,3.97,.39,5.19-1.73,10.02-2.55,15.06-1.04,6.33-.54,13.09,1.9,19.05,3.15,3.37,11.33,8.55,16.02,6.41Z"></path><path class="cls-42" d="M318.55,166.09s-5.81,.74-6.58,3.82c-.77,3.08,.41,19.06,4.27,30.94-.93,6.07,3.89,20.15,4.57,30.83,1.83,.8,3.81,.24,4.66-.1,.34-10.34,3.85-19.19-1.45-29.36-.28-5.73,13.36-35.55-5.47-36.12Z"></path><path class="cls-76" d="M325.99,169.1c6.79,7.82-2.19,28.44-1.97,33.1,5.3,10.17,1.79,19.02,1.45,29.36-.49,.19-1.33,.46-2.31,.5,.1-4.19,.09-16.07-2.33-32.35,1.78-15.51,0-29.58,0-29.58l5.17-1.04Z"></path><path class="cls-51" d="M311.19,135.58s8.83-1.53,16.81,5.88c1.99,1.85-3.47,11.52-4.01,16.56s2.12,10.76,1.53,11.62c-.59,.86-5.71,4.53-13.96,1.45-4.71-1.77-5.41-4.28-5.41-4.28l1.55-12.37s-4.76-2.11-3.42-5.83,1.63-4.28,2.02-8.41c.39-4.13,4.87-4.6,4.87-4.6Z"></path><path class="cls-79" d="M311.23,140.01c-.85,2.5,.35,4.83,2.67,5.22,2.32,.39,4.89-1.32,5.74-3.82,.85-2.5-.35-4.83-2.67-5.22-2.32-.39-4.89,1.32-5.74,3.82Z"></path><path class="cls-49" d="M322.3,146.95s-.95,1.15-1.16,2.52c-.21,1.37-.33,4.86-2.07,5.77-2.12,1.1-5.02-.12-7.51-.42,4.46,2.5,8.04,11.71,10.75,11.25,1.84-.32,1.41-13.32,1.41-13.32l-1.41-5.8Z"></path><path class="cls-5" d="M283.48,150.48c-.14-1.1-1.27-2.13-1.04-3.05,.23-.92,1.11-.15,1.24,.21,.13,.36,.59,2.47,.59,2.47,0,0-.65,1.47-.79,.37Z"></path><g><path class="cls-53" d="M301.33,153.21l1.54-.44c.22-.06,.45,0,.62,.15l1.09,1.04s-.82,.79-.85,.84c-.04,.05-1.95-.87-1.95-.87l-.45-.73Z"></path><path class="cls-79" d="M296.78,152.07c.45-.96,5.65,1.5,7.71,1.85,1.15,.87,3.56,3.24,3.56,3.24l1.93,1.39-2.09,2.28-1.77-1.47s-2.5-.25-2.92-.4-2.44-1.2-2.7-1.47c-.27-.27-.39-.79,.16-.83-.56-.11-.79-1.01,.11-1.02-.7-.23-.59-1.13,.27-1.04-1.02-.66-4.71-1.55-4.26-2.52Z"></path><path class="cls-78" d="M306.57,160l2.37-2.8s10.33,9.4,11.89,8.18c1.48-1.16,.32-15.97,1-19.52,.42-2.21,1.82-5.17,4.33-5.17,2.71,0,3.64,3.67,3.57,8.35-.06,4.69-.55,21.61-5.82,23.41-6.32,2.16-17.34-12.45-17.34-12.45Z"></path></g><path class="cls-74" d="M313.45,138.58s.64,1.26,2.84,.79c2.28-.48,2.13-1.54,2.13-1.54l-2.27-7.54-5.19,1.7,2.49,6.59Z"></path><path class="cls-13" d="M322.71,137.61s-.06-.04-.08-.06c0-.01,0-.02,0-.03-.9-.75-1.92-1.37-2.75-2.19-.78-.76-1.3-1.69-2.02-2.48-.7-.77-1.6-1.25-2.7-1.44-.71-.12-1.69,.26-1.69,1,0,.04,.02,.07,.04,.1,.07,.79,.29,1.6,.7,2.3,.43,.74,1.11,1.17,1.99,1.42,1.04,.29,2.11,.28,3.17,.46,1.17,.2,2.17,.69,3.28,1.03,.06,.02,.11-.06,.06-.1Z"></path><path class="cls-79" d="M312.52,130.12s1.29,4.18,1.29,4.68c0,1-1.22,2.57-3.35,3.96-1.16,.75-1.74,.16-1.74,.16,0,0-1.6-.98-2.55-3.2-.22-.52-.36-1.51-.54-2.07-.26-.87-1.21-1.84-1.32-2.71-.46-3.82,5.46-5.28,6.6-3.82,1.14,1.46,1.6,3,1.6,3Z"></path><path class="cls-69" d="M309.7,126.59c.54,.06,.98,.23,1.22,.53,1.14,1.46,1.6,3,1.6,3,0,0,1.29,4.18,1.29,4.68,0,.86-1.24,2.72-3.69,4.15-1.07,.47-.38-2.14-1.07-3.78-.22-.52-.36-1.51-.54-2.07-.26-.87-1.21-1.84-1.32-2.71-.22-1.83,1.02-3.12,2.51-3.8Z"></path><path class="cls-38" d="M304.45,131.43c-.54-1.92,2.59,.57,4.26-1.11,.34,.69,1.65,2.35,3.81,1.97,.23,.47,1.72-.58,1.84,.09,.37,2.02,3.35,2.39,3.28,.09-.09-3.13,1.88-4.14,.77-7.74-.75-2.43-5.04-6.72-8.83-4.29-2.79-1.19-4.6,2.27-5.88,4.11-1.03,1.48-1.26,5,.74,6.88Z"></path><path class="cls-79" d="M312.94,131.15c1.25-.43,1.57,3.63,.64,3.43-1.32-.29-1.87-3.01-.64-3.43Z"></path><path class="cls-80" d="M296.26,162.58l-4.64-16.9c-.05-.17-.16-.32-.31-.42l-10.02-6.28c-.07-.04-.14-.03-.2,0h0s0,0,0,0h0s-.5,.34-.5,.34l.59,.3,5.62,17.04c.06,.19,.19,.35,.36,.46l8.38,5.49c.03,.12,.13,.57,.13,.57,.01-.01,.34-.24,.47-.33,.02-.01,.04-.02,.06-.04h0c.07-.06,.11-.16,.08-.26Z"></path><path class="cls-32" d="M280.51,139.54l5.77,17.49c.06,.19,.19,.35,.36,.46l8.73,5.72c.2,.13,.45-.05,.39-.28l-4.64-16.9c-.05-.17-.16-.32-.31-.42l-10.02-6.28c-.14-.09-.32,.05-.27,.21Z"></path><path class="cls-40" d="M291.8,147.48h0c-.08,.02-.16-.02-.18-.1l-.21-.78c-.02-.08,.02-.16,.1-.18h0c.08-.02,.16,.02,.18,.1l.21,.78c.02,.08-.02,.16-.1,.18Z"></path><g><path class="cls-40" d="M289.83,144.51c0-.05-.06-.1-.13-.1-.07,0-.13,.04-.14,.09,0,.05,.06,.1,.13,.1,.07,0,.13-.04,.14-.09Z"></path><path class="cls-40" d="M289.47,144.3c0-.05-.06-.1-.13-.1-.07,0-.13,.04-.14,.09,0,.05,.06,.1,.13,.1,.07,0,.13-.04,.14-.09Z"></path><path class="cls-40" d="M289.11,144.09c0-.05-.06-.1-.13-.1-.07,0-.13,.04-.14,.09,0,.05,.06,.1,.13,.1,.07,0,.13-.04,.14-.09Z"></path><path class="cls-40" d="M288.76,143.88c0-.05-.06-.1-.13-.1-.07,0-.13,.04-.14,.09,0,.05,.06,.1,.13,.1,.07,0,.13-.04,.14-.09Z"></path><path class="cls-40" d="M288.4,143.67c0-.05-.06-.1-.13-.1-.07,0-.13,.04-.14,.09,0,.05,.06,.1,.13,.1,.07,0,.13-.04,.14-.09Z"></path><g><path class="cls-40" d="M283.49,140.6c0-.05-.06-.1-.13-.1-.07,0-.13,.04-.14,.09,0,.05,.06,.1,.13,.1,.07,0,.13-.04,.14-.09Z"></path><path class="cls-40" d="M283.13,140.39c0-.05-.06-.1-.13-.1-.07,0-.13,.04-.14,.09,0,.05,.06,.1,.13,.1,.07,0,.13-.04,.14-.09Z"></path><path class="cls-40" d="M282.77,140.18c0-.05-.06-.1-.13-.1-.07,0-.13,.04-.14,.09,0,.05,.06,.1,.13,.1,.07,0,.13-.04,.14-.09Z"></path><path class="cls-40" d="M282.41,139.97c0-.05-.06-.1-.13-.1-.07,0-.13,.04-.14,.09s.06,.1,.13,.1,.13-.04,.14-.09Z"></path><path class="cls-40" d="M282.05,139.76c0-.05-.06-.1-.13-.1-.07,0-.13,.04-.14,.09,0,.05,.06,.1,.13,.1,.07,0,.13-.04,.14-.09Z"></path></g></g><path class="cls-80" d="M288.89,149.84c.32,.89-.03,1.42-.78,1.18-.75-.24-1.62-1.16-1.94-2.05-.32-.89,.03-1.42,.78-1.18,.75,.24,1.62,1.16,1.94,2.05Z"></path><path class="cls-79" d="M285.33,153.91c-.06-.02-.03-.11,.02-.09,1.1,.35,3.89,.35,3.89-.13s-3-.58-4.27-1.06c-.05-.02-.03-.11,.02-.09,1.26,.48,4.11,.51,4.05,.11-.06-.41-2.4-.49-4.43-1.3-.05-.02-.03-.11,.02-.09,.77,.31,3.86,.96,3.93,.49,.07-.46-2.22-1.01-2.88-1.34-.52-.26-1.03-.54-1.56-.78-.25-.08-.47-.14-.68-.16-.63-.07-.86,.7-.23,1.38-.68,.69,.33,1.65,.33,1.65,0,0-.54,.67,.61,1.44-.27,.22-.02,.86,.75,1.17,.71,.29,3.33-.07,3.33-.37s-1.83-.5-2.91-.84Z"></path></g><path class="cls-78" d="M322.05,168.64c-3.65,0-10.29-6.23-14.15-10.2l1.04-1.23s10.33,9.4,11.89,8.18c1.48-1.16,.32-15.97,1-19.52,.41-2.13,1.72-4.94,4.05-5.15,.19,4.19,1.05,27.92-3.84,27.92Z"></path></g><g><path class="cls-54" d="M112.95,268.63l52.27,29.74s7.12,5.26-.79,9.46c-7.92,4.2-93.45,53.5-93.45,53.5,0,0-5.94,5.15-16.04,0-10.1-5.15-53.05-30.49-53.05-30.49,0,0-5.1-4.89,7.23-10.49,12.33-5.6,91.75-52.48,91.75-52.48,0,0,7.09-2.08,12.08,.76Z"></path><path class="cls-4" d="M63.61,356.46c-2.5,0-5.53-.6-9.05-2.4-10-5.1-52.67-30.26-53.09-30.52l-.15-.12c-.07-.06-1.65-1.61-1.24-4.02,.48-2.8,3.41-5.44,8.7-7.85,12.15-5.52,90.88-51.97,91.67-52.44l.19-.08c.3-.09,7.5-2.14,12.74,.84l52.35,29.79c.14,.11,3.51,2.63,3.27,5.85-.14,1.95-1.55,3.64-4.17,5.04-7.72,4.1-90.62,51.87-93.36,53.45-.48,.39-3.24,2.45-7.85,2.45ZM2.42,322.15c2.35,1.38,43.18,25.45,52.9,30.41,9.43,4.8,14.88,.31,15.11,.11l.13-.09c.86-.49,85.63-49.36,93.47-53.51,2.08-1.1,3.18-2.33,3.28-3.67,.16-2.14-2.24-4.09-2.56-4.35l-52.22-29.71c-4.31-2.45-10.49-.94-11.33-.71-4.42,2.61-79.6,46.95-91.73,52.46-5.9,2.68-7.46,5.05-7.73,6.57-.24,1.33,.47,2.25,.69,2.49Z"></path></g><g><path class="cls-54" d="M342.76,262.53l-37.4,21.28s-5.1,3.76,.57,6.77c5.66,3.01,66.86,38.28,66.86,38.28,0,0,4.25,3.68,11.47,0,7.22-3.68,37.96-21.81,37.96-21.81,0,0,3.65-3.5-5.17-7.51-8.82-4.01-65.64-37.55-65.64-37.55,0,0-5.07-1.49-8.64,.55Z"></path><path class="cls-4" d="M372.44,323.61c-1.96-1.13-61.27-35.31-66.8-38.24-1.88-1-2.88-2.21-2.99-3.6-.17-2.3,2.24-4.11,2.34-4.18l37.46-21.32c3.75-2.13,8.89-.66,9.11-.6l.14,.06c.57,.34,56.89,33.57,65.59,37.52,3.79,1.72,5.88,3.61,6.23,5.62,.29,1.72-.84,2.83-.89,2.88l-.11,.08c-.31,.18-30.83,18.18-37.99,21.83-2.52,1.28-4.69,1.71-6.48,1.71-3.3,0-5.27-1.47-5.62-1.75Zm49.89-24.57c-.19-1.09-1.31-2.78-5.53-4.7-8.68-3.94-62.47-35.67-65.63-37.53-.6-.16-5.02-1.25-8.11,.51l-37.36,21.26c-.23,.18-1.95,1.58-1.83,3.11,.07,.95,.86,1.84,2.35,2.62,5.61,2.98,66.27,37.93,66.88,38.29l.09,.06c.16,.14,4.06,3.36,10.81-.08,6.95-3.55,36.17-20.76,37.85-21.75,.15-.17,.66-.83,.49-1.78Z"></path></g><g><path class="cls-54" d="M364.85,360.66l28.74,16.35s3.92,2.89-.44,5.2c-4.35,2.31-51.38,29.41-51.38,29.41,0,0-3.27,2.83-8.82,0-5.55-2.83-29.17-16.76-29.17-16.76,0,0-2.81-2.69,3.97-5.77,6.78-3.08,50.44-28.85,50.44-28.85,0,0,3.9-1.14,6.64,.42Z"></path><path class="cls-4" d="M337.73,408.95c-1.37,0-3.04-.33-4.98-1.32-5.5-2.8-28.95-16.64-29.19-16.78l-.09-.06s-.91-.89-.68-2.21c.26-1.54,1.87-2.99,4.78-4.32,6.68-3.04,49.96-28.57,50.4-28.83l.11-.05c.17-.05,4.12-1.18,7,.46l28.78,16.38c.08,.06,1.93,1.45,1.8,3.22-.08,1.07-.85,2-2.29,2.77-4.25,2.25-49.82,28.52-51.33,29.39-.27,.22-1.78,1.35-4.32,1.35Zm-33.64-18.86c1.29,.76,23.74,13.99,29.08,16.72,5.18,2.64,8.18,.17,8.3,.06l.07-.05c.47-.27,47.08-27.14,51.39-29.42,1.14-.61,1.75-1.28,1.8-2.02,.09-1.18-1.23-2.25-1.41-2.39l-28.71-16.33c-2.37-1.35-5.77-.51-6.23-.39-2.43,1.43-43.76,25.81-50.43,28.84-3.24,1.47-4.1,2.78-4.25,3.61-.13,.73,.26,1.24,.38,1.37Z"></path></g><g><path class="cls-19" d="M239.96,263.88c0,6.16-8.64,11.16-19.31,11.16s-19.31-5-19.31-11.16,8.64-11.16,19.31-11.16,19.31,5,19.31,11.16Z"></path><g><g><path class="cls-47" d="M221.32,236.57c-16.3,0-29.52-13.22-29.52-29.52,0-1.69,.17-3.34,.45-4.96h58.14c.27,1.62,.45,3.27,.45,4.96,0,16.3-13.22,29.52-29.52,29.52Z"></path><path class="cls-30" d="M185.15,204.65c0,10.86,16.31,19.66,36.42,19.66s36.42-8.8,36.42-19.66-16.31-19.66-36.42-19.66-36.42,8.8-36.42,19.66Z"></path><path class="cls-47" d="M185.15,198.45c0,10.86,16.31,19.66,36.42,19.66s36.42-8.8,36.42-19.66-16.31-19.66-36.42-19.66-36.42,8.8-36.42,19.66Z"></path><path class="cls-30" d="M185.15,195.05c0,10.86,16.31,19.66,36.42,19.66s36.42-8.8,36.42-19.66-16.31-19.66-36.42-19.66-36.42,8.8-36.42,19.66Z"></path><path class="cls-47" d="M185.15,188.85c0,10.86,16.31,19.66,36.42,19.66s36.42-8.8,36.42-19.66-16.31-19.66-36.42-19.66-36.42,8.8-36.42,19.66Z"></path><path class="cls-30" d="M185.15,185.45c0,10.86,16.31,19.66,36.42,19.66s36.42-8.8,36.42-19.66-16.31-19.66-36.42-19.66-36.42,8.8-36.42,19.66Z"></path><ellipse class="cls-47" cx="221.57" cy="179.25" rx="36.42" ry="19.66"></ellipse><path class="cls-30" d="M185.15,175.39c0,10.86,16.31,19.66,36.42,19.66,20.11,0,36.42-8.8,36.42-19.66s-16.31-19.66-36.42-19.66-36.42,8.8-36.42,19.66Z"></path><path class="cls-47" d="M185.15,170.11c0,10.86,16.31,19.66,36.42,19.66s36.42-11.26,36.42-19.66c0-10.86-16.31-19.66-36.42-19.66s-36.42,8.8-36.42,19.66Z"></path></g><path class="cls-50" d="M223.45,68.48v-1.43l-.98,.82c-.86-.53-1.34-.82-1.34-.82v1.95l-60.22,50.36s17.78,22.85,21.01,29.37c3.22,6.5,.8,17.83,4.25,22.54,3.84,8.63,18.23,15.05,35.4,15.05s31.11-6.22,35.22-14.64c0,0,0,0,0,0,3.51-4.68,1.79-11.83,5.85-22.94,4.07-11.11,14.44-19,21.01-29.37,5.85-9.23-48.22-43.44-60.22-50.87Z"></path><path class="cls-20" d="M146.81,75.44C146.81,33.77,180.58,0,222.25,0s75.44,33.77,75.44,75.44-33.77,75.44-75.44,75.44-75.44-33.77-75.44-75.44Z"></path><ellipse class="cls-48" cx="221.57" cy="166.66" rx="36.42" ry="19.66"></ellipse><g><path class="cls-4" d="M187.06,98.19c.37,6.92,3.74,10.36,9.26,9.58l14.39,60.6c.07,.25,.2,.42,.36,.52h0s1.95,1.77,1.95,1.77c0,0,.6-2.51,.6-2.6,0-.04-.24-.34-.49-.66,.21-.51,.28-1.05,.17-1.46l-14.48-60.92c0-.3-.07-.55-.2-.72l-1.2-4.37,.87-1.29-1.71-1.55c-.07-.1-.15-.17-.25-.22h-.01s0-.01,0-.01c-.33-.16-.8-.04-1.26,.39-.72,.67-1.13,1.83-.92,2.59l1.2,4.36c-4.45-.37-5.43-4.85-5.59-7.79-.11-2.12,.15-4.47,.69-6.76l1.15-1.04,4.37-5.98,8.1-7.84-2.54,.41c1.62-.8,3.26-1.28,4.82-1.36-.16,.38-.31,.76-.46,1.14-3.48,9.11-3.48,18.85,.02,22.67,2.08,2.28,4.39,1.95,6.33,.54h1.18l4.61-6.65,.35-4.16s-.24,.29-.56,.74c.92-4.2,.78-8.78-1.05-12.26-1.16-2.22-2.65-3.73-4.34-4.64,3.02-3.86,7.51-9.57,7.73-9.63,.16-.04,.13-.52,.05-.98,.83-.46,1.69-.89,2.62-1.26,3.54-1.42,5.96-.49,7.59,1.29-1.97,3.26-3.66,6.75-4.93,10.15-3.59,9.67-3.18,16.88,1.07,18.82,1,.45,1.91,.48,2.73,.26h0c.14-.1,3.33-.13,3.33-.13l4.34-9.22v-1.51s-.58,.82-1.42,2c1.22-4.52,1.54-10.1,.67-15.11-.34-1.97-.85-3.69-1.49-5.14,2.43-2.83,8.2-9.55,8.27-9.55,.04,0,.11-.43,.16-.88,.92-.45,1.84-.76,2.73-.88,6.17-.82,8.14,5.86,7.36,12.4-.53,4.45-2.6,10.51-6.7,13.79l.91-4.37,1.26-.42,.9-2.08-1.79-1.65h0c-.17-.18-.41-.25-.7-.19-.71,.15-1.47,1.1-1.67,2.1l-15.62,87.29c-.14,.66,0,1.17,.31,1.4h0s1.89,1.74,1.89,1.74c0,0,.76-1.42,.91-1.6,.15-.18-.15-1.86-.15-1.86l-.56,.37c.09-.2,.16-.42,.21-.64l13.31-76.17c.51-.33,1-.7,1.48-1.09l2.91-.56,3.99-4.84,1.68-8.67-.62,.45c.33-1.32,.59-2.67,.75-4.04,.94-7.93-1.5-16.02-9.1-15.01-4.76,.63-9.96,5.39-14.28,11.57-2.34-2.46-5.55-3.05-9.31-1.54-6.12,2.45-11.46,7.55-15.11,14.31-4.78-.03-10.23,3.17-14.61,8.16-1.07,1.22-2.05,2.72-2.9,4.39h-.01s0,.03,0,.03c-2.36,4.62-3.78,10.53-3.52,15.47Zm39.47-22.92l.61,.22,1.42-4.03,3.95-7.32c.56,1.43,.88,2.87,1.07,3.93,1.19,6.86-.24,14.58-2.27,17.23-.3,.39-1.2,1.56-2.98,.75-3.34-1.52-2.8-6.75-1.79-10.78Zm-19.49,3.74h.63l2.07-4.34s.07-.09,.2-.25c1.74,.72,3.27,2.1,4.42,4.31,2.69,5.12,.9,12.29-1.36,15.28-2.07,2.75-3.96,1.44-4.9,.42-2.43-2.66-2.77-8.89-1.06-15.41Z"></path><g><path class="cls-4" d="M228.44,91.32c-4.26-1.94-4.67-9.15-1.07-18.82,1.27-3.4,2.96-6.9,4.93-10.15-1.64-1.78-4.05-2.71-7.59-1.29-6.05,2.43-9.92,7.03-12.29,11.12,2.48,.66,4.66,2.37,6.24,5.39,3.15,6,1.31,15.28-2.38,20.18-2.18,2.89-5.55,4.83-8.48,1.62-3.49-3.82-3.5-13.56-.02-22.67,.15-.39,.3-.77,.46-1.14-3.89,.22-8.23,2.84-11.73,6.83-3.01,3.43-5.15,10.35-4.86,15.75,.18,3.42,1.48,8.96,8.13,7.6,.71-.15,1.11,.55,.89,1.55-.22,1-.98,1.94-1.69,2.08-5.99,1.23-9.64-2.22-10.03-9.45-.36-6.75,2.41-15.3,6.44-19.9,4.38-4.99,9.83-8.18,14.61-8.16,3.66-6.76,8.99-11.85,15.11-14.31,3.77-1.51,6.97-.92,9.31,1.54,4.32-6.18,9.52-10.94,14.28-11.57,7.6-1,10.04,7.08,9.1,15.01-.96,8.09-5,15.48-10.29,18.83-.77,.47-1.37,.13-1.41-.77-.03-.9,.55-2.01,1.29-2.48,4.8-3.04,7.16-9.73,7.74-14.54,.78-6.54-1.2-13.22-7.36-12.4-3.92,.52-8.26,4.56-11.91,9.84,1.01,1.72,1.78,3.93,2.24,6.61,1.36,7.83-.17,17.06-3.56,21.47-.5,.65-1.24,1.46-2.19,2-1.07,.63-2.4,.91-3.91,.23Zm1.26-18.51c-1.1,2.96-4.31,12.78,.49,14.96,1.78,.81,2.68-.36,2.98-.75,2.03-2.64,3.46-10.37,2.27-17.23-.25-1.43-.75-3.54-1.74-5.41-1.58,2.71-2.96,5.6-4,8.42Zm-19.62,4.25c-2.95,7.72-3,15.92-.12,19.08,.94,1.03,2.83,2.33,4.9-.42,2.26-3,4.05-10.17,1.36-15.28-1.42-2.7-3.38-4.18-5.61-4.7-.2,.47-.38,.9-.53,1.32Z"></path><path class="cls-4" d="M233,159.41c.59-.34,1.13-1.13,1.3-1.95l15.62-87.29c.21-1-.2-1.68-.92-1.52-.71,.16-1.47,1.1-1.67,2.1l-15.62,87.29c-.21,1,.2,1.68,.92,1.52,.13-.03,.25-.08,.38-.15Z"></path><path class="cls-4" d="M213.89,170.54c.12-.07,.25-.17,.38-.28,.72-.67,1.13-1.83,.92-2.59l-16.57-68.54c-.21-.76-.96-.83-1.67-.16-.72,.67-1.13,1.83-.92,2.59l16.57,68.54c.17,.62,.71,.78,1.3,.44Z"></path></g></g></g></g><g><g class="cls-1"><g><polygon class="cls-60" points="170.78 178.6 170.78 232.48 169.72 233.12 98.36 190.69 97.03 137.22 98.1 136.57 170.78 178.6"></polygon><polygon class="cls-57" points="169.72 179.24 169.72 233.12 97.03 191.22 97.03 137.22 169.72 179.24"></polygon><path class="cls-49" d="M130.78,200.07c-1.15-3.34-.17-6.04,2.18-6.04s5.19,2.71,6.33,6.04c1.15,3.34,.17,6.04-2.18,6.04s-5.19-2.71-6.33-6.04Z"></path><path class="cls-27" d="M115.69,191.21c-1.15-3.34-.17-6.04,2.18-6.04s5.19,2.71,6.33,6.04c1.15,3.34,.17,6.04-2.18,6.04s-5.19-2.71-6.33-6.04Z"></path></g><g><path class="cls-25" d="M106.12,153.57l2.64,8.17c.23,.71,.8,1.03,1.03,.59l1.16-2.26c.23-.44,.8-.12,1.03,.59l1.47,4.54c.23,.71,.8,1.03,1.03,.59h0c.23-.44,.8-.12,1.03,.59l1.19,3.68c.23,.71,.8,1.03,1.03,.59l1.75-3.41c.23-.44,.8-.12,1.03,.59l.59,1.82c.23,.71,.8,1.03,1.03,.59l1.93-3.77c.23-.44,.8-.12,1.03,.59l2.26,7c.23,.71,.8,1.03,1.03,.59l2.72-5.31c.23-.44,.8-.12,1.03,.59l1.52,4.71c.23,.71,.8,1.03,1.03,.59l2.48-4.84c.23-.44,.8-.12,1.03,.59l2.41,7.46c.23,.71,.8,1.03,1.03,.59l1.45-2.83c.23-.44,.8-.12,1.03,.59l2.36,7.3c.23,.71,.8,1.03,1.03,.59l.16-.31c.23-.44,.8-.12,1.03,.59l1.1,3.4c.23,.71,.8,1.03,1.03,.59l1.97-3.83c.23-.44,.8-.12,1.03,.59l2.92,9.02c.23,.71,.8,1.03,1.03,.59l.57-1.11c.23-.44,.8-.12,1.03,.59l4.51,13.97c.23,.7-.06,1.26-.51,1l-4.09-2.34-5.96-3.42-52.39-30.02c-.33-.19-.59-.73-.59-1.2v-.74l-.17-8.96c0-.16,.02-.3,.08-.41l4.94-9.63c.23-.44,.8-.12,1.03,.59Z"></path><path class="cls-70" d="M163.22,207.71c.07,.04,.13-.01,.13-.11s-.06-.22-.13-.26c-1.36-.78-3.04-4.34-4.68-7.79-1.76-3.71-3.57-7.54-5.19-8.47-1.63-.93-2.79-.19-3.92,.53-1.04,.66-2.02,1.29-3.29,.56-1.17-.67-2.21-2.7-3.42-5.05-1.48-2.87-3.15-6.11-5.45-7.43-2.34-1.34-3.71-.77-4.91-.27-.91,.38-1.7,.71-2.73,.11-1.12-.64-2.31-2.95-3.56-5.38-1.4-2.73-2.86-5.54-4.42-6.44-2.06-1.18-3.78,1.87-5.3,4.56-1.16,2.07-2.26,4.02-3.22,3.47-.9-.52-1.87-3.8-2.9-7.27-1.52-5.15-3.24-10.99-5.77-12.44-.07-.04-.13,.01-.13,.11s.06,.22,.13,.26c2.37,1.36,4.06,7.07,5.55,12.11,1.11,3.75,2.06,6.99,3.12,7.6,1.1,.63,2.19-1.29,3.44-3.52,1.48-2.63,3.16-5.61,5.08-4.51,1.46,.84,2.88,3.58,4.25,6.24,1.29,2.51,2.52,4.88,3.74,5.59,1.11,.64,1.97,.28,2.87-.1,1.18-.49,2.51-1.04,4.77,.25,2.2,1.26,3.83,4.43,5.27,7.23,1.2,2.33,2.33,4.52,3.6,5.25,1.36,.78,2.38,.13,3.46-.55,1.09-.7,2.22-1.42,3.76-.54,1.51,.86,3.28,4.62,5,8.25,1.75,3.69,3.4,7.18,4.86,8.02Z"></path></g></g><path class="cls-49" d="M126.91,200.38h0c-1.28-3.73-1.12-7.24,.42-9.4,.97-1.36,2.46-2.12,4.19-2.12,4.43,0,9.54,4.78,11.64,10.89,1.28,3.73,1.12,7.24-.42,9.4-.97,1.36-2.46,2.12-4.19,2.12-4.43,0-9.54-4.78-11.64-10.89Zm1.99-8.28c-1.16,1.63-1.23,4.56-.17,7.66h0c1.78,5.2,6.28,9.59,9.81,9.59,1.12,0,2-.44,2.62-1.31,1.16-1.63,1.23-4.56,.17-7.65-1.78-5.2-6.28-9.59-9.81-9.59-1.12,0-2,.44-2.62,1.31Z"></path><g class="cls-23"><path class="cls-51" d="M130.09,200.26h0c-.78-2.27-.68-4.41,.26-5.72,.59-.83,1.5-1.29,2.55-1.29,2.7,0,5.81,2.91,7.08,6.63,.78,2.27,.68,4.41-.26,5.72-.59,.83-1.5,1.29-2.55,1.29-2.7,0-5.81-2.91-7.08-6.63Zm1.21-5.04c-.71,.99-.75,2.78-.1,4.66h0c1.09,3.16,3.82,5.83,5.97,5.83,.68,0,1.22-.27,1.59-.8,.71-.99,.75-2.78,.1-4.66-1.09-3.16-3.82-5.83-5.97-5.83-.68,0-1.22,.27-1.59,.8Z"></path></g><g><path class="cls-19" d="M78.64,311.68c3.66,1.37,7.52,1.28,11.25,2.22,1.08,.14,3.9,5.41,4.72,5.95,1.91,1.27,5.17,1.49,7.37,1.43,4.51-.12,19.72-6.9,19.46-10.57-.37-5.29-4.36-7.02-9.01-6.94-3.68,.07-7.4,.38-11.07,.24-2.97-.11-5.2-.71-6.86-3.33-1.25-1.96,.74-4.28,.43-6.39-.68-4.48-19.89,1.63-22.61,9.14-1.58,4.35,3.29,7.11,6.34,8.25Z"></path><g><path class="cls-27" d="M78.32,302.04l.16,3.74s2.47,2.32,4.59,1.03c2.12-1.29,1.99-3.36,2.66-4.03,.67-.67,3.98-1.86,4.9-2.69,.91-.83,2.15-2.73,2.22-3.77,.07-1.04-.78-2.48-2.16-2.28-1.38,.21-4.91,2.53-5.06,2.53s-2.89,1.34-2.89,1.34l-3.48,2.25c-.62,.4-.97,1.1-.94,1.86Z"></path><path class="cls-27" d="M88.43,299.28c-.16,0-2.89,1.34-2.89,1.34l-.47,.31c-.11,1.37-1.05,2.65-2.81,2.65-.28,0-.53-.04-.77-.1-.24,.36-.37,.79-.35,1.25l.1,2.42c.6,.08,1.23,.03,1.83-.34,2.12-1.29,1.99-3.36,2.66-4.03,.67-.67,3.98-1.86,4.9-2.69,.74-.67,1.66-2.03,2.03-3.08-1.62,.65-4.1,2.27-4.23,2.27Z"></path><path class="cls-65" d="M79.56,301.16s.39,1.12,2.23,1.12,2.23-1.12,2.23-1.12v-4.42h-4.46v4.42Z"></path><path class="cls-27" d="M96.19,311.66v4.32s1.93,1.61,4.14,.55c2.21-1.06,3.82-1.61,5.01-1.79,1.2-.18,5.79-.81,7.95-2.43,2.16-1.62,2.48-2.59,2.48-2.59,0,0-.18-1.61-2.39-2.07-2.21-.46-6.21,.4-6.21,.4l-6.12,.7-3.27,.83c-.95,.24-1.61,1.09-1.61,2.07Z"></path><path class="cls-27" d="M115.58,310.01c-2.21-.46-6.21,.4-6.21,.4l-6.12,.7-.95,.24c-.44,.82-1.25,1.42-2.46,1.42-.34,0-.64-.06-.93-.15-.33,.38-.53,.86-.53,1.39v2.84c.59,.06,1.25,0,1.94-.32,2.21-1.06,3.82-1.61,5.01-1.79,1.2-.18,5.79-.81,7.95-2.43,1.47-1.1,2.08-1.89,2.33-2.29-.01,0-.02,0-.03-.01Z"></path><path class="cls-7" d="M97.15,310.76s.47,1.3,2.53,1.3c1.7,0,2.06-1.04,2.06-1.04l.75-6.64-5.2-.82-.14,7.21Z"></path><path class="cls-26" d="M80.75,197s-2.93,.11-3.96,3.31c-1.02,3.2-4.84,15.61-3.75,18.47,1.09,2.86,10.29,6.95,10.29,6.95l1.06-4.55-5.15-3.45,2.86-6.6-1.36-14.14Z"></path><path class="cls-11" d="M75.33,212.36c2.59,.84,5.2,1.71,7.85,2.33,.81,.19,1.63,.36,2.44,.54l.34-1.47-5.47-16.76s-2.91,.33-3.93,3.53c-.59,1.86-2.13,6.82-3.1,11.21,.62,.21,1.24,.41,1.86,.61Z"></path><path class="cls-35" d="M81.53,235.48s-4.1,2.32-4.1,10.28c0,5.6,3.59,9.45,2.65,18.7-.91,2.35-3.41,7.92-3.18,13.36,.23,5.43,1.81,17.32,1.99,21.39,2.68,2.77,6.23,.26,6.5-.91,.69-18.34,5.75-27.85,5.75-27.85,0,0,3.9-17.27,2.42-24.79-1.49-7.52-12.02-10.19-12.02-10.19Z"></path><path class="cls-35" d="M93.81,248l-5.22,3.15-2.62,13.89s-5.33,9.03-3.55,35.35c1.55-.29,2.81-1.41,2.97-2.09,.69-18.34,5.75-27.85,5.75-27.85,0,0,3.2-14.21,2.68-22.46Z"></path><path class="cls-35" d="M87.35,239.9s-2.72,1.86-1.81,8.71c1.27,9.64,10.07,20.15,10.41,27.17-2.15,6.23-2.04,9.85-2.38,12.9-.34,3.06,1.83,11.09,2.39,20.04,5.2,3.17,7.35-1.13,7.35-1.13l4.41-32.69s1.26-27.64-2.79-34.21c-4.05-6.56-17.58-.78-17.58-.78Z"></path><path class="cls-35" d="M101.91,273.71l-1.73,36.11c2.17-.34,3.13-2.24,3.13-2.24l4.41-32.69s1.26-27.64-2.79-34.21c-.3-.48-.66-.88-1.05-1.24l-8.75,1.26,6.78,33.01Z"></path><path class="cls-27" d="M104.72,208.12s-9.24-11.36-22.84-11.36c-3.74,0-5.11,4.43-3.96,10.07,1.03,5.08,3.15,11.47,2.94,17.49-.28,8.42-.91,12.62-.91,12.62,0,0,3.96,6.68,12.56,6.57,8.6-.11,12.2-3.06,12.2-3.06l-1.61-11.2,.39-7.93,1.22-13.2Z"></path><path class="cls-11" d="M103.11,229.26l.39-7.93,.9-9.72-10.5-1.83-.16,18.77,1.69,14.81c6.51-.63,9.29-2.9,9.29-2.9l-1.61-11.2Z"></path><path class="cls-66" d="M97.11,195.17h-1.91l-1.19,5.2s-1.32,1.36-4.23,.4c-2.91-.96-2.75-2.43-2.75-2.43,0,0,.21-5.81,.26-5.83,.06-.02,7.98-1.57,7.98-1.57l1.66,3.34,.17,.89Z"></path><path class="cls-26" d="M99,182.5l.79,4.24c.04,.22,.01,.45-.08,.66l-.48,1.07,.31,1.49c.04,.19,.03,.39-.03,.57-.32,.98-1.41,4.16-1.89,4.47-.57,.37-1.52,.25-1.5-2.09,.02-2.35,0-5.91,0-5.91l2.88-4.5Z"></path><path class="cls-26" d="M104.15,215.69c1.35-2.6,2.08-5.36,3.08-8.05,6,2.79,12.52,7.27,12.52,7.27l9.24-7.55,3.26,2.11s-6.1,9.2-8.22,11.57c-1.99,2.23-2.84,1.76-4.49,1.62-5.59-.47-11.69-2.8-16.44-5.04,.36-.64,.7-1.28,1.04-1.94Z"></path><g><path class="cls-59" d="M129.77,204.92l-.86-3.7c-.07-.29,.02-.6,.22-.81l1.31-1.37,.24,2.09c.01,.11,0,.22-.02,.32l-.89,3.48Z"></path><path class="cls-52" d="M129.98,202.04l.67-4.47c.01-.06,2.26-3.64,2.26-3.64,0,0,.72,.43,.31,1.38-.25,.57-1.31,2.96-1.31,2.96l-.85,4.6-1.08-.83Z"></path><path class="cls-39" d="M133.23,196.13l-2.03,5.26,1.28,.27,1.86-4.62s1.41-1.82,1.69-2.38c.28-.56-.36-1.29-.36-1.29,0,0-2.41,2.7-2.43,2.76"></path><path class="cls-55" d="M135.59,198.8l-1.58,3.1c-.11,0-1.02,.01-1.47,.15-.15,.05-.26,.04-.4,.06-.02,0-.04-.02-.06-.02-.02-.19-.08-.36-.17-.52,.05,0,.09-.03,.14-.1,.24-.32,2.92-3.99,2.92-3.99l2.93-2.32s.62,.69-.07,1.62c-.69,.93-2.25,2.01-2.25,2.01Z"></path><path class="cls-26" d="M134.24,206.5c-.51,1.7-1.88,2.78-1.88,2.78l-5.99,8.74,1.54-7.94c.57-1.45,1.07-2.69,1.09-2.72,.03-.06,.98-6.33,1.28-6.58,.53-.43,.78,.14,1.26-.18,.6-.4,.78-.05,.99-.04h0c.6,.09,.4-.14,.95-.08,.55,.06,.72,.58,1.1,.71l1.47-1.53,2.22-1.09s.57,.73-.47,1.53l-1.06,.6-1.33,2.21s-.65,1.89-1.16,3.59Z"></path></g><path class="cls-11" d="M105.37,216.4c.77-1.52,1.56-3.04,2.12-4.65,.4-1.15,.71-2.33,.99-3.52-5.71-2.82-10.63-4.41-12.98-2.11-2.35,2.3-1.95,6.06,.1,7.57,1.39,1.03,3.3,2.06,8.86,4.55,.29-.62,.6-1.23,.91-1.84Z"></path><path class="cls-29" d="M99.1,180.21s.55,1.4,.23,2.45c-.31,1.05-.66,1.73-.66,2.53,0,.8,.17,1.71,.02,2.19-.16,.48-.85,.77-1.02,1.39-.17,.63,0,2.38,0,2.38l-1.22,.46s-.06-.85-.59-.81c-1.57,.13-2.12,5.65-4.74,5.61-2.62-.04-4.03-1.29-4.03-1.29,0,0-2.84-3.55-3-6.43-.16-2.88,0-6.35,.9-7.4,.9-1.05,5.96-4.4,5.96-4.4,0,0,1.93-1.07,5.07,0,2.57,.88,3.08,3.31,3.08,3.31Z"></path><path class="cls-36" d="M99.36,182.55c.25-1.04-.26-2.34-.26-2.34,0,0-.51-2.43-3.08-3.31-3.13-1.07-5.07,0-5.07,0,0,0-5.07,3.35-5.96,4.4-.29,.34-.5,.95-.64,1.69,5.14,2.6,9.34,3.21,15.01-.44Z"></path><path class="cls-26" d="M96.73,191.64s-.4-2.01-1.25-1.91c-.85,.1-.64,1.23-.53,1.86,.1,.56,.35,.92,.62,1.67,.19,.53,.79,.3,.91-.35,.13-.65,.25-1.27,.25-1.27Z"></path></g></g></g><g><path class="cls-19" d="M289.22,292.65c-2.73-2.09-7.92-5.46-11.04-2.17-2.08,2.19-1.26,5.91-2.73,8.31-1.89,3.08-7.44,3.54-10.73,4.31-4.19,.97-13.29,1.01-15.94,5.28-4.6,7.37,16.27,12.81,26.21,10.17,4.05-1.08,3.99-2.22,4.19-5.54,.18-2.99-2.44-2.65,4.16-4.13,1.34-.3,3.09,.23,4.45,.25,3.37,.06,11.26-.32,11.3-5.28,.03-4.21-6.98-8.99-9.86-11.19Z"></path><g><path class="cls-63" d="M272.53,193.74s.46,1.52,.46,1.52v2.65h1.26s.78-2.81,.8-2.92c.03-.11,.46-2.2,.4-2.28-.05-.08-.19-.8-.29-.95-.1-.16-1.79,0-1.79,0l-.84,1.98Z"></path><path class="cls-79" d="M275.09,300.84v9.83s-2.77,1.12-3.16,1.12-1.69-1.74-1.69-1.74v-11.82l4.84,2.61Z"></path><polygon class="cls-79" points="290.71 291.13 289.96 299.72 287.59 301.34 285.73 300.46 287.1 288.4 290.71 291.13"></polygon><path class="cls-79" d="M275.29,197.75l.16-2.63,.87-1.9c.19-.43,.19-.91,0-1.34l-.36-.79-2.99-1.36c-.59-.27-1.27-.22-1.81,.14-.34,.23-.65,.53-.75,.91-.24,.91,1.15,2.95,2.2,3.54,1.05,.59,1.72-2.33,2.3-2.39,.59-.05-1.58,3.73-1.41,5.31,.17,1.58,1.78,.51,1.78,.51Z"></path><path class="cls-8" d="M272.49,190.33s0-.02,0-.03c-.06-.24-.1-.48-.13-.73,.21,.02,.42,.07,.62,.16l2.99,1.36,.21,.45c-1.25,.39-2.47,.46-2.92,.12-.29-.22-.54-.73-.76-1.32Z"></path><path class="cls-35" d="M291.08,225.34s4.52,5.37,4.27,11.11c-.25,5.74-2.5,6.66-2.5,6.66,0,0-1.5,11.32-3.83,17.06,7.16,11.32,3.08,19.73,2.08,32.8-2.58-.24-5.38-.5-5.38-.5,0,0-.03-18.56-5.77-31.38-3.33-12.07-.33-34.04-.33-34.04l11.46-1.71Z"></path><path class="cls-35" d="M285.09,244.34l-5.95-12.97c-.68,7.01-1.6,20.97,.82,29.72,5.74,12.82,5.77,31.38,5.77,31.38,0,0,1.63,.15,3.54,.33,1.18-15.35-3.22-32.03-3.22-32.03l-.96-16.44Z"></path><path class="cls-35" d="M286.86,229.96s2.75,4.11,2.6,8.84c-.16,4.73-3.27,8.94-8.26,12.11-1.72,6.5-5.66,17.76-6.16,19.51,4.79,11.57,.75,17.98,.72,33.75-1.59,0-5.81-.35-5.81-.35l-4.39-43.92s-.31-20.79,4.7-29.27c5.02-8.47,16.61-.68,16.61-.68Z"></path><path class="cls-35" d="M270.85,259.68c0-5.58,6.6-28.54,6.6-28.54l-1.35-4.38c-2.22,.25-4.34,1.31-5.85,3.87-5.02,8.47-4.7,29.27-4.7,29.27l4.39,43.92s1.12,.09,2.43,.18c-.52-13.63-1.51-40.2-1.51-44.32Z"></path><path class="cls-68" d="M276.35,202.73c-1.2-1.43-3.31-1.69-4.42-.5-3.19,1.99-11.52,13.75-13.2,17.05-1.68,3.3,.62,5.23,2.61,5.23s9.95-2.99,9.95-2.99l.64-5.72-2.82,.44s6.19-6.1,7.23-7.4c1.04-1.31,1.85-3.88,0-6.1Z"></path><polygon class="cls-51" points="269.12 216.23 263.66 221.49 271.7 218.89 271.93 215.8 269.12 216.23"></polygon><path class="cls-49" d="M293.46,192.55c2.25,2.37,1.07,6.34,.2,7.25-.87,.9-12.31,12.89-14.98,14.25-2.67,1.36-3.89,.11-4.46-1.05-.57-1.16-1.87-16.6-1.87-16.6l3.67-.48,1.79,10.99,8.1-13.07s4.08-4.94,7.56-1.29Z"></path><path class="cls-27" d="M292.81,192.52c-.5-.47-1.16-.75-1.84-.81-1.91-.17-6.29,.09-11.71,4.52-7.33,6-6.07,4.98-7.33,6-1.26,1.02,.46,11.65-.27,16.03-.74,4.38-1.41,12.59-1.41,12.59,0,0,3.74,3.73,13.59,1.4,9.85-2.33,7.24-6.91,7.24-6.91,0,0-2.89-8.4-.75-15.21,2.04-6.46,6.84-13.53,2.48-17.62Z"></path><path class="cls-68" d="M270.25,230.85s1.87,1.85,6.42,2.12c.54-3.79,1.34-10.1,1.41-14.82,.11-7.2-.63-12.49-.63-12.49h-5.99c.06,3.77,.69,9.63,.19,12.6-.74,4.38-1.41,12.59-1.41,12.59Z"></path><path class="cls-68" d="M270.7,214.66h-9.07c3.23-4.73,8.05-11.02,10.31-12.43,1.1-1.19,3.22-.93,4.42,.5,1.85,2.21,1.04,4.79,0,6.1-.7,.88-3.74,3.94-5.65,5.84Z"></path><path class="cls-27" d="M290.98,298.23h-1.52s-.34,2.31-1.73,2.09c-1.39-.22-1.44-4.8-1.44-4.8h-.83l-1.1,1.05s-4.17-2.94-6.38-1.36c-.51,.82,.22,1.93,.22,1.93l10.19,9.28s2.02,.31,2.59-.32c.13-1.61,0-7.87,0-7.87Z"></path><path class="cls-27" d="M287.98,301.01c-1.19-.24-2.12-1.25-2.44-2.4-.08-.29-.1-.62-.12-.93l-.99-.84-1.94,1.05s-2.5-1.74-4.66-1.8c.07,.56,.36,1.05,.36,1.05l10.19,9.28s.34,.05,.77,.07c.03-1.48,0-3.88-.01-5.44-.38,.05-.78,.05-1.17-.03Z"></path><path class="cls-27" d="M276.27,309.44h-1.64s-.35,2.15-2.18,1.89c-1.83-.25-2.2-4.67-2.2-4.67l-.89,.16-.38,1.2s-3.5,.47-3.6,.44c-.09-.03-7.26-1.29-8.84,1.42,.11,2.25,11.43,4.95,17.98,5.41,.87,.06,1.64-.5,1.66-1.36l.09-4.48Z"></path><path class="cls-27" d="M256.71,310.33c1.42,2.14,11.69,4.53,17.81,4.95,.11,0,.21-.02,.32-.03l-.16-5.81h-.05s-.35,2.15-2.18,1.89c-.74-.1-1.24-.89-1.57-1.79l-1.96-1.25-1.27,1.36s-3.5,.47-3.6,.44c-.08-.03-4.69-.84-7.34,.24Z"></path><path class="cls-33" d="M273.88,191.35s4.59,0,5.38,.77c.79,.76,.77,2.33,.96,4.67,.19,2.34,6.82,2.31,6.62-1.3-.11-2.01-.21-4.15-.5-5.66l-6.28-4.7-6.47,4.51,.28,1.71Z"></path><path class="cls-79" d="M274.29,176.56s-2.15,3.5-2.33,4.34c-.19,.84,.61,4.53,.61,4.53,0,0-.61,.51-.61,1.26s.61,3.83,1.45,4.48c.84,.65,4.39-.19,5.79-1.77,1.4-1.59,1.96-4.4,1.96-4.7s-6.86-8.13-6.86-8.13Z"></path><path class="cls-45" d="M271.81,178.77c.69-2.22,2.68-4.51,4.76-5.4,1.95-.84,3.88-1.18,5.89-1.21,16.32,1.74,8.05,28.01,7.59,28.96-.41,.06-.97,.31-1.6,.65-.08-.83-.32-2.49-.32-2.49,0,0-.34,2.33-.27,3.4-2.07,1.31-5.91,3.17-7.12,3.11-.86-.05,1-14.94,.24-14.89-.17,.01-1.78,.38-1.89,.42-.62-.69-.92-1.74-.92-1.74l-2.18-.71c-.05-.02-.09-.05-.14-.08,0-.01-.01-.04-.01-.06,.14-.2,.24-.44,.21-.66-.19-1.81-1.66-2.85-2.91-4.02-.38-.36-.7-.74-.99-1.14-.52-1.34-.77-2.73-.33-4.17Z"></path><path class="cls-79" d="M276.55,188.96c.33-1.05,1.33-2.19,2.42-1.24,1.09,.95-1.21,4.24-2.33,3.58-.33-.2-.42-1.3-.1-2.34Z"></path></g></g><g class="cls-18"><path class="cls-71" d="M391.49,261.26l34.7-19.43c2.62-1.49,2.75-5.22,.25-6.89l-21.42-13.93c-3.59-2.39-8.22-2.53-11.97-.36l-35.97,20.87c-2.73,1.59-2.66,5.57,.14,7.06l23.37,12.82c3.42,1.82,7.53,1.77,10.9-.14Z"></path></g><g><g><polygon class="cls-80" points="371.11 176.8 369.51 177.63 361.73 243.52 361.75 245.7 363.35 244.87 372.7 177.67 371.11 176.8"></polygon><polygon class="cls-21" points="369.51 177.63 360.13 244.35 361.75 245.7 371.11 178.5 369.51 177.63"></polygon></g><g><polygon class="cls-80" points="411.04 145.63 421.32 201.77 419.8 202.57 384.48 180.83 372.97 125.72 374.17 124.92 411.04 145.63"></polygon><polygon class="cls-72" points="409.64 146.43 419.92 202.57 383.08 181.63 372.77 125.72 409.64 146.43"></polygon></g><g><g><polygon class="cls-80" points="406.4 147.63 423.17 238.47 421.65 239.27 403.56 147.9 404.96 147.1 406.4 147.63"></polygon><polygon class="cls-72" points="405 148.43 421.76 239.27 420.36 238.51 403.56 147.9 405 148.43"></polygon></g><g><polygon class="cls-80" points="382.76 132.79 399.53 223.62 398.01 224.42 379.92 133.06 381.32 132.26 382.76 132.79"></polygon><polygon class="cls-72" points="381.36 133.59 398.13 224.42 396.73 223.67 379.92 133.06 381.36 133.59"></polygon></g></g><polygon class="cls-80" points="372.77 125.72 371.17 126.55 363.38 192.44 398.7 214.45 400.29 213.63 409.64 146.43 372.77 125.72"></polygon><g><polygon class="cls-80" points="395.55 190.7 393.96 191.53 386.17 257.42 386.2 259.6 387.79 258.77 397.14 191.57 395.55 190.7"></polygon><polygon class="cls-21" points="393.96 191.53 384.58 258.25 386.2 259.6 395.55 192.4 393.96 191.53"></polygon></g><polygon class="cls-21" points="371.17 126.55 361.79 193.27 398.7 214.45 408.05 147.26 371.17 126.55"></polygon></g><g><polygon class="cls-32" points="360.65 124.96 420.46 158.13 413.53 216.47 411.59 217.41 411.37 215.23 353.83 182.42 360.13 129.39 358.71 125.9 360.65 124.96"></polygon><polygon class="cls-4" points="418.52 159.07 358.71 125.9 351.89 183.36 411.59 217.41 418.52 159.07"></polygon><g><path class="cls-35" d="M373.46,155.83c-.51-.69-1.08-1.25-1.71-1.6-1.05-.6-2.08-.58-3-.06l-2.41-9.52c1.99-1.1,4.25-1.12,6.53,.18,1.52,.87,2.91,2.25,4.11,3.99l-3.51,7.01Z"></path><path class="cls-58" d="M375.69,165.04c.25-3.09-.44-6.27-1.73-8.46l3.5-6.99c2.97,4.79,4.63,11.88,4.12,18.82l-5.89-3.36Z"></path><path class="cls-11" d="M365.78,145l2.42,9.56c-1.1,.93-1.95,2.64-2.3,4.9l-5.88-3.36c.88-5.35,3.04-9.26,5.77-11.09Z"></path><path class="cls-11" d="M373.05,171.16c1.2-.88,2.13-2.67,2.51-5.07l5.92,3.38c-.01,.12-.02,.25-.03,.37-.69,5.82-2.83,10.16-5.63,12.25l-2.77-10.93Z"></path><path class="cls-27" d="M365.51,160.35c-.23,2.82,.33,5.7,1.41,7.86l-4.09,8.16c-2.72-5.08-4.1-12.22-3.29-19.03,.01-.12,.04-.24,.05-.36l5.92,3.38Z"></path><path class="cls-11" d="M367.64,169.17c.59,.94,1.29,1.69,2.07,2.14,.96,.55,1.92,.57,2.77,.17l2.78,10.96c-2.08,1.3-4.46,1.42-6.88,.04-1.85-1.05-3.49-2.86-4.84-5.15l4.09-8.17Z"></path></g><g><path class="cls-77" d="M403.75,164.55l-3.5,6.99c-.46-.77-.99-1.41-1.58-1.87l1.3-9.29c1.41,.99,2.69,2.42,3.79,4.18Z"></path><path class="cls-35" d="M401.45,174.35c-.21-.7-.46-1.37-.75-1.98l3.53-7.04c1.03,1.8,1.88,3.89,2.51,6.15l-5.29,2.87Z"></path><path class="cls-27" d="M399.21,159.87c.05,.03,.1,.07,.16,.11l-1.3,9.28c-2.7-1.52-5.34,1.05-5.9,5.75-.56,4.72,1.18,9.8,3.89,11.35,2.71,1.55,5.36-1.02,5.92-5.74,.21-1.76,.1-3.57-.27-5.23l5.28-2.87c.95,3.88,1.29,8.18,.79,12.36-1.24,10.4-7.08,16.06-13.06,12.65-5.98-3.41-9.82-14.61-8.58-25.01,1.24-10.4,7.08-16.06,13.06-12.65Z"></path></g></g><path class="cls-19" d="M201.31,346.78c-4.97-4.62-24.75-3.1-25.68-6.7-.38-1.48,1.57-3.58,.69-5.64-.99-2.31-2.53-2.83-4.86-3.1-5.94-.68-13.43,2.44-16.31,7.76-2.3,4.25-1.89,9.3,2.74,11.31,1.38,1.58,4.7,1.37,6.98,1.57,5.33,.47,4.96,5.24,5.88,6.27,1.49,1.67,3.19,2.41,5.35,2.83,5.48,1.06,36.2-4.09,25.22-14.31Z"></path><g><g><polygon class="cls-4" points="185.4 247.51 196.97 253.85 203.58 236.2 192.01 229.86 185.4 247.51"></polygon><g><path class="cls-61" d="M201.76,237.45c.09,0,.17-.05,.21-.12,.06-.12,.02-.27-.09-.33l-9.31-5.11c-.12-.06-.27-.02-.33,.09-.06,.12-.02,.27,.09,.33l9.31,5.11s.08,.03,.12,.03Z"></path><path class="cls-61" d="M201.28,238.54c.09,0,.17-.05,.21-.13,.06-.12,.02-.27-.09-.33l-9.31-5.11c-.12-.06-.27-.02-.33,.09-.06,.12-.02,.27,.09,.33l9.31,5.11s.08,.03,.12,.03Z"></path><path class="cls-61" d="M200.78,239.59c.09,0,.17-.05,.21-.13,.06-.12,.02-.27-.09-.33l-9.31-5.11c-.12-.07-.27-.02-.33,.09-.06,.12-.02,.27,.09,.33l9.31,5.11s.08,.03,.12,.03Z"></path></g><path class="cls-37" d="M173.01,336.33c-.5,2.04-4.22,4.27-6.53,7.25-1.02,1.32-1.74,2.63-2.91,3.28-2.04,1.14-4.44,.91-4.79-.31-.55-1.91,.05-6.4,.05-6.4,0,0,.34-1.39,2.78-1.49,.39-.02,2.16-1.44,3.97-2.37,5.31-2.73,7.94-2.01,7.43,.03Z"></path><path class="cls-62" d="M163.27,341.39c.63-.27,1.19-.58,1.52-1.21,0-.02,.01-.03,.02-.05,.05,0,.09,0,.14-.01,.39-.02,2.16-1.44,3.97-2.37,1.63-.84,3.01-1.35,4.12-1.6,0,.06-.01,.12-.03,.18-.5,2.04-4.22,4.27-6.53,7.25-1.02,1.32-1.74,2.63-2.91,3.28-.51,.29-1.05,.49-1.57,.61-.3-1.88,.07-5.08,.15-5.73,.37-.07,.74-.19,1.11-.35Z"></path><path class="cls-37" d="M178.52,347.6s-1.95,.37-2.82,1.39c-.88,1.02-1.11,5.36,.46,6.89,1.57,1.53,6.03-.84,10.12-.92,7.82-.15,11.57-2.34,10.97-4.57-.67-2.49-10.88-2.09-10.88-2.09l-7.84-.7Z"></path><path class="cls-34" d="M177.37,351.14c.74,.17,1.51,.23,2.31,.11,1-.15,1.74-.53,2.32-1.11l5.82,.52s6.32-.24,9.34,.86c-.73,1.79-4.4,3.32-10.88,3.44-3.73,.07-7.76,2.04-9.63,1.22-.39-1.85-.09-4.13,.51-4.84,.06-.07,.14-.15,.21-.21Z"></path><path class="cls-79" d="M163.86,334.41v4.28s-.09,2.18-1.96,2.18-1.98-1.59-1.98-1.59v-5.7l3.94,.84Z"></path><path class="cls-79" d="M181.56,344.22v4.09s-.17,2-2.1,2.09c-2.6,.11-2.6-1.4-2.6-1.4v-6.29l4.7,1.51Z"></path><path class="cls-37" d="M163.02,266.12c-.57,.75-4.34,4.56-4.34,10.91s2.14,9.5,2.14,9.5c0,0,.57,10.44,2.2,15.23-7.14,11.8-2.12,14.34-3.66,32.34-.17,1.95,4.81,3.02,5.19,0,2.01-15.93,5.43-26.02,5.43-26.02,0,0,10.27-25.32,5.71-34.64-3.29-6.74-12.68-7.31-12.68-7.31Z"></path><path class="cls-31" d="M167.77,285.65s6.02,.97,8.39,1.36c-1.75,10.14-6.18,21.06-6.18,21.06,0,0-3.42,10.09-5.43,26.02-.17,1.36-1.27,1.88-2.42,1.88,.34-22.51,1.86-27.38,5.08-34.07-.66-6.94,.55-16.25,.55-16.25Z"></path><path class="cls-37" d="M166.76,271.93s-2.67,6.19-1.49,11.75c1.18,5.56,5.55,7.8,6.73,8.98,0,7.91,2.93,17.98,3.07,21.95-3.27,9.76,.49,16.82,1.06,29.74,.1,2.15,4.72,3.01,6.26,0,0-8.32,1.53-30.21,1.53-30.21,0,0,6.47-24.29-2.13-41.59-2.75-5.54-15.03-.62-15.03-.62Z"></path><path class="cls-82" d="M181.78,272.55c8.6,17.3,2.13,41.59,2.13,41.59,0,0-1.53,21.89-1.53,30.21-.59,1.15-1.62,1.73-2.69,1.9-3.73-26.52,.04-32.24,.04-32.24,0,0,1.12-13.59,.78-21.88-.34-8.29-3.65-19.84-3.65-19.84l3.33-1.45c.67,.4,1.22,.96,1.59,1.71Z"></path><g><path class="cls-24" d="M187.6,244.34c.2-.15,.4-.31,.59-.48,.62-.54,1.23-1.11,1.77-1.72,.12-.14,.24-.28,.35-.43-.13-.69,1.04-2.27,1.33-2.69,3.62-1.19,2.38-2.41,2.38-2.41l-3.68,1.69s-1.92,4.13-2.08,4.48l-.68,1.55Z"></path><path class="cls-15" d="M188.36,241.78c.54-.25,.54,.96,1.04,.63,.69-.45,1.36-.93,1.99-1.47,.14-.12,.28-.24,.41-.37-.03-.7,1.34-2.11,1.68-2.49,3.68,0,2.34-1.42,2.34-1.42l-4.34,1.21-3.12,3.91Z"></path><path class="cls-79" d="M187.42,245c-.04-.06-.82-2.49-.82-2.49,0,0,.39-.12,1.28-.46,.9-.34,1.81-2.29,1.81-2.29l3.89-2.57,4.2,.63s.71,1.91-3.13,.38c-.44,.39-2.42,2.01-1.85,2.58,.58,.57,3.07-2.38,4.69-.55-3.15,1.45-5.33,3.52-5.33,3.52l-4.74,1.25Z"></path></g><path class="cls-83" d="M188.34,241.66s.8,.48,1.18,1.15c.38,.69,.35,1.6,.35,1.6,0,0-16.01,7.19-16.88,6.7-4.38-2.43-13.21-7.41-13.15-7.39,.08,.02-2.89-3.21-1.23-5.64,2.81-4.12,7.74,.06,7.74,.06l7.17,6.5c.78,.57,14.83-2.99,14.83-2.99Z"></path><path class="cls-17" d="M188.34,243.7c-.28-.65-.69-1.21-1.12-1.76,.7-.17,1.13-.28,1.13-.28,.01,.02,.8,.48,1.18,1.15,.38,.69,.35,1.6,.35,1.6,0,0-.45,.2-1.2,.54-.06-.42-.16-.83-.33-1.24Z"></path><path class="cls-12" d="M185.31,248.73s-7.49-6.26-12.22-8.39c-4.72-2.12-17-9.21-13.93,3.93,.62,2.64,4.48,11.41,4.25,15.19-.24,3.78-1.1,7.63-1.1,7.63,0,0-.24,5.63,6.61,6.98,6.85,1.36,13.22-.77,13.22-.77l.19-8.98,2.98-15.6Z"></path><path class="cls-41" d="M179.45,251.56s-.63,10.43-.78,15.34c-.11,3.46-.77,7.33-.77,7.33l4.25-.92,.22-9.17,.52-7.3-3.43-5.28Z"></path><path class="cls-44" d="M166.79,240.54c-.35,1.13,1.23,2.62,3.53,3.33,2.3,.71,4.44,.37,4.79-.76,.35-1.13-1.23-2.62-3.53-3.33s-4.44-.37-4.79,.76Z"></path><path class="cls-14" d="M177.89,236.54l-2.95,.68s-.52,3.76-.74,5.03c-.22,1.27-1.49,1.78-3.87,1-2.4-.78-2.95-1.62-2.9-2.88,.06-1.26,.21-4.71,.21-4.71l7.67-4.75,2.21,1.49,.35,4.14Z"></path><path class="cls-79" d="M179.43,223.96c-.09-1.41,1.57,3.2,1.57,3.79s-.21,1.24-.21,1.74,.21,.89,.21,1.42c0,1.21-2.4,5.64-3.1,5.64s-1.42-1.74-1.42-1.74l-.54-4.1,3.49-6.74Z"></path><path class="cls-29" d="M179.13,227.58s2.52-3.2,.75-5.71c-1.77-2.52-5.37-4.69-9.59-3.26-4.22,1.43-5.37,4.76-5.37,4.76,0,0-3.94,0-4.35,4.22-.61,6.26,6.73,8.3,6.94,10.61h0c2.21,.57,4.38,2.05,6.04-1.89,.45-1.08,1.71-1.78,2.8-2.39,2.92-1.63,2.31-4.01,2.31-4.01,0,0,.69-1.29,.48-2.31Z"></path><path class="cls-81" d="M175.28,225.54s4.1-2.26,3-4.26c-1.1-2-4.71-3.22-6.64-2.55-1.93,.67,.25,2.09-.15,3.9-.27,1.21-1.9,2.71-4.25,2.55-2.35-.16-.02,4.52,8.04,.37Z"></path><path class="cls-79" d="M198.03,249.47v-1.06s0,0,0,0c0,0,.13-3.47-.15-4.56,.77-.08,1.47,1.03,1.39,2.66,0,.12-.03,.33,.08,.4,.1,.08,.26-.14,.26-.14l1.88-4.97,1.46,3.82c.2,.52,.13,1.11-.19,1.57l-1.74,2.48-1.08,2.35s-2.75-1.2-2.58-1.27c.08-.03,.68-1.29,.68-1.29Z"></path><path class="cls-79" d="M177.13,234.23s.36-1.68-.8-1.82c-1.17-.15-.96,1.9-.04,2.83,.44,.44,.84-1,.84-1Z"></path><path class="cls-6" d="M182.18,247.45s-2.84,1.72-2.77,4.87c.07,3.14,3.84,19.46,9.26,19.72,5.42,.25,11.36-18.31,11.93-21.1,.37-1.78-2.3-2.1-3.01-1.08-1.26,1.65-7.67,11.54-7.67,11.54,0,0-2.51-15.59-7.75-13.94Z"></path><path class="cls-16" d="M200.47,251.48c-.2-.18-.41-.34-.65-.47-.7-.38-1.75-.57-2.72-.47,.2-.29,.37-.53,.49-.68,.7-1.01,3.37-.7,3.01,1.08-.03,.14-.07,.33-.13,.55Z"></path><path class="cls-75" d="M189.92,261.39l.81,4.58s5.02-8.03,3.73-9.01c-1.29-.98-4.55,4.43-4.55,4.43Z"></path><polygon class="cls-73" points="198.93 240.7 187.82 236.3 188.28 235.23 199.47 239.65 200.36 240.62 198.93 240.7"></polygon><polygon class="cls-56" points="199.6 246.79 201.12 245.92 200.94 243.24 199.6 246.79"></polygon></g><path class="cls-44" d="M165.53,223.91c.28,.68,1.64,.78,3.04,.21,1.4-.57,2.31-1.58,2.03-2.27-.28-.68-1.64-.78-3.04-.21-1.4,.57-2.31,1.58-2.03,2.27Z"></path><path class="cls-29" d="M160.64,218.41c0-2.99,2.43-5.42,5.42-5.42s5.42,2.43,5.42,5.42-2.43,5.42-5.42,5.42-5.42-2.43-5.42-5.42Z"></path><path class="cls-2" d="M165.8,214.29c-.43,.81,.19,1.97,1.38,2.6,1.19,.63,2.5,.49,2.93-.32,.43-.81-.19-1.97-1.38-2.6-1.19-.63-2.5-.49-2.93,.32Z"></path></g><path class="cls-11" d="M107.45,211.85s.03-.06,.04-.09c.4-1.15,.71-2.33,.99-3.52-5.71-2.82-10.63-4.41-12.98-2.11-.12,.12-.21,.26-.31,.39l12.27,5.35Z"></path><path class="cls-26" d="M104.15,215.69c1.35-2.6,2.08-5.36,3.08-8.05,6,2.79,12.52,7.27,12.52,7.27l9.24-7.55,3.26,2.11s-6.1,9.2-8.22,11.57c-1.99,2.23-2.84,1.76-4.49,1.62-5.59-.47-11.69-2.8-16.44-5.04,.36-.64,.7-1.28,1.04-1.94Z"></path><path class="cls-9" d="M135.04,202.24c-.57-.78-3.09-1.19-4.89-1.15-.38,1.31-1.12,6.21-1.15,6.26l-9.24,7.55s-6.53-4.48-12.52-7.27c-.04,.12-.08,.23-.12,.35l-.51,3.64s11.35,6.86,12.93,6.79,11-9.61,11.66-11.06c.67-1.45,4.56-4.13,3.84-5.11Z"></path></g></g></g></svg>