<svg xmlns="http://www.w3.org/2000/svg" viewBox="0 0 500 500"><g id="freepik--Floor--inject-44"><ellipse id="freepik--floor--inject-44" cx="250" cy="367.87" rx="204.58" ry="118.11" style="fill:#fafafa"></ellipse></g><g id="freepik--Plants--inject-44"><g id="freepik--plants--inject-44"><path d="M454,336.82s-4.37-21.7,3.22-44.18c4.24-12.56,12.28-18.51,17.27-19.17,5.6-.74,11.4,4.45,6.6,12.78-4.55,7.91-13.63,11.28-18.53,31.77A88.24,88.24,0,0,0,460,337.26a1.78,1.78,0,0,1-2.68,1.52Z" style="fill:#407BFF"></path><path d="M454,336.82s-4.37-21.7,3.22-44.18c4.24-12.56,12.28-18.51,17.27-19.17,5.6-.74,11.4,4.45,6.6,12.78-4.55,7.91-13.63,11.28-18.53,31.77A88.24,88.24,0,0,0,460,337.26a1.78,1.78,0,0,1-2.68,1.52Z" style="fill:#fff;opacity:0.5"></path><path d="M457.32,332a.34.34,0,0,0,.3-.39c-3-24.86,8.56-46,17.71-53a.36.36,0,0,0,.06-.5.35.35,0,0,0-.49-.06c-9.28,7.14-21,28.51-18,53.65A.34.34,0,0,0,457.32,332Z" style="fill:#fff"></path><path d="M457.82,339.07a1.76,1.76,0,0,0,2.63-1.11c1.19-5,4.24-10.16,10-15.65,6.67-6.38,15.89-12.27,14.41-17.79s-8.84-4.25-14-1.11S454.29,318.3,457,338.57Z" style="fill:#407BFF"></path><path d="M457.82,339.07a1.76,1.76,0,0,0,2.63-1.11c1.19-5,4.24-10.16,10-15.65,6.67-6.38,15.89-12.27,14.41-17.79s-8.84-4.25-14-1.11S454.29,318.3,457,338.57Z" style="fill:#fff;opacity:0.65"></path><path d="M458.3,339.47a.33.33,0,0,0,.3-.32c-.62-15.22,11.95-32.25,21-35.45a.34.34,0,0,0,.2-.45.36.36,0,0,0-.45-.2c-9,2.39-22.78,20.78-21.46,36.05a.37.37,0,0,0,.33.37Z" style="fill:#fff"></path></g><g id="freepik--plants--inject-44"><path d="M46.94,382.63s4.22-21-3.11-42.65C39.74,327.85,32,322.1,27.16,321.47c-5.41-.71-11,4.3-6.37,12.34,4.4,7.63,13.16,10.89,17.89,30.67a85,85,0,0,1,2.47,18.58,1.72,1.72,0,0,0,2.59,1.46Z" style="fill:#407BFF"></path><path d="M46.94,382.63s4.22-21-3.11-42.65C39.74,327.85,32,322.1,27.16,321.47c-5.41-.71-11,4.3-6.37,12.34,4.4,7.63,13.16,10.89,17.89,30.67a85,85,0,0,1,2.47,18.58,1.72,1.72,0,0,0,2.59,1.46Z" style="fill:#fff;opacity:0.5"></path><path d="M43.69,377.94a.34.34,0,0,1-.29-.38c2.87-24-8.27-44.37-17.1-51.17a.34.34,0,0,1,.42-.54c9,6.9,20.26,27.53,17.35,51.79A.34.34,0,0,1,43.69,377.94Z" style="fill:#fff"></path><path d="M43.21,384.8a1.7,1.7,0,0,1-2.54-1.07c-1.15-4.82-4.1-9.81-9.63-15.11-6.43-6.16-15.34-11.85-13.91-17.18s8.54-4.1,13.49-1.07,16,14.38,13.39,33.95Z" style="fill:#407BFF"></path><path d="M43.21,384.8a1.7,1.7,0,0,1-2.54-1.07c-1.15-4.82-4.1-9.81-9.63-15.11-6.43-6.16-15.34-11.85-13.91-17.18s8.54-4.1,13.49-1.07,16,14.38,13.39,33.95Z" style="fill:#fff;opacity:0.65"></path><path d="M42.75,385.19a.33.33,0,0,1-.3-.32c.6-14.69-11.53-31.13-20.28-34.21a.34.34,0,0,1-.19-.44.34.34,0,0,1,.43-.2c8.69,2.31,22,20.07,20.72,34.81a.36.36,0,0,1-.32.36Z" style="fill:#fff"></path></g></g><g id="freepik--Shadows--inject-44"><ellipse id="freepik--Shadow--inject-44" cx="424.05" cy="361.29" rx="55.95" ry="32.3" style="fill:#e0e0e0"></ellipse><ellipse id="freepik--shadow--inject-44" cx="80.23" cy="406.75" rx="58.32" ry="33.67" style="fill:#e0e0e0"></ellipse></g><g id="freepik--Charts--inject-44"><g id="freepik--Chart--inject-44"><g id="freepik--Window--inject-44"><path d="M171.17,43.53a3.48,3.48,0,0,0-1.52-3.26h0L165.73,38h0a3.45,3.45,0,0,0-3.57.32L56.38,99.41a11,11,0,0,0-5,8.65v61a3.49,3.49,0,0,0,1.49,3.24h0l4,2.29h0a3.5,3.5,0,0,0,3.53-.35l105.77-61.06a11,11,0,0,0,5-8.65Z" style="fill:#407BFF;opacity:0.4"></path><path d="M171.17,43.53v61a11,11,0,0,1-5,8.64L60.41,174.22c-2.45,1.42-4.49.55-4.91-1.89a4.9,4.9,0,0,0,.89-.4l105.77-61.07a11,11,0,0,0,5-8.64v-61a5.3,5.3,0,0,0-.08-1C169.39,39.36,171.17,40.7,171.17,43.53Z" style="fill:#407BFF;opacity:0.4"></path><path d="M166.18,40.65,72.35,95.86l-6.81,3.92s-3.61,1.94-5.05,2.93a8,8,0,0,0-1.34,1.14,10.26,10.26,0,0,0-2.85,6.45l0,7.85-.86,53.19-.86-53.19v-7.87a12,12,0,0,1,3.32-7.64,9.62,9.62,0,0,1,1.64-1.4c1.48-1,5.14-3,5.14-3l6.79-3.93Z" style="fill:#fff"></path></g><g id="freepik--chart--inject-44"><g style="opacity:0.30000000000000004"><polygon points="162.54 105.89 63.83 162.88 63.83 109.9 162.54 52.91 162.54 51.77 63.61 108.89 62.98 109.26 62.98 164.5 162.54 107.02 162.54 105.89" style="fill:#fff"></polygon><polygon points="162.54 87.85 63.61 144.96 63.19 146.34 162.54 88.98 162.54 87.85" style="fill:#fff"></polygon><polygon points="162.54 69.81 63.61 126.92 63.19 128.31 162.54 70.95 162.54 69.81" style="fill:#fff"></polygon><polygon points="162.54 106.17 161.69 107.23 161.69 53.12 162.54 52.06 162.54 106.17" style="fill:#fff"></polygon><polygon points="150.2 113.3 149.35 114.36 149.35 60.24 150.2 59.18 150.2 113.3" style="fill:#fff"></polygon><polygon points="137.86 120.42 137.01 121.48 137.01 67.37 137.86 66.31 137.86 120.42" style="fill:#fff"></polygon><polygon points="125.52 127.54 124.67 128.6 124.67 74.49 125.52 73.43 125.52 127.54" style="fill:#fff"></polygon><polygon points="113.18 134.67 112.33 135.73 112.33 81.61 113.18 80.55 113.18 134.67" style="fill:#fff"></polygon><polygon points="100.84 141.79 99.99 142.85 99.99 88.74 100.84 87.68 100.84 141.79" style="fill:#fff"></polygon><polygon points="88.5 148.91 87.65 149.97 87.65 95.86 88.5 94.8 88.5 148.91" style="fill:#fff"></polygon><polygon points="76.17 156.04 75.31 157.1 75.31 102.98 76.17 101.92 76.17 156.04" style="fill:#fff"></polygon></g><path d="M63.38,155.92h0a.42.42,0,0,1-.4-.42.38.38,0,0,1,.41-.4h0c.3,0,.45-1,.53-1.67.12-.83.21-1.54.63-1.83a.46.46,0,0,1,.34-.07c.05-.14.1-.29.14-.44s.13-.47.21-.67a4.76,4.76,0,0,1,.37-.72,3,3,0,0,0,.42-1,14.76,14.76,0,0,0,.14-1.53,8.93,8.93,0,0,1,.44-2.88c.09-.17.31-.61.74-.53s.49.56.55,1a2.5,2.5,0,0,0,0,.28,2,2,0,0,1,.07.5c0,.06,0,.14,0,.21h.14a.42.42,0,0,1,.35.26,3.17,3.17,0,0,1,.13,1,2.53,2.53,0,0,0,.07.74.42.42,0,0,0,.07.13h0a9.48,9.48,0,0,0,0-1.08c0-1.08,0-2.41,1.12-2.75,0-.32,0-.64,0-1a16.83,16.83,0,0,1,.25-3.54,1.23,1.23,0,0,1,.39-.7.38.38,0,0,0,.13-.24,1.43,1.43,0,0,0,0-.41,3,3,0,0,1,0-.6c0-.21,0-.39.06-.55a3.13,3.13,0,0,1,.58-1.72.41.41,0,0,1,.32-.18,1.47,1.47,0,0,0,0-.21.43.43,0,0,1,.2-.37.4.4,0,0,1,.42,0c.47.27.55,1,.64,1.91a5.58,5.58,0,0,0,.21,1.25,11.94,11.94,0,0,0,.32-1.85l0-.14a.4.4,0,0,1,.38-.36.65.65,0,0,1,.48.15.85.85,0,0,1,.23.64v.08l.17.07a.44.44,0,0,1,.34.12h0a2.27,2.27,0,0,1,.23.31,3.39,3.39,0,0,0,.21.28,10.65,10.65,0,0,0,.05-1.78,12.48,12.48,0,0,1,.08-2,4.79,4.79,0,0,1,.6-1.7,7,7,0,0,0,.37-.82,11.39,11.39,0,0,0,.51-2.94,9.92,9.92,0,0,1,.95-4.08.42.42,0,0,1,.4-.22.38.38,0,0,1,.25.13c.25-.39.54-.65.89-.6.62.09.76.94,1,2.12a10.82,10.82,0,0,0,.28,1.36h0a.44.44,0,0,1,.4-.16.43.43,0,0,1,.32.28A13.25,13.25,0,0,1,82,129l0,.24a.77.77,0,0,1,.55.19c0-.11.06-.25.11-.43a8,8,0,0,0,0-1.49c-.07-1.55-.08-2.59.42-3a.77.77,0,0,1,.31-.16,5.67,5.67,0,0,0,.2-.67c.16-.62.33-1.32,1-1.42.35,0,.59.14.7.56a.5.5,0,0,1,.21,0l0-.09a8.11,8.11,0,0,0,.18-1.37,6.8,6.8,0,0,1,.46-2.26c.27-.58.62-.89,1-.85a1.17,1.17,0,0,1,.94.79,1,1,0,0,1,.53-.69l.08,0a1.16,1.16,0,0,1,.24-.45.66.66,0,0,1,.55-.2c.4.06.62.48.79.79l0,.1s0,.1.09.17,0-.16,0-.22c.08-.39.15-.72.41-.87a.61.61,0,0,1,.33-.06v-.09a1.21,1.21,0,0,1,.44-1.06.54.54,0,0,1,.49,0,5.73,5.73,0,0,0,.19-1.43c0-.09,0-.21,0-.35a2.4,2.4,0,0,1,.16-1.42c.23-.39.49-.42.66-.39.42.09.49.61.52.86l.09.62a18.49,18.49,0,0,1,.23,1.91v.15a2.46,2.46,0,0,0,.3,1.36,1.69,1.69,0,0,1,.46,1.23,2.43,2.43,0,0,0,.28,1.14,1.79,1.79,0,0,1,.36.89,3.09,3.09,0,0,0,.08.33h0a.86.86,0,0,1,.41,0c0-.16.12-.37.19-.66l0-.12c0-.14.08-.38.13-.66a4.22,4.22,0,0,1,.63-2,.56.56,0,0,1,.35-.16c0-.13,0-.3,0-.39l0-.48c.06-.61.11-1.14.51-1.32a.38.38,0,0,1,.19,0c.26-.76.59-1.66,1.32-1.56s.88,1.08,1,2a7,7,0,0,0,.15.81,1.62,1.62,0,0,0,.06-.17s0-.12,0-.23a2.11,2.11,0,0,1,.16-.55.62.62,0,0,1,.29-.27,3.8,3.8,0,0,0,.34-1.83,8.12,8.12,0,0,1,.08-1,16,16,0,0,1,.71-2.66l.12-.39a9.51,9.51,0,0,0,.22-.94,6.07,6.07,0,0,1,.53-1.74.4.4,0,0,1,.34-.2.54.54,0,0,1,.36.19,5.74,5.74,0,0,1,.49,2.53c0,.3,0,.59.06.87a2.06,2.06,0,0,0,.22.85.61.61,0,0,0,.14.14,1.14,1.14,0,0,1,.45.61,4.22,4.22,0,0,1,.08,1.26,6.54,6.54,0,0,0,0,.78,6.25,6.25,0,0,0,.27,1.3l.19,0c.8-.09,1,.46,1.12,1a1.39,1.39,0,0,0,.31.55c.06.08.13.16.19.25a3.37,3.37,0,0,1,.39,1.66l.14,1.64.18,2.27c0,.16,0,.37,0,.62a8.29,8.29,0,0,0,.26,2.18,15.22,15.22,0,0,0,.14-3.33c0-.53,0-.8,0-1a3.64,3.64,0,0,1,.42-1.36c.06-.11.11-.22.17-.35a5.1,5.1,0,0,0,.28-2v-.12c0-.1,0-.24,0-.4a5.84,5.84,0,0,1,.27-2.56.69.69,0,0,1,.61-.44.55.55,0,0,1,.4.25h.09c.11-.06.19-.45.23-.68.14-.66.23-1.24.32-1.83s.19-1.18.31-1.77.2-1,.7-1.23a.61.61,0,0,1,.34,0,4.6,4.6,0,0,0,.31-.91,4.31,4.31,0,0,1,.35-1,1.25,1.25,0,0,1,.23-.3,1.15,1.15,0,0,0,.08-.1,2.14,2.14,0,0,0,.29-.69l.08-.3a5.6,5.6,0,0,1,1.11-2.13.62.62,0,0,1,.8-.09c.06-.19.13-.45.17-.61s.09-.34.13-.44a3.1,3.1,0,0,1,.62-1.12,1.21,1.21,0,0,1,1.35-.34c1,.42,1.16,2.09,1.32,3.57,0,.31.07.61.11.87a2.63,2.63,0,0,0,.25,1l.07.08a.93.93,0,0,1,.32.45,5.66,5.66,0,0,1,.13,1.71c0,.29,0,.56,0,.78l0,.35a10.22,10.22,0,0,0,.22,1.88c.05.18.12.36.19.54a5.46,5.46,0,0,1,.3,1c0,.22.06.44.09.66a7.08,7.08,0,0,0,.25,1.31,4.36,4.36,0,0,1,.12.44l.15.54a.62.62,0,0,1,.24,0l.09,0a8.06,8.06,0,0,0,.29-1.64l0-.33c.06-.56.15-1.33.77-1.55a.57.57,0,0,1,.63.18c0-.11,0-.25,0-.42v-.1c0-.33,0-.66,0-1a8,8,0,0,1,.2-2,2.33,2.33,0,0,1,.35-.77,1.07,1.07,0,0,0,.2-.69c0-.75,0-1.51,0-2.26,0-1.07,0-2.13,0-3.2v-.38a7.92,7.92,0,0,1,0-1.08q0-.3.12-.6a5.09,5.09,0,0,0,.13-.92,3,3,0,0,1,.22-1.11c0-.15.1-.31.14-.48l0-.16c.11-.62.25-1.18.68-1.34a.67.67,0,0,1,.65.14,1.82,1.82,0,0,1,.47,1.38,2,2,0,0,0,.1.68l.1.17a2.58,2.58,0,0,1,.38,1.47c0,.22,0,.46,0,.71a4.44,4.44,0,0,0,.07,1.41,1.8,1.8,0,0,0,.23.4,2.07,2.07,0,0,1,.43,1c0,.12,0,.24,0,.36a1.62,1.62,0,0,0,0,.34l.15.08a1.05,1.05,0,0,1,.45.33,1.35,1.35,0,0,1,.18.36,5.78,5.78,0,0,0,.12-.64,5.51,5.51,0,0,0,0-1.21,4.06,4.06,0,0,1,.29-2.42,3,3,0,0,1,.26-.36,1.19,1.19,0,0,0,.25-.39,5.15,5.15,0,0,0,.24-1.13l0-.17c.05-.34.08-.67.11-1a11.57,11.57,0,0,1,.38-2.27c0-.16.11-.32.17-.48a3.8,3.8,0,0,0,.18-.54,6.51,6.51,0,0,0,.13-1c0-.12,0-.25,0-.37a6.64,6.64,0,0,1,.61-2,10.92,10.92,0,0,0,.4-1,13.12,13.12,0,0,0,.39-2.19,9.36,9.36,0,0,1,.81-3.34c.09-.18.38-.73.89-.65s.88,1.18,1.13,2.68c.05.26.08.47.11.56s.11.16.24.25a1.26,1.26,0,0,1,.56.6,3.77,3.77,0,0,1,.19,1.36c0,.17,0,.34,0,.48a34.21,34.21,0,0,0,1,5.08l.16.68a6.83,6.83,0,0,1,.13.75,3.78,3.78,0,0,0,.26,1.1,11.82,11.82,0,0,1,1.09,5c0,.22,0,.45,0,.67a.94.94,0,0,0,0-.16,2.06,2.06,0,0,1,.35-.86.64.64,0,0,1,.23-.21,7.4,7.4,0,0,0,.13-1.41,2.92,2.92,0,0,1,0-.32c0-.17,0-.36,0-.55a4.6,4.6,0,0,1,.13-1.46,1.07,1.07,0,0,1,.43-.63.38.38,0,0,0,.11-.11,3,3,0,0,0,.26-.9c.14-.66.26-1.23.69-1.4a.68.68,0,0,1,.65.09.64.64,0,0,1,.16.17.45.45,0,0,1,.27,0,.68.68,0,0,1,.46.36,3.88,3.88,0,0,1,.25.66l.08.23a10.88,10.88,0,0,0-.06-1.12v-.16a5.56,5.56,0,0,1,.07-1.52c.09-.48.2-1,.31-1.47a18.16,18.16,0,0,0,.42-2.23l0-.23a3.94,3.94,0,0,1,.31-1.55c.07-.13.25-.45.58-.45h0a.51.51,0,0,1,.22.05c.06-.22.12-.51.17-.72.15-.76.29-1.41.73-1.61a.52.52,0,0,1,.47,0,.54.54,0,0,1,.27.31h0a.77.77,0,0,1,.71-.23c.34.09.45.42.54.66v0a10.15,10.15,0,0,0,.49-2.51c.19-1.56.31-2.38.81-2.62a.62.62,0,0,1,.62.06.94.94,0,0,1,.37.61.53.53,0,0,1,.18,0c.17,0,.5,0,.75.55a8.65,8.65,0,0,1,.64,3l0,.31c0,.45.11.89.18,1.33.1.68.2,1.39.24,2.15l0,.61c0,.52,0,1,.09,1.52,0,.17,0,.38,0,.6a4.42,4.42,0,0,0,.08,1,4.89,4.89,0,0,0,.64-1.15l.12-.26c.14-.3.27-.61.41-.93a14.8,14.8,0,0,1,.69-1.51l.15-.23a.74.74,0,0,0,.13-.21,2.57,2.57,0,0,0,.06-.28,1.51,1.51,0,0,1,.29-.75.59.59,0,0,1,.54-.22.47.47,0,0,1,.31.19,3.68,3.68,0,0,0,.08-.41c.1-.56.23-1.26.86-1.44a1.16,1.16,0,0,1,1,.24c.11.06.25.15.3.13s.25-.81.28-1.24a4.49,4.49,0,0,1,.15-1,3.71,3.71,0,0,1,.63-1.17.93.93,0,0,1,.2-.2l.07,0s.06-.14.08-.21a2.2,2.2,0,0,1,.16-.34,1.77,1.77,0,0,1,.53-.53,1.34,1.34,0,0,0,.4-.42.41.41,0,0,1,.56-.17.4.4,0,0,1,.16.55,2,2,0,0,1-.63.7,1.21,1.21,0,0,0-.33.3,2.07,2.07,0,0,0-.08.2,1.57,1.57,0,0,1-.19.39,1.07,1.07,0,0,1-.24.24,2.9,2.9,0,0,0-.54,1,4,4,0,0,0-.11.87c-.06.76-.12,1.61-.75,1.92a1.08,1.08,0,0,1-1.08-.18.84.84,0,0,0-.31-.14c-.14,0-.22.51-.27.79a1.93,1.93,0,0,1-.54,1.28.53.53,0,0,1-.48.1.42.42,0,0,1-.21-.11,2,2,0,0,1-.11.37,1.78,1.78,0,0,1-.21.38l-.1.14c-.24.43-.45,1-.66,1.44-.14.32-.27.65-.42,1l-.11.26c-.37.82-.81,1.74-1.5,1.67s-.78-1-.79-1.83c0-.19,0-.38,0-.53-.05-.51-.08-1-.1-1.56l0-.61c0-.72-.14-1.41-.24-2.07-.07-.45-.13-.9-.18-1.37l0-.31a8.46,8.46,0,0,0-.56-2.69h0a.5.5,0,0,1-.51.1.77.77,0,0,1-.43-.56c-.1.43-.18,1.13-.24,1.65-.22,1.84-.41,3-1.09,3.28a.62.62,0,0,1-.53,0,1,1,0,0,1-.48-.66h0l-.05.06a.7.7,0,0,1-.52.33.53.53,0,0,1-.44-.19h0c0,.2-.09.42-.12.58-.17.82-.3,1.46-.8,1.58a.5.5,0,0,1-.34,0,7.48,7.48,0,0,0-.14,1v.24a19.25,19.25,0,0,1-.44,2.34c-.11.48-.22,1-.3,1.43a4.81,4.81,0,0,0-.07,1.31l0,.14c.1,1.15.1,2-.27,2.43a.5.5,0,0,1-.5.18c-.41-.08-.59-.58-.85-1.39,0-.1-.08-.23-.11-.33l-.09,0a.53.53,0,0,1-.54-.24,5.21,5.21,0,0,0-.15.63,3.22,3.22,0,0,1-.42,1.24,1.25,1.25,0,0,1-.27.26.35.35,0,0,0-.14.22,3.93,3.93,0,0,0-.09,1.2c0,.22,0,.42,0,.62V100a5.14,5.14,0,0,1-.22,1.77.63.63,0,0,1-.33.35,1.67,1.67,0,0,0-.18.52,1.93,1.93,0,0,1-.4.92.7.7,0,0,1-.75.26q-.4-.15-.48-.81c0-.33-.05-.66-.08-1a11.24,11.24,0,0,0-1-4.62,4.2,4.2,0,0,1-.37-1.42c0-.24-.07-.47-.11-.67l-.17-.67a36.55,36.55,0,0,1-1-5.21c0-.16,0-.34,0-.54a3.5,3.5,0,0,0-.12-1c0-.11-.11-.15-.24-.24a1.26,1.26,0,0,1-.58-.65,4.94,4.94,0,0,1-.14-.71,11.55,11.55,0,0,0-.44-1.88.26.26,0,0,0-.05.09,9,9,0,0,0-.73,3.06,13.08,13.08,0,0,1-.42,2.33c-.12.39-.27.75-.42,1.11a5.62,5.62,0,0,0-.55,1.79l0,.36a5.72,5.72,0,0,1-.14,1.13c-.06.22-.13.43-.21.64a3.52,3.52,0,0,0-.15.42,10.12,10.12,0,0,0-.36,2.12c0,.33-.06.67-.11,1l0,.16a5.48,5.48,0,0,1-.29,1.33,2.14,2.14,0,0,1-.38.62,1.41,1.41,0,0,0-.18.23,3.38,3.38,0,0,0-.18,2,6.56,6.56,0,0,1,0,1.4c-.15,1-.35,1.49-.7,1.65a.6.6,0,0,1-.58-.06,1.09,1.09,0,0,1-.39-.67,1.06,1.06,0,0,0-.09-.27l-.14-.08a1,1,0,0,1-.5-.39,1.37,1.37,0,0,1-.15-.76,2.45,2.45,0,0,0,0-.27,1.14,1.14,0,0,0-.28-.64,2.48,2.48,0,0,1-.33-.59,4.6,4.6,0,0,1-.11-1.73c0-.23,0-.46,0-.66a1.77,1.77,0,0,0-.28-1.08l-.1-.18a2.58,2.58,0,0,1-.2-1,3.68,3.68,0,0,0-.07-.58c0,.18-.09.4-.11.5s0,.15,0,.2-.11.38-.17.55a2.22,2.22,0,0,0-.17.85,5.51,5.51,0,0,1-.15,1.09,4.86,4.86,0,0,0-.1.55,5,5,0,0,0,0,1v.39c0,1.06,0,2.13,0,3.18,0,.76,0,1.52,0,2.28a1.83,1.83,0,0,1-.33,1.12,1.51,1.51,0,0,0-.25.54,7.62,7.62,0,0,0-.17,1.78c0,.35,0,.71,0,1v.1a2.43,2.43,0,0,1-.31,1.32.53.53,0,0,1-.46.21.74.74,0,0,1-.54-.42,4.51,4.51,0,0,0-.13.71l0,.32c-.15,1.41-.34,2.27-.85,2.5a.64.64,0,0,1-.41,0l-.14-.09a.52.52,0,0,1-.51-.12,2.23,2.23,0,0,1-.46-1.11c0-.14-.07-.28-.1-.37a7.32,7.32,0,0,1-.29-1.48c0-.21-.05-.42-.09-.62a4.08,4.08,0,0,0-.26-.86c-.07-.2-.15-.4-.21-.61a10.1,10.1,0,0,1-.25-2.06l0-.34c0-.24,0-.53,0-.83a5.62,5.62,0,0,0-.09-1.45s0,0-.09-.11a1.11,1.11,0,0,1-.2-.22,3.08,3.08,0,0,1-.38-1.31c0-.28-.08-.58-.11-.9-.12-1.07-.29-2.68-.83-2.91-.09,0-.26,0-.43.16a2.25,2.25,0,0,0-.45.83c0,.09-.07.22-.11.38a2.58,2.58,0,0,1-.5,1.19.56.56,0,0,1-.79,0,5,5,0,0,0-.79,1.68l-.09.28a2.69,2.69,0,0,1-.39.93,2.49,2.49,0,0,1-.17.21.5.5,0,0,0-.11.13,4.76,4.76,0,0,0-.27.81,2.53,2.53,0,0,1-.69,1.44.5.5,0,0,1-.46.1,1.54,1.54,0,0,0-.19.61c-.12.58-.21,1.15-.3,1.73s-.18,1.19-.31,1.79-.29,1.4-1,1.41l-.08.07a.41.41,0,0,1-.37.08l-.11,0a8.43,8.43,0,0,0-.06,1.8c0,.17,0,.32,0,.43v.12a5.8,5.8,0,0,1-.35,2.37c-.06.14-.12.26-.18.38a2.69,2.69,0,0,0-.34,1.08c0,.11,0,.47,0,.85.08,2.78,0,4.13-.82,4.26a.7.7,0,0,1-.59-.16c-.51-.42-.58-1.51-.63-2.9,0-.23,0-.43,0-.58-.06-.75-.13-1.51-.19-2.26l-.13-1.65a3.13,3.13,0,0,0-.25-1.25c0-.08-.11-.14-.16-.21a2.1,2.1,0,0,1-.45-.8,2.13,2.13,0,0,0-.15-.44h-.1l-.14,0a.71.71,0,0,1-.91-.51,7.49,7.49,0,0,1-.31-1.51,6.5,6.5,0,0,1,0-.89,4.42,4.42,0,0,0,0-1c0-.08-.06-.11-.17-.2a1.26,1.26,0,0,1-.34-.35,2.82,2.82,0,0,1-.34-1.2c0-.29,0-.6-.06-.91s0-.59-.05-.86a1.18,1.18,0,0,0,0,.2c-.08.38-.16.74-.25,1l-.13.39a16.7,16.7,0,0,0-.67,2.54,6.38,6.38,0,0,0-.07.92,4.28,4.28,0,0,1-.51,2.3.63.63,0,0,1-.22.2c0,.08,0,.21-.08.32s-.07.26-.07.29c-.16.48-.36,1-.81,1s-.63-.41-.69-.55a4.89,4.89,0,0,1-.3-1.24,4.92,4.92,0,0,0-.32-1.31,4.46,4.46,0,0,0-.48,1.08l-.09.27a.42.42,0,0,1-.27.25.34.34,0,0,1-.2,0,5.24,5.24,0,0,0-.06.54l0,.48a1.77,1.77,0,0,1-.28,1,.46.46,0,0,1-.42.16,9.39,9.39,0,0,0-.33,1.45c-.06.31-.1.58-.15.75l0,.1c-.3,1.14-.46,1.48-.76,1.57a.58.58,0,0,1-.41,0,.51.51,0,0,1-.22-.32c-.23,0-.64,0-.8-.61,0-.14-.06-.26-.08-.37a1,1,0,0,0-.2-.54,3,3,0,0,1-.46-1.56c-.06-.55-.07-.58-.23-.75a2.93,2.93,0,0,1-.53-1.88v-.15c0-.19,0-.38,0-.57a4,4,0,0,1-.29,1.22.75.75,0,0,1-.49.44.53.53,0,0,1-.29,0c0,.07,0,.16,0,.22a1.53,1.53,0,0,1-.17.78c-.06.11-.25.4-.55.37h0c-.1.45-.19.9-.54,1.1a.53.53,0,0,1-.44,0c-.31-.1-.47-.44-.6-.72l-.07-.13-.06-.12s-.07-.12-.11-.19,0,0,0,.07a1.08,1.08,0,0,1-.47.77.47.47,0,0,1-.17,0,1,1,0,0,1-.25.46.6.6,0,0,1-.6.24c-.34-.08-.44-.42-.51-.65a.36.36,0,0,0,0-.11.87.87,0,0,0-.27-.42,1.46,1.46,0,0,0-.23.37,6,6,0,0,0-.39,2,9.33,9.33,0,0,1-.2,1.5c-.11.41-.17.83-.68.77h-.09a.61.61,0,0,1-.81,0,.84.84,0,0,1-.21-.46,5,5,0,0,0-.2.64,4.54,4.54,0,0,1-.35,1.06.4.4,0,0,1-.45.22,7.17,7.17,0,0,0-.1,2.34,8.49,8.49,0,0,1,0,1.72c-.19.79-.33,1.16-.68,1.25a.64.64,0,0,1-.63-.27.63.63,0,0,0-.12-.11l-.09.08a.4.4,0,0,1-.42.07.39.39,0,0,1-.26-.32c0-.26-.07-.52-.1-.79-.07-.56-.14-1.13-.25-1.63a.82.82,0,0,1-.27,0c-.58-.15-.71-1-.9-2.14a9.16,9.16,0,0,0-.27-1.31,4.37,4.37,0,0,0-.38.68.41.41,0,0,1-.42.23.44.44,0,0,1-.2-.08,11.18,11.18,0,0,0-.55,3.07,12.41,12.41,0,0,1-.55,3.15,5.15,5.15,0,0,1-.42.91,4.26,4.26,0,0,0-.51,1.45,11.62,11.62,0,0,0-.07,1.86,10.07,10.07,0,0,1-.14,2.4.4.4,0,0,1-.2.28c-.68.37-1.17-.35-1.41-.7l0-.07a1.61,1.61,0,0,1-.45-.18,10.35,10.35,0,0,1-.27,1.2.51.51,0,0,1-.15.21.85.85,0,0,1-.9.16c-.54-.24-.62-1-.71-2,0-.15,0-.33,0-.51a.58.58,0,0,1-.18,0,2.39,2.39,0,0,0-.29,1.11c0,.18,0,.38-.07.6a1.82,1.82,0,0,0,0,.4,2,2,0,0,1,0,.64,1.14,1.14,0,0,1-.35.66.49.49,0,0,0-.17.31,16.23,16.23,0,0,0-.24,3.36c0,.44,0,.88,0,1.31a.41.41,0,0,1-.37.39c-.66.07-.73.67-.74,2a6.12,6.12,0,0,1-.21,2,.4.4,0,0,1-.38.27h0a.4.4,0,0,1-.38-.27.61.61,0,0,0,0-.11.93.93,0,0,1-.7-.62,3,3,0,0,1-.14-1c0-.17,0-.35,0-.5a.68.68,0,0,1-.49-.36,1.49,1.49,0,0,1-.11-.6,1.72,1.72,0,0,0,0-.26s0,0,0,0c-.08.56-.14,1.34-.18,1.92a16.07,16.07,0,0,1-.16,1.64,3.69,3.69,0,0,1-.52,1.26,4.94,4.94,0,0,0-.31.61c-.07.18-.13.39-.19.6a2.59,2.59,0,0,1-.75,1.47.36.36,0,0,1-.22.07c0,.23-.08.49-.11.68C64.58,154.6,64.4,155.92,63.38,155.92Zm4-11.43Zm18.36-21Zm5.73-5.23Zm.66-1.68Zm47.28-13.39Zm6-15Z" style="fill:#407BFF"></path></g></g><g id="freepik--chart--inject-44"><g id="freepik--window--inject-44"><path d="M361.11,244.38a3.45,3.45,0,0,0-1.52-3.25h0l-3.91-2.24h0a3.46,3.46,0,0,0-3.58.31L246.33,300.26a11,11,0,0,0-5,8.65V370a3.48,3.48,0,0,0,1.48,3.24h0l4,2.28h0a3.51,3.51,0,0,0,3.54-.34l105.77-61.07a11,11,0,0,0,5-8.64Z" style="fill:#407BFF;opacity:0.4"></path><path d="M361.11,244.39v61.12a11,11,0,0,1-5,8.65L250.35,375.22c-2.44,1.42-4.48.55-4.9-1.9a4.48,4.48,0,0,0,.88-.4L352.1,311.86a11,11,0,0,0,5-8.65V242.09a4.43,4.43,0,0,0-.09-1C359.34,240.22,361.11,241.55,361.11,244.39Z" style="fill:#407BFF;opacity:0.4"></path><path d="M356.12,241.5,262.3,296.72l-6.82,3.92s-3.6,1.94-5,2.92a8.57,8.57,0,0,0-1.35,1.15,10.31,10.31,0,0,0-2.85,6.45V319l-.86,53.32L244.5,319v-7.87a12,12,0,0,1,3.31-7.65,11.11,11.11,0,0,1,1.64-1.4c1.49-1,5.14-3,5.14-3l6.8-3.94Z" style="fill:#fff"></path></g><g id="freepik--chart--inject-44"><path d="M325.22,268.49l-.46.27h0L253.39,310l-.47.27v53.33l72.46-41.83h0l26.94-15.55V252.85Zm18.12-9.63L351.7,254v12.29l-8.36,4.83Zm-9,5.19,8.36-4.83v12.3l-8.36,4.83Zm-9,5.18,8.36-4.83v12.3l-8.36,4.83Zm-9,43.74v-12.3l8.36-4.83v12.3Zm0-13.13v-12.3l8.36-4.82V295Zm-9,18.31V305.86l8.36-4.83v12.3Zm0-13.12v-12.3l8.36-4.83v12.3Zm-9,18.31V311l8.36-4.83v12.3Zm0-13.13v-12.3l8.36-4.82v12.29Zm-9,18.31v-12.3l8.36-4.82v12.3Zm0-13.13V303.1l8.36-4.83v12.3Zm-9,18.32v-12.3l8.36-4.83v12.3Zm0-13.13v-12.3l8.36-4.83v12.3Zm-9,18.31v-12.3l8.36-4.82v12.29Zm0-13.13V313.47l8.36-4.83v12.3Zm-9,18.32v-12.3l8.36-4.83v12.3Zm0-13.13v-12.3l8.36-4.83v12.3Zm-9,18.31V337l8.36-4.82v12.29Zm0-13.13V323.84L261.9,319v12.3Zm62.86-61.72,8.36-4.82v12.3l-8.36,4.82Zm-9,5.19,8.36-4.83v12.3l-8.36,4.83Zm-9,5.18L306.8,280v12.3l-8.36,4.82Zm-9,5.19,8.36-4.83v12.3l-8.36,4.83Zm-9,5.18,8.36-4.82v12.3l-8.36,4.82Zm-9,5.19,8.36-4.83v12.3l-8.36,4.83Zm-9,5.18,8.36-4.83V313l-8.36,4.83Zm-9,5.19,8.36-4.83v12.3L253.54,323Zm8.36,46.85-8.36,4.83v-12.3l8.36-4.83Zm9-5.18-8.36,4.83V344.9l8.36-4.82Zm9-5.19L271.5,352v-12.3l8.36-4.83Zm9-5.18-8.36,4.83v-12.3l8.36-4.83Zm9-5.18-8.36,4.82v-12.3l8.36-4.83Zm9-5.19-8.36,4.83v-12.3l8.36-4.83Zm9-5.18-8.36,4.82V319l8.36-4.82Zm9-5.19-8.36,4.83V313.8l8.36-4.83Zm9-5.18-8.36,4.82v-12.3l8.36-4.82Zm9-5.19-8.36,4.83v-12.3l8.36-4.83Zm9-5.18-8.36,4.82v-12.3l8.36-4.82Zm-18-28.19v12.3l-8.36,4.83v-12.3Zm0,13.13V303l-8.36,4.82V295.49Zm9-18.31v12.3l-8.36,4.82V277.18Zm0,13.12v12.3l-8.36,4.83V290.3Zm9-18.3v12.29l-8.36,4.83V272Zm0,13.12v12.3l-8.36,4.83v-12.3Z" style="fill:#fff;opacity:0.2"></path><polygon points="254.9 362 254.9 317.36 260.55 314.1 260.55 358.74 254.9 362" style="fill:#407BFF"></polygon><polygon points="263.88 356.81 263.88 317.81 269.53 314.55 269.53 353.55 263.88 356.81" style="fill:#407BFF"></polygon><polygon points="272.86 351.62 272.85 320.81 278.5 317.55 278.51 348.36 272.86 351.62" style="fill:#407BFF"></polygon><polygon points="281.83 346.43 281.83 315.62 287.49 312.36 287.49 343.17 281.83 346.43" style="fill:#407BFF"></polygon><polygon points="290.81 341.24 290.81 318.83 296.46 315.57 296.47 337.98 290.81 341.24" style="fill:#407BFF"></polygon><polygon points="299.79 336.05 299.79 300.85 305.44 297.59 305.44 332.79 299.79 336.05" style="fill:#407BFF"></polygon><polygon points="308.77 330.86 308.77 299.61 314.43 296.34 314.43 327.6 308.77 330.86" style="fill:#407BFF"></polygon><polygon points="317.75 325.67 317.75 292.29 323.4 289.03 323.4 322.41 317.75 325.67" style="fill:#407BFF"></polygon><polygon points="326.73 320.48 326.73 290 332.38 286.74 332.38 317.22 326.73 320.48" style="fill:#407BFF"></polygon><polygon points="335.71 315.29 335.71 289.19 341.37 285.93 341.37 312.03 335.71 315.29" style="fill:#407BFF"></polygon><polygon points="344.69 310.1 344.69 275.93 350.35 272.67 350.35 306.84 344.69 310.1" style="fill:#407BFF"></polygon></g></g><g id="freepik--bar-graph--inject-44"><path d="M136.94,335.13l2.39,1.39a4.7,4.7,0,0,0,4.26,0l145.45-84a4.7,4.7,0,0,0,2.13-3.68V88.59A4.7,4.7,0,0,0,289,84.9l-2.4-1.38a4.68,4.68,0,0,0-4.25,0l-145.45,84a4.7,4.7,0,0,0-2.13,3.69V331.45A4.67,4.67,0,0,0,136.94,335.13Z" style="fill:#f0f0f0"></path><path d="M143.59,336.52l145.45-84a4.7,4.7,0,0,0,2.13-3.68V88.59c0-1.36-.95-1.91-2.13-1.23l-145.45,84a4.67,4.67,0,0,0-2.13,3.68V335.29C141.46,336.65,142.41,337.2,143.59,336.52Z" style="fill:#fff"></path><path d="M142.64,337.22a1.54,1.54,0,0,1-.76-.2,1.89,1.89,0,0,1-.83-1.73V175a5.11,5.11,0,0,1,2.33-4L288.83,87a1.9,1.9,0,0,1,1.92-.14,1.88,1.88,0,0,1,.83,1.73V248.86a5.11,5.11,0,0,1-2.33,4l-145.46,84A2.31,2.31,0,0,1,142.64,337.22ZM290,87.48a1.54,1.54,0,0,0-.74.23l-145.46,84a4.33,4.33,0,0,0-1.92,3.33V335.29a.9.9,0,0,0,1.52.87l145.44-84a4.31,4.31,0,0,0,1.93-3.33V88.59a1.14,1.14,0,0,0-.42-1A.78.78,0,0,0,290,87.48Z" style="fill:#e0e0e0"></path><path d="M143.27,336.67a4.72,4.72,0,0,1-3.93-.15l-2.4-1.39a4.68,4.68,0,0,1-2.13-3.68V171.18a4.42,4.42,0,0,1,.62-2.1l6.65,3.84a4.45,4.45,0,0,0-.62,2.1V335.29C141.46,336.52,142.24,337.09,143.27,336.67Z" style="fill:#e0e0e0"></path><g id="freepik--bar-graph--inject-44"><polygon points="251.9 257.78 251.9 170.4 244.1 165.9 244.1 253.28 251.9 257.78" style="fill:#407BFF"></polygon><polygon points="251.9 257.78 251.9 170.4 244.1 165.9 244.1 253.28 251.9 257.78" style="opacity:0.2"></polygon><polygon points="251.9 257.78 274.53 244.71 274.53 157.34 251.9 170.4 251.9 257.78" style="fill:#407BFF"></polygon><polygon points="274.53 157.34 266.74 152.84 244.1 165.9 251.9 170.4 274.53 157.34" style="fill:#407BFF"></polygon><polygon points="274.53 157.34 266.74 152.84 244.1 165.9 251.9 170.4 274.53 157.34" style="fill:#fff;opacity:0.25"></polygon><path d="M274.53,157.34,251.9,170.06l-7.8-4.16,7.49,5c-.17,2.55,0,84.28.31,86.89.34-2.61.48-84.51.32-87Z" style="fill:#fff;opacity:0.30000000000000004"></path><polygon points="209.48 282.27 209.47 212.09 201.68 207.59 201.68 277.77 209.48 282.27" style="fill:#407BFF"></polygon><polygon points="209.48 282.27 209.47 212.09 201.68 207.59 201.68 277.77 209.48 282.27" style="fill:#fff;opacity:0.1"></polygon><polygon points="209.48 282.27 232.1 269.21 232.11 199.03 209.47 212.09 209.48 282.27" style="fill:#407BFF"></polygon><polygon points="209.48 282.27 232.1 269.21 232.11 199.03 209.47 212.09 209.48 282.27" style="fill:#fff;opacity:0.30000000000000004"></polygon><polygon points="232.11 199.03 224.31 194.53 201.68 207.59 209.47 212.09 232.11 199.03" style="fill:#407BFF"></polygon><polygon points="232.11 199.03 224.31 194.53 201.68 207.59 209.47 212.09 232.11 199.03" style="fill:#fff;opacity:0.55"></polygon><path d="M209.77,212.26,232.11,199l-22.63,12.73c-2.47-1.4-7.81-4.17-7.81-4.17s5,3.18,7.51,4.66c-.08,2.64.12,67.33.3,70C209.65,279.58,209.85,214.82,209.77,212.26Z" style="fill:#fff;opacity:0.30000000000000004"></path><polygon points="167.05 306.77 167.05 247.86 159.25 243.35 159.25 302.26 167.05 306.77" style="fill:#407BFF"></polygon><polygon points="167.05 306.77 167.05 247.86 159.25 243.35 159.25 302.26 167.05 306.77" style="opacity:0.45"></polygon><polygon points="167.05 306.77 189.68 293.7 189.68 234.79 167.05 247.86 167.05 306.77" style="fill:#407BFF"></polygon><polygon points="167.05 306.77 189.68 293.7 189.68 234.79 167.05 247.86 167.05 306.77" style="opacity:0.30000000000000004"></polygon><polygon points="189.68 234.79 181.88 230.29 159.25 243.35 167.05 247.86 189.68 234.79" style="fill:#407BFF"></polygon><polygon points="189.68 234.79 181.88 230.29 159.25 243.35 167.05 247.86 189.68 234.79" style="opacity:0.15"></polygon><path d="M189.68,234.79l-22.63,12.73-7.8-4.17,7.49,4.89s0,56.92.31,58.53c.34-1.61.33-58.52.33-58.52Z" style="fill:#fff;opacity:0.30000000000000004"></path></g><g id="freepik--Arrow--inject-44"><polygon points="272.62 119.09 270.62 117.93 253.25 124.17 257.08 127.77 207.94 180.24 197.7 170.58 195.7 169.41 157.34 210.37 161.94 214.68 163.94 215.85 197.34 180.19 206.88 188.95 209.88 190.7 263.3 133.66 265.52 135.67 267.52 136.84 272.62 119.09" style="fill:#407BFF"></polygon><polygon points="272.62 119.09 270.62 117.93 253.25 124.17 257.08 127.77 207.94 180.24 197.7 170.58 195.7 169.41 157.34 210.37 161.94 214.68 163.94 215.85 197.34 180.19 206.88 188.95 209.88 190.7 263.3 133.66 265.52 135.67 267.52 136.84 272.62 119.09" style="fill:#fff;opacity:0.25"></polygon><polygon points="272.62 119.09 267.52 136.84 263.69 133.25 209.88 190.7 197.99 179.49 163.94 215.85 159.34 211.54 197.7 170.58 209.59 181.79 259.08 128.93 255.25 125.34 272.62 119.09" style="fill:#407BFF"></polygon><polygon points="197.99 179.49 197.34 180.19 206.88 188.95 209.88 190.7 197.99 179.49" style="fill:#407BFF"></polygon><polygon points="197.99 179.49 197.34 180.19 206.88 188.95 209.88 190.7 197.99 179.49" style="opacity:0.2"></polygon><polygon points="257.08 127.77 259.08 128.93 255.25 125.34 253.25 124.17 257.08 127.77" style="fill:#407BFF"></polygon><polygon points="257.08 127.77 259.08 128.93 255.25 125.34 253.25 124.17 257.08 127.77" style="opacity:0.2"></polygon><polygon points="263.3 133.66 263.69 133.25 267.52 136.84 265.52 135.67 263.3 133.66" style="fill:#407BFF"></polygon><polygon points="263.3 133.66 263.69 133.25 267.52 136.84 265.52 135.67 263.3 133.66" style="opacity:0.2"></polygon><polygon points="157.34 210.37 159.34 211.54 163.94 215.85 161.94 214.68 157.34 210.37" style="fill:#407BFF"></polygon><polygon points="157.34 210.37 159.34 211.54 163.94 215.85 161.94 214.68 157.34 210.37" style="opacity:0.2"></polygon><polygon points="171.98 198.04 197.7 171.43 209.59 181.79 197.7 170.58 171.98 198.04" style="fill:#fff;opacity:0.5"></polygon><polygon points="232.27 157.57 259.67 128.93 255.98 125.52 272.62 119.09 255.25 125.34 259.08 128.93 232.27 157.57" style="fill:#fff;opacity:0.5"></polygon></g></g><g id="freepik--chart--inject-44"><g id="freepik--speech-bubble--inject-44"><path d="M223.64,369.38a1.19,1.19,0,0,0,.27-.74V334.09l7.15-7.23a2.85,2.85,0,0,0,.6-1.05c.09-.33.05-.51-.12-.49l-7.63,1.05V318a.5.5,0,0,0-.82-.47L180.78,342a1.37,1.37,0,0,0-.29.25,1.17,1.17,0,0,0-.27.73v50.61c0,.51.37.72.81.47l42.31-24.43a1.38,1.38,0,0,0,.3-.24Z" style="fill:#fff"></path><path d="M180.68,394.39a.77.77,0,0,1-.34-.08.81.81,0,0,1-.36-.73V343a1.39,1.39,0,0,1,.33-.89,1.64,1.64,0,0,1,.35-.29L223,317.36a.84.84,0,0,1,.82-.05.82.82,0,0,1,.36.73v8.06l7.35-1a.37.37,0,0,1,.34.11.7.7,0,0,1,0,.67,3.07,3.07,0,0,1-.65,1.14l-7.09,7.17v34.46a1.41,1.41,0,0,1-.33.89h0a1.48,1.48,0,0,1-.36.3l-42.31,24.42A.88.88,0,0,1,180.68,394.39Zm42.77-76.69a.49.49,0,0,0-.24.07L180.9,342.2a1.37,1.37,0,0,0-.23.19,1,1,0,0,0-.22.58v50.61a.37.37,0,0,0,.13.32.36.36,0,0,0,.33-.06l42.31-24.42a.91.91,0,0,0,.24-.2h0a.91.91,0,0,0,.21-.58V334l.07-.07,7.15-7.23a2.65,2.65,0,0,0,.54-.94l0-.18-7.8,1.07V318a.36.36,0,0,0-.12-.32A.16.16,0,0,0,223.45,317.7Z" style="fill:#e0e0e0"></path></g><g id="freepik--chart--inject-44"><path d="M201.27,336.25l0,19.34-11.76,18.73c-4.14-5.31-2.93-18.58,3.54-29.07C195.69,341,198,338.32,201.27,336.25Z" style="fill:#407BFF"></path><path d="M201.27,336.25l0,19.34-11.76,18.73c-4.14-5.31-2.93-18.58,3.54-29.07C195.69,341,198,338.32,201.27,336.25Z" style="fill:#fff;opacity:0.2"></path><path d="M217.23,353.3c-2.33,11.75-10.44,22.66-18.42,24.61a7.81,7.81,0,0,1-7.93-1.94l11.81-19.12Z" style="fill:#407BFF"></path><path d="M217.23,353.3c-2.33,11.75-10.44,22.66-18.42,24.61a7.81,7.81,0,0,1-7.93-1.94l11.81-19.12Z" style="fill:#fff;opacity:0.30000000000000004"></path><path d="M217.53,351.27l-13.91,3.41,7.81-20.55C216.4,336,218.75,342.58,217.53,351.27Z" style="fill:#407BFF"></path><path d="M210,334l-7.05,18.55V335.27A9.84,9.84,0,0,1,210,334Z" style="fill:#407BFF"></path><path d="M210,334l-7.05,18.55V335.27A9.84,9.84,0,0,1,210,334Z" style="fill:#fff;opacity:0.5"></path></g></g></g><g id="freepik--Gears--inject-44"><g id="freepik--gears--inject-44"><path id="freepik--Gear--inject-44" d="M407.23,59.62l-.9-2.35c-.13-.35-.52-.36-.86,0L403,59.74a.9.9,0,0,1-1.13.18,3.9,3.9,0,0,0-.62-.37.89.89,0,0,1-.49-1l.9-3.69c.1-.41-.18-.69-.63-.62l-2.12.34a1.54,1.54,0,0,0-1.09.87l-1.46,3.81a2.71,2.71,0,0,1-1,1.16c-.4.24-.8.5-1.21.8s-.85.28-1,0l-1-1.72c-.18-.32-.59-.29-.9.07l-2.77,3.15A1.73,1.73,0,0,0,388,64l.57,2.42a2.14,2.14,0,0,1-.3,1.38c-.42.69-.82,1.4-1.18,2.11a2.18,2.18,0,0,1-1.17,1l-2,.62a1.7,1.7,0,0,0-1,1l-1.32,4.21a.55.55,0,0,0,.55.75l1.69,0a.67.67,0,0,1,.69.74,16.16,16.16,0,0,0-.08,1.81,2.52,2.52,0,0,1-.49,1.39l-2.41,3.1a1.52,1.52,0,0,0-.28,1.3l.9,2.35c.13.35.52.35.86,0l2.5-2.48a.88.88,0,0,1,1.12-.18,5.63,5.63,0,0,0,.62.37.89.89,0,0,1,.49,1l-.9,3.69c-.1.41.18.68.63.61l2.12-.33a1.52,1.52,0,0,0,1.09-.87l1.46-3.81A2.71,2.71,0,0,1,393.13,85a14,14,0,0,0,1.21-.8c.4-.29.85-.29,1,0l1,1.72c.19.32.59.28.91-.07L400,82.76a1.73,1.73,0,0,0,.42-1.32L399.89,79a2.21,2.21,0,0,1,.3-1.38c.42-.69.82-1.4,1.18-2.11a2.24,2.24,0,0,1,1.17-1l2-.61a1.73,1.73,0,0,0,1-1l1.31-4.2a.54.54,0,0,0-.55-.75l-1.69,0a.67.67,0,0,1-.69-.74,16.23,16.23,0,0,0,.08-1.82,2.6,2.6,0,0,1,.49-1.38l2.41-3.1A1.52,1.52,0,0,0,407.23,59.62Zm-11.1,18.12c-3,3.41-6.29,3.93-7.35,1.16s.51-7.78,3.51-11.18,6.29-3.93,7.35-1.16S399.13,74.33,396.13,77.74Z" style="fill:#ebebeb"></path><g id="freepik--gear--inject-44"><path d="M361.2,77.17a1,1,0,0,1-1.07-1.35l1.25-5.13a.84.84,0,0,0-.47-.93,6.58,6.58,0,0,1-.92-.55.84.84,0,0,0-1.06.21l-3.47,3.45a1.31,1.31,0,0,1-1.17.44.89.89,0,0,1-.66-.59l-1.25-3.27a2.51,2.51,0,0,1,.45-2.19l3.34-4.3a3.16,3.16,0,0,0,.6-1.68,23,23,0,0,1,.12-2.57.53.53,0,0,0-.13-.42.64.64,0,0,0-.45-.19l-2.35,0a1.17,1.17,0,0,1-1-.47,1.21,1.21,0,0,1-.15-1.07l1.84-5.85a2.78,2.78,0,0,1,1.71-1.64l2.77-.85a2.69,2.69,0,0,0,1.4-1.17c.51-1,1.07-2,1.66-3a2.69,2.69,0,0,0,.36-1.62l-.79-3.37a2.72,2.72,0,0,1,.67-2.17l3.84-4.37a1.39,1.39,0,0,1,1.14-.54,1,1,0,0,1,.75.5l1.38,2.38a.27.27,0,0,0,.2.14.91.91,0,0,0,.67-.21c.57-.41,1.15-.8,1.72-1.13a3.49,3.49,0,0,0,1.3-1.42l2-5.3a2.54,2.54,0,0,1,1.82-1.45l2.94-.46a1.19,1.19,0,0,1,1.1.32,1.1,1.1,0,0,1,.22,1l-1.26,5.12a.88.88,0,0,0,.47.94,5,5,0,0,1,.92.55.88.88,0,0,0,1.07-.21l3.47-3.46a1.31,1.31,0,0,1,1.16-.44.94.94,0,0,1,.67.6l1.25,3.26a2.5,2.5,0,0,1-.45,2.19l-3.34,4.3a3.19,3.19,0,0,0-.6,1.69,22.78,22.78,0,0,1-.12,2.56.52.52,0,0,0,.13.42.57.57,0,0,0,.45.19l2.35,0a1.24,1.24,0,0,1,1,.48,1.2,1.2,0,0,1,.14,1.07L387,51.49a2.83,2.83,0,0,1-1.71,1.64l-2.77.85a2.74,2.74,0,0,0-1.4,1.17c-.51,1-1.07,2-1.66,3a2.57,2.57,0,0,0-.36,1.62l.78,3.37a2.76,2.76,0,0,1-.66,2.18l-3.85,4.37a1.38,1.38,0,0,1-1.14.53,1,1,0,0,1-.74-.49l-1.38-2.39a.32.32,0,0,0-.2-.14.94.94,0,0,0-.67.21c-.57.42-1.15.8-1.72,1.14a3.47,3.47,0,0,0-1.3,1.41l-2,5.3a2.54,2.54,0,0,1-1.83,1.45l-2.94.47Zm-1.57-8.84a1.39,1.39,0,0,1,.82.25,5.73,5.73,0,0,0,.79.48,1.62,1.62,0,0,1,.89,1.82L360.88,76a.33.33,0,0,0,0,.3.44.44,0,0,0,.4.08l2.94-.46a1.8,1.8,0,0,0,1.23-1l2-5.3a4.22,4.22,0,0,1,1.63-1.81,19.54,19.54,0,0,0,1.65-1.09,1.62,1.62,0,0,1,1.28-.34,1,1,0,0,1,.71.51l1.39,2.38a.18.18,0,0,0,.15.11.64.64,0,0,0,.48-.27l3.85-4.37a2,2,0,0,0,.49-1.49l-.79-3.37a3.33,3.33,0,0,1,.46-2.2c.58-.94,1.13-1.92,1.63-2.92a3.47,3.47,0,0,1,1.86-1.55l2.77-.86a2,2,0,0,0,1.2-1.13l1.83-5.84a.38.38,0,0,0-.4-.54l-2.35,0a1.36,1.36,0,0,1-1-.44,1.3,1.3,0,0,1-.32-1,19.17,19.17,0,0,0,.11-2.47,3.92,3.92,0,0,1,.77-2.17l3.34-4.3a1.77,1.77,0,0,0,.34-1.44l-1.26-3.27c0-.1-.08-.11-.1-.11s-.27,0-.46.23l-3.46,3.46a1.63,1.63,0,0,1-2.07.28,4.93,4.93,0,0,0-.8-.47,1.64,1.64,0,0,1-.89-1.82l1.26-5.13a.33.33,0,0,0,0-.3.46.46,0,0,0-.4-.08l-3,.46a1.79,1.79,0,0,0-1.22,1l-2,5.3a4.14,4.14,0,0,1-1.63,1.8,18.19,18.19,0,0,0-1.65,1.1,1.68,1.68,0,0,1-1.29.34,1.1,1.1,0,0,1-.71-.51l-1.38-2.39a.2.2,0,0,0-.15-.11.67.67,0,0,0-.49.28L363,37.41a2,2,0,0,0-.49,1.49l.78,3.37a3.33,3.33,0,0,1-.45,2.2c-.58.94-1.13,1.92-1.63,2.91a3.52,3.52,0,0,1-1.86,1.56l-2.77.85a2.06,2.06,0,0,0-1.2,1.13l-1.84,5.85a.47.47,0,0,0,0,.39.49.49,0,0,0,.37.15l2.35,0a1.39,1.39,0,0,1,1,.45,1.3,1.3,0,0,1,.32,1,21.3,21.3,0,0,0-.12,2.48,3.78,3.78,0,0,1-.76,2.16l-3.34,4.31a1.75,1.75,0,0,0-.34,1.43l1.25,3.27a.18.18,0,0,0,.11.12.67.67,0,0,0,.45-.24l3.47-3.45A1.79,1.79,0,0,1,359.63,68.33Zm7-5.8a3.74,3.74,0,0,1-.75-.07,3.87,3.87,0,0,1-3-2.65c-1.52-4,.7-11.11,4.94-15.94,2.65-3,5.6-4.56,7.9-4.15a3.9,3.9,0,0,1,3,2.66c1.52,4-.7,11.11-4.95,15.93C371.43,61,368.82,62.53,366.65,62.53ZM375,40.43c-1.94,0-4.33,1.43-6.55,4-4.07,4.63-6.23,11.43-4.8,15.15A3.13,3.13,0,0,0,366,61.7c2,.37,4.71-1.09,7.17-3.9,4.08-4.63,6.24-11.43,4.81-15.15a3.18,3.18,0,0,0-2.39-2.17A4.34,4.34,0,0,0,375,40.43Z" style="fill:#e0e0e0"></path></g></g><g id="freepik--gears--inject-44"><path id="freepik--gear--inject-44" d="M96.42,40.64l-.9-2.35c-.13-.35-.52-.35-.86,0l-2.5,2.49a.88.88,0,0,1-1.12.17,4.33,4.33,0,0,0-.62-.36.9.9,0,0,1-.49-1l.9-3.68c.1-.42-.18-.69-.63-.62l-2.12.33a1.52,1.52,0,0,0-1.09.87L85.53,40.3a2.63,2.63,0,0,1-1,1.15,14.18,14.18,0,0,0-1.21.81c-.4.28-.85.28-1,0l-1-1.72c-.19-.31-.59-.28-.91.08l-2.76,3.14A1.73,1.73,0,0,0,77.15,45l.57,2.43a2.18,2.18,0,0,1-.3,1.37c-.42.69-.82,1.4-1.18,2.12a2.26,2.26,0,0,1-1.17,1l-2,.61a1.76,1.76,0,0,0-1,1l-1.31,4.2a.55.55,0,0,0,.55.76H73a.68.68,0,0,1,.69.75,16.06,16.06,0,0,0-.08,1.81,2.6,2.6,0,0,1-.49,1.38l-2.41,3.1a1.54,1.54,0,0,0-.28,1.31l.9,2.35c.13.34.52.35.86,0l2.49-2.49a.88.88,0,0,1,1.13-.17,3.85,3.85,0,0,0,.62.36.89.89,0,0,1,.49,1L76,71.61c-.1.41.18.69.63.62l2.12-.34A1.55,1.55,0,0,0,79.81,71l1.46-3.81a2.71,2.71,0,0,1,1-1.16,13.27,13.27,0,0,0,1.21-.8c.39-.29.85-.28,1,0l1,1.71c.18.32.59.29.9-.07l2.77-3.14a1.73,1.73,0,0,0,.42-1.32L89.08,60a2.06,2.06,0,0,1,.3-1.37c.42-.7.82-1.4,1.18-2.12a2.22,2.22,0,0,1,1.17-1l2-.62a1.68,1.68,0,0,0,1-1l1.32-4.21a.55.55,0,0,0-.55-.75H93.85a.67.67,0,0,1-.69-.75,16.06,16.06,0,0,0,.08-1.81A2.55,2.55,0,0,1,93.73,45L96.14,42A1.55,1.55,0,0,0,96.42,40.64ZM85.32,58.77c-3,3.41-6.29,3.92-7.35,1.16s.51-7.78,3.51-11.19,6.29-3.93,7.35-1.16S88.32,55.36,85.32,58.77Z" style="fill:#ebebeb"></path><g id="freepik--gear--inject-44"><path d="M38,95.16a1.12,1.12,0,0,1-.85-.34,1.11,1.11,0,0,1-.22-1l1.25-5.12a.85.85,0,0,0-.47-.94,6.58,6.58,0,0,1-.92-.55.86.86,0,0,0-1.06.21l-3.47,3.45a1.29,1.29,0,0,1-1.17.45.92.92,0,0,1-.66-.6l-1.25-3.26a2.46,2.46,0,0,1,.45-2.19L33,81a3.13,3.13,0,0,0,.6-1.68,22.56,22.56,0,0,1,.12-2.56.52.52,0,0,0-.13-.42.6.6,0,0,0-.45-.19l-2.35,0a1.16,1.16,0,0,1-1.14-1.55l1.84-5.85a2.82,2.82,0,0,1,1.71-1.63l2.77-.86A2.69,2.69,0,0,0,37.32,65c.51-1,1.07-2,1.66-3a2.64,2.64,0,0,0,.36-1.62l-.79-3.38a2.8,2.8,0,0,1,.67-2.17l3.84-4.37A1.35,1.35,0,0,1,44.2,50a1,1,0,0,1,.75.49l1.38,2.38a.27.27,0,0,0,.2.14.89.89,0,0,0,.67-.2c.57-.42,1.15-.8,1.72-1.14a3.47,3.47,0,0,0,1.3-1.41l2-5.3a2.51,2.51,0,0,1,1.82-1.46L57,43a1.21,1.21,0,0,1,1.1.32,1.11,1.11,0,0,1,.22,1l-1.25,5.13a.85.85,0,0,0,.46.93,6.58,6.58,0,0,1,.92.55.86.86,0,0,0,1.07-.21L63,47.31a1.31,1.31,0,0,1,1.16-.44.9.9,0,0,1,.67.59l1.25,3.27a2.48,2.48,0,0,1-.45,2.19l-3.34,4.3a3.13,3.13,0,0,0-.6,1.68,22.84,22.84,0,0,1-.12,2.57.5.5,0,0,0,.13.41.57.57,0,0,0,.45.19l2.35,0a1.14,1.14,0,0,1,1.13,1.54l-1.83,5.85a2.82,2.82,0,0,1-1.71,1.63L59.31,72a2.69,2.69,0,0,0-1.4,1.17c-.51,1-1.07,2-1.66,3a2.57,2.57,0,0,0-.36,1.62l.78,3.38A2.71,2.71,0,0,1,56,83.28l-3.85,4.37a1.36,1.36,0,0,1-1.13.53,1,1,0,0,1-.75-.49L48.9,85.31a.29.29,0,0,0-.2-.14.91.91,0,0,0-.67.21c-.57.41-1.15.8-1.72,1.13A3.43,3.43,0,0,0,45,87.93l-2,5.29a2.55,2.55,0,0,1-1.83,1.46l-2.94.46Zm-1.57-8.84a1.4,1.4,0,0,1,.82.26,4.54,4.54,0,0,0,.8.47,1.62,1.62,0,0,1,.88,1.82L37.66,94a.33.33,0,0,0,0,.3.48.48,0,0,0,.4.08L41,93.91a1.75,1.75,0,0,0,1.23-1l2-5.3a4.22,4.22,0,0,1,1.63-1.81,19.54,19.54,0,0,0,1.65-1.09,1.67,1.67,0,0,1,1.28-.34,1,1,0,0,1,.71.51L51,87.3a.18.18,0,0,0,.15.11.67.67,0,0,0,.48-.27l3.85-4.37a2,2,0,0,0,.49-1.49l-.79-3.37a3.33,3.33,0,0,1,.46-2.2c.58-.94,1.13-1.92,1.63-2.91a3.49,3.49,0,0,1,1.86-1.56l2.77-.85a2.09,2.09,0,0,0,1.2-1.13l1.83-5.85a.43.43,0,0,0,0-.39.46.46,0,0,0-.37-.15l-2.35,0a1.4,1.4,0,0,1-1-.45,1.29,1.29,0,0,1-.32-1,19.17,19.17,0,0,0,.11-2.48,3.92,3.92,0,0,1,.77-2.17L65,52.44A1.77,1.77,0,0,0,65.35,51l-1.26-3.26a.15.15,0,0,0-.1-.12.64.64,0,0,0-.46.23l-3.46,3.46A1.64,1.64,0,0,1,58,51.6a4.35,4.35,0,0,0-.8-.48,1.63,1.63,0,0,1-.89-1.82l1.26-5.12a.35.35,0,0,0,0-.31.54.54,0,0,0-.41-.08l-2.94.47a1.78,1.78,0,0,0-1.22,1l-2,5.3a4.22,4.22,0,0,1-1.63,1.81,18,18,0,0,0-1.65,1.09,1.64,1.64,0,0,1-1.29.34,1.06,1.06,0,0,1-.71-.51l-1.38-2.38a.18.18,0,0,0-.15-.11.62.62,0,0,0-.49.27L39.8,55.4a2,2,0,0,0-.49,1.49l.78,3.37a3.26,3.26,0,0,1-.45,2.2c-.58.95-1.13,1.93-1.63,2.91a3.52,3.52,0,0,1-1.86,1.56l-2.77.86a2,2,0,0,0-1.2,1.13l-1.84,5.84a.47.47,0,0,0,0,.39.45.45,0,0,0,.37.15l2.35,0a1.43,1.43,0,0,1,1,.45,1.34,1.34,0,0,1,.32,1,21,21,0,0,0-.12,2.47,3.83,3.83,0,0,1-.76,2.17l-3.34,4.3a1.77,1.77,0,0,0-.34,1.44l1.25,3.26c0,.11.09.12.11.12a.6.6,0,0,0,.45-.23l3.47-3.46A1.83,1.83,0,0,1,36.41,86.32Zm7-5.8a4.65,4.65,0,0,1-.75-.06,3.9,3.9,0,0,1-3-2.66c-1.52-4,.7-11.11,4.94-15.94,2.65-3,5.6-4.56,7.9-4.15a3.9,3.9,0,0,1,3,2.66c1.52,4-.7,11.11-5,15.94C48.21,79,45.6,80.52,43.43,80.52Zm8.35-22.1c-1.94,0-4.33,1.43-6.55,4C41.16,67,39,73.8,40.43,77.52a3.16,3.16,0,0,0,2.39,2.18c2,.36,4.71-1.1,7.17-3.9,4.08-4.64,6.24-11.43,4.81-15.15a3.14,3.14,0,0,0-2.39-2.17A3.36,3.36,0,0,0,51.78,58.42Z" style="fill:#e0e0e0"></path></g></g><g id="freepik--gears--inject-44"><path id="freepik--shadow--inject-44" d="M229.81,466.78A4.76,4.76,0,0,1,225.2,463l-.78-4.1c-1.8-.36-3.55-.79-5.23-1.3l-8,3.7a5.67,5.67,0,0,1-5-.23L198,456.31a4.06,4.06,0,0,1-.35-6.91l4.29-3.08c-.2-.3-.4-.6-.58-.9l-10-.63a4.56,4.56,0,0,1-4.26-4.54v-6.08a4.55,4.55,0,0,1,4.26-4.53l10-.64c.18-.3.38-.59.58-.89L197.68,425a4.1,4.1,0,0,1-1.76-3.55,4.15,4.15,0,0,1,2.11-3.36l8.18-4.71a5.5,5.5,0,0,1,2.73-.71,5.41,5.41,0,0,1,2.26.48l8,3.7a52.58,52.58,0,0,1,5.23-1.3l.78-4.11a4.76,4.76,0,0,1,4.61-3.82h12a4.77,4.77,0,0,1,4.61,3.82l.78,4.11a52.58,52.58,0,0,1,5.23,1.3l8-3.7a5.41,5.41,0,0,1,2.26-.48,5.5,5.5,0,0,1,2.73.71l8.18,4.72A4,4,0,0,1,274,425l-4.29,3.09c.2.3.4.59.58.89l10,.64a4.55,4.55,0,0,1,4.26,4.53v6.08a4.56,4.56,0,0,1-4.26,4.54l-10,.63c-.18.3-.38.6-.58.9L274,449.4a4.06,4.06,0,0,1-.35,6.91L265.44,461a5.48,5.48,0,0,1-2.73.7h0a5.41,5.41,0,0,1-2.26-.47l-8-3.7c-1.67.51-3.43.94-5.23,1.3l-.78,4.11a4.77,4.77,0,0,1-4.61,3.81Zm6-37.39a25,25,0,0,0-12.09,2.84c-2.54,1.47-4,3.28-4,5s1.46,3.52,4,5a27.18,27.18,0,0,0,24.17,0c2.54-1.46,4-3.28,4-5s-1.45-3.51-4-5A25,25,0,0,0,235.83,429.39Z" style="fill:#ebebeb"></path><path d="M271.89,414l-8.18-4.72a2.2,2.2,0,0,0-1.81-.08l-8.29,3.84a3.05,3.05,0,0,1-1.89.11,50.83,50.83,0,0,0-6.44-1.53,1.58,1.58,0,0,1-1.2-1.16l-1-5.47a1.29,1.29,0,0,0-1.21-1h-12a1.29,1.29,0,0,0-1.21,1l-1,5.47a1.55,1.55,0,0,1-1.19,1.16,50.83,50.83,0,0,0-6.44,1.53,3,3,0,0,1-1.89-.11l-8.29-3.84a2.2,2.2,0,0,0-1.81.08L199.76,414a.67.67,0,0,0-.38.56h0l0,7.09h0a.69.69,0,0,0,.32.56l3.76,2.7a1.82,1.82,0,0,1-.92.39l-10.9.69a1.1,1.1,0,0,0-1,1.08v4.63h0l0,8.53a1.12,1.12,0,0,0,1,1.09l10.9.69a1.78,1.78,0,0,1,.94.4l-3.74,2.69a.67.67,0,0,0-.32.54h0l0,7.1h0a.65.65,0,0,0,.38.55l8.18,4.72a2.2,2.2,0,0,0,1.81.09l8.28-3.84a3,3,0,0,1,1.9-.12,47.61,47.61,0,0,0,6.44,1.53,1.59,1.59,0,0,1,1.2,1.17l1,5.46a1.29,1.29,0,0,0,1.21,1h12a1.29,1.29,0,0,0,1.21-1l1-5.46a1.59,1.59,0,0,1,1.2-1.17,48,48,0,0,0,6.44-1.53,3,3,0,0,1,1.89.12l8.29,3.84a2.2,2.2,0,0,0,1.81-.09l8.18-4.72a.65.65,0,0,0,.38-.54h0l0-7.11h0a.66.66,0,0,0-.32-.54l-3.76-2.71a1.8,1.8,0,0,1,.92-.38l10.9-.69a1.12,1.12,0,0,0,1-1.09V427.08a1.1,1.1,0,0,0-1-1.08l-10.9-.69a1.78,1.78,0,0,1-.94-.4l3.74-2.69a.69.69,0,0,0,.32-.55h0v-7.09h0A.67.67,0,0,0,271.89,414Zm-55.2,18.37c.58-2,2.33-3.88,5.32-5.6,7.63-4.41,20-4.41,27.63,0,2.8,1.61,4.62,3.39,5.45,5.21-.65,2.23-2.47,4.38-5.45,6.1-7.63,4.4-20,4.4-27.63,0A11.3,11.3,0,0,1,216.69,432.39Z" style="fill:#407BFF"></path><path d="M271.89,414l-8.18-4.72a2.2,2.2,0,0,0-1.81-.08l-8.29,3.84a3.05,3.05,0,0,1-1.89.11,50.83,50.83,0,0,0-6.44-1.53,1.58,1.58,0,0,1-1.2-1.16l-1-5.47a1.29,1.29,0,0,0-1.21-1h-12a1.29,1.29,0,0,0-1.21,1l-1,5.47a1.55,1.55,0,0,1-1.19,1.16,50.83,50.83,0,0,0-6.44,1.53,3,3,0,0,1-1.89-.11l-8.29-3.84a2.2,2.2,0,0,0-1.81.08L199.76,414a.67.67,0,0,0-.38.56h0l0,7.09h0a.69.69,0,0,0,.32.56l3.76,2.7a1.82,1.82,0,0,1-.92.39l-10.9.69a1.1,1.1,0,0,0-1,1.08v4.63h0l0,8.53a1.12,1.12,0,0,0,1,1.09l10.9.69a1.78,1.78,0,0,1,.94.4l-3.74,2.69a.67.67,0,0,0-.32.54h0l0,7.1h0a.65.65,0,0,0,.38.55l8.18,4.72a2.2,2.2,0,0,0,1.81.09l8.28-3.84a3,3,0,0,1,1.9-.12,47.61,47.61,0,0,0,6.44,1.53,1.59,1.59,0,0,1,1.2,1.17l1,5.46a1.29,1.29,0,0,0,1.21,1h12a1.29,1.29,0,0,0,1.21-1l1-5.46a1.59,1.59,0,0,1,1.2-1.17,48,48,0,0,0,6.44-1.53,3,3,0,0,1,1.89.12l8.29,3.84a2.2,2.2,0,0,0,1.81-.09l8.18-4.72a.65.65,0,0,0,.38-.54h0l0-7.11h0a.66.66,0,0,0-.32-.54l-3.76-2.71a1.8,1.8,0,0,1,.92-.38l10.9-.69a1.12,1.12,0,0,0,1-1.09V427.08a1.1,1.1,0,0,0-1-1.08l-10.9-.69a1.78,1.78,0,0,1-.94-.4l3.74-2.69a.69.69,0,0,0,.32-.55h0v-7.09h0A.67.67,0,0,0,271.89,414Zm-55.2,18.37c.58-2,2.33-3.88,5.32-5.6,7.63-4.41,20-4.41,27.63,0,2.8,1.61,4.62,3.39,5.45,5.21-.65,2.23-2.47,4.38-5.45,6.1-7.63,4.4-20,4.4-27.63,0A11.3,11.3,0,0,1,216.69,432.39Z" style="fill:#fff;opacity:0.2"></path><path d="M204,435.91a2,2,0,0,0-1.48-1l-10.89-.68a1.1,1.1,0,0,1-1-1.09v-1.44l0,8.53a1.11,1.11,0,0,0,1,1.09l10.9.68a1.87,1.87,0,0,1,1,.4l2.72-2a.86.86,0,0,0,.12-1.33A16.5,16.5,0,0,1,204,435.91Zm-4.64-14.24h0a.68.68,0,0,0,.32.55l3.77,2.71a1.87,1.87,0,0,0,.53-.6,16.87,16.87,0,0,1,2.32-3.21.86.86,0,0,0-.12-1.33l-6.48-4.66a.81.81,0,0,1-.33-.48Z" style="opacity:0.1"></path><path d="M249.64,422.15c-7.63-4.41-20-4.41-27.63,0-4.82,2.79-6.6,6.67-5.33,10.25.58-1.95,2.34-3.87,5.33-5.6,7.63-4.41,20-4.41,27.63,0,2.79,1.61,4.62,3.38,5.45,5.21C256.1,428.52,254.28,424.83,249.64,422.15Z" style="opacity:0.1"></path><path d="M281,433.3a1.13,1.13,0,0,1-1,.95l-10.89.69a1.4,1.4,0,0,0-.55.14v7.1a1.51,1.51,0,0,1,.53-.15l10.9-.7a1.09,1.09,0,0,0,1-1.08Zm-8.76-18.73h0a.6.6,0,0,1,0,.22.51.51,0,0,1-.14.21.58.58,0,0,1-.14.13l-6.48,4.66a.73.73,0,0,0-.16.14.76.76,0,0,0-.2.4.62.62,0,0,0,0,.27.58.58,0,0,0,0,.14,1,1,0,0,0,.22.38l.12.14a16.09,16.09,0,0,1,2.19,3.07,2,2,0,0,0,.52.58l3.75-2.69a.72.72,0,0,0,.32-.54h0Zm0,31.16a.7.7,0,0,1-.38.5L263.71,451a2.2,2.2,0,0,1-1.27.22v7.08a2.18,2.18,0,0,0,1.26-.21l8.18-4.73a.63.63,0,0,0,.38-.53ZM218.85,447a2.82,2.82,0,0,0-.82.19L209.75,451a1.75,1.75,0,0,1-.74.15l0,7.08a2,2,0,0,0,.74-.15l8.29-3.84a2.75,2.75,0,0,1,.81-.19Zm24,8.7a1.25,1.25,0,0,1-1,.54h-12a1.17,1.17,0,0,1-.74-.26v7.09a1.2,1.2,0,0,0,.72.26h12a1.3,1.3,0,0,0,1.06-.6Z" style="fill:#407BFF"></path><path d="M281,433.3a1.13,1.13,0,0,1-1,.95l-10.89.69a1.4,1.4,0,0,0-.55.14v7.1a1.51,1.51,0,0,1,.53-.15l10.9-.7a1.09,1.09,0,0,0,1-1.08Zm-8.76-18.73h0a.6.6,0,0,1,0,.22.51.51,0,0,1-.14.21.58.58,0,0,1-.14.13l-6.48,4.66a.73.73,0,0,0-.16.14.76.76,0,0,0-.2.4.62.62,0,0,0,0,.27.58.58,0,0,0,0,.14,1,1,0,0,0,.22.38l.12.14a16.09,16.09,0,0,1,2.19,3.07,2,2,0,0,0,.52.58l3.75-2.69a.72.72,0,0,0,.32-.54h0Zm0,31.16a.7.7,0,0,1-.38.5L263.71,451a2.2,2.2,0,0,1-1.27.22v7.08a2.18,2.18,0,0,0,1.26-.21l8.18-4.73a.63.63,0,0,0,.38-.53ZM218.85,447a2.82,2.82,0,0,0-.82.19L209.75,451a1.75,1.75,0,0,1-.74.15l0,7.08a2,2,0,0,0,.74-.15l8.29-3.84a2.75,2.75,0,0,1,.81-.19Zm24,8.7a1.25,1.25,0,0,1-1,.54h-12a1.17,1.17,0,0,1-.74-.26v7.09a1.2,1.2,0,0,0,.72.26h12a1.3,1.3,0,0,0,1.06-.6Z" style="fill:#fff;opacity:0.7000000000000001"></path><path d="M261.9,409.22l-8.29,3.84a3.05,3.05,0,0,1-1.89.11,50.83,50.83,0,0,0-6.44-1.53,1.58,1.58,0,0,1-1.2-1.16l-1-5.47a1.29,1.29,0,0,0-1.21-1h-12a1.29,1.29,0,0,0-1.21,1l-1,5.47a1.55,1.55,0,0,1-1.19,1.16,50.83,50.83,0,0,0-6.44,1.53,3,3,0,0,1-1.89-.11l-8.29-3.84a2.2,2.2,0,0,0-1.81.08L199.76,414a.61.61,0,0,0-.06,1.11l6.48,4.66a.86.86,0,0,1,.12,1.33,16.81,16.81,0,0,0-2.31,3.21,2,2,0,0,1-1.47,1l-10.9.69a1.1,1.1,0,0,0-1,1.08v6.08a1.11,1.11,0,0,0,1,1.09l10.9.69a2,2,0,0,1,1.47,1,16.5,16.5,0,0,0,2.31,3.21.86.86,0,0,1-.12,1.33l-6.48,4.67a.6.6,0,0,0,.06,1.1l8.18,4.73a2.21,2.21,0,0,0,1.8.08l8.29-3.84a3,3,0,0,1,1.9-.12,47.61,47.61,0,0,0,6.44,1.53,1.56,1.56,0,0,1,1.19,1.17l1,5.46a1.29,1.29,0,0,0,1.21,1h12a1.29,1.29,0,0,0,1.21-1l1-5.46a1.59,1.59,0,0,1,1.2-1.17,48,48,0,0,0,6.44-1.53,3.06,3.06,0,0,1,1.89.12L261.9,451a2.24,2.24,0,0,0,1.81-.08l8.18-4.73a.61.61,0,0,0,.06-1.1l-6.48-4.67a.86.86,0,0,1-.12-1.33,16.5,16.5,0,0,0,2.31-3.21,2,2,0,0,1,1.47-1l10.9-.69a1.11,1.11,0,0,0,1-1.09v-6.08a1.1,1.1,0,0,0-1-1.08l-10.9-.69a2,2,0,0,1-1.47-1,16.81,16.81,0,0,0-2.31-3.21.86.86,0,0,1,.12-1.33l6.48-4.66a.61.61,0,0,0-.06-1.11l-8.18-4.72A2.2,2.2,0,0,0,261.9,409.22Zm-12.26,12.93c7.63,4.4,7.63,11.54,0,16s-20,4.4-27.63,0-7.63-11.55,0-16S242,417.74,249.64,422.15Z" style="fill:#407BFF"></path><g style="opacity:0.55"><path d="M261.9,409.22l-8.29,3.84a3.05,3.05,0,0,1-1.89.11,50.83,50.83,0,0,0-6.44-1.53,1.58,1.58,0,0,1-1.2-1.16l-1-5.47a1.29,1.29,0,0,0-1.21-1h-12a1.29,1.29,0,0,0-1.21,1l-1,5.47a1.55,1.55,0,0,1-1.19,1.16,50.83,50.83,0,0,0-6.44,1.53,3,3,0,0,1-1.89-.11l-8.29-3.84a2.2,2.2,0,0,0-1.81.08L199.76,414a.61.61,0,0,0-.06,1.11l6.48,4.66a.86.86,0,0,1,.12,1.33,16.81,16.81,0,0,0-2.31,3.21,2,2,0,0,1-1.47,1l-10.9.69a1.1,1.1,0,0,0-1,1.08v6.08a1.11,1.11,0,0,0,1,1.09l10.9.69a2,2,0,0,1,1.47,1,16.5,16.5,0,0,0,2.31,3.21.86.86,0,0,1-.12,1.33l-6.48,4.67a.6.6,0,0,0,.06,1.1l8.18,4.73a2.21,2.21,0,0,0,1.8.08l8.29-3.84a3,3,0,0,1,1.9-.12,47.61,47.61,0,0,0,6.44,1.53,1.56,1.56,0,0,1,1.19,1.17l1,5.46a1.29,1.29,0,0,0,1.21,1h12a1.29,1.29,0,0,0,1.21-1l1-5.46a1.59,1.59,0,0,1,1.2-1.17,48,48,0,0,0,6.44-1.53,3.06,3.06,0,0,1,1.89.12L261.9,451a2.24,2.24,0,0,0,1.81-.08l8.18-4.73a.61.61,0,0,0,.06-1.1l-6.48-4.67a.86.86,0,0,1-.12-1.33,16.5,16.5,0,0,0,2.31-3.21,2,2,0,0,1,1.47-1l10.9-.69a1.11,1.11,0,0,0,1-1.09v-6.08a1.1,1.1,0,0,0-1-1.08l-10.9-.69a2,2,0,0,1-1.47-1,16.81,16.81,0,0,0-2.31-3.21.86.86,0,0,1,.12-1.33l6.48-4.66a.61.61,0,0,0-.06-1.11l-8.18-4.72A2.2,2.2,0,0,0,261.9,409.22Zm-12.26,12.93c7.63,4.4,7.63,11.54,0,16s-20,4.4-27.63,0-7.63-11.55,0-16S242,417.74,249.64,422.15Z" style="fill:#fff"></path><path d="M241.84,456.63h-12a1.67,1.67,0,0,1-1.6-1.32l-1-5.47a1.18,1.18,0,0,0-.87-.84,49.24,49.24,0,0,1-6.49-1.54,2.6,2.6,0,0,0-1.61.09l-8.29,3.84a2.6,2.6,0,0,1-2.18-.1l-8.17-4.72a1.07,1.07,0,0,1-.59-.86,1.1,1.1,0,0,1,.5-.92l6.48-4.66a.5.5,0,0,0,.21-.33.57.57,0,0,0-.15-.41,16.28,16.28,0,0,1-2.37-3.28,1.59,1.59,0,0,0-1.15-.77l-10.9-.69a1.51,1.51,0,0,1-1.39-1.49v-6.08a1.5,1.5,0,0,1,1.39-1.48l10.9-.69a1.65,1.65,0,0,0,1.15-.77,16.06,16.06,0,0,1,2.37-3.29.53.53,0,0,0,.15-.4.48.48,0,0,0-.21-.33l-6.48-4.67a1.1,1.1,0,0,1-.5-.91,1.09,1.09,0,0,1,.59-.87l8.17-4.72a2.64,2.64,0,0,1,2.18-.1l8.29,3.84a2.68,2.68,0,0,0,1.61.1,49.24,49.24,0,0,1,6.49-1.54,1.17,1.17,0,0,0,.87-.85l1-5.46a1.67,1.67,0,0,1,1.6-1.33h12a1.67,1.67,0,0,1,1.6,1.33l1,5.46a1.17,1.17,0,0,0,.87.85,49.24,49.24,0,0,1,6.49,1.54,2.61,2.61,0,0,0,1.61-.1l8.29-3.84a2.64,2.64,0,0,1,2.18.1l8.17,4.72a1.05,1.05,0,0,1,.58.87,1.07,1.07,0,0,1-.49.91l-6.48,4.67a.48.48,0,0,0-.21.33.53.53,0,0,0,.15.4,16.06,16.06,0,0,1,2.37,3.29,1.65,1.65,0,0,0,1.15.77l10.9.69a1.51,1.51,0,0,1,1.39,1.48v6.08a1.52,1.52,0,0,1-1.39,1.49l-10.9.69a1.57,1.57,0,0,0-1.15.77,16.62,16.62,0,0,1-2.37,3.29.53.53,0,0,0-.15.4.5.5,0,0,0,.21.33l6.48,4.66a1.07,1.07,0,0,1,.49.92,1,1,0,0,1-.58.86l-8.18,4.72a2.58,2.58,0,0,1-2.17.1l-8.29-3.84a2.67,2.67,0,0,0-1.61-.09,49.24,49.24,0,0,1-6.49,1.54,1.18,1.18,0,0,0-.87.84l-1,5.47A1.67,1.67,0,0,1,241.84,456.63Zm-22.67-10.06a3.07,3.07,0,0,1,.88.12,49.56,49.56,0,0,0,6.38,1.52,2,2,0,0,1,1.53,1.48l1,5.47a.86.86,0,0,0,.81.67h12a.87.87,0,0,0,.81-.67l1-5.47a2,2,0,0,1,1.53-1.48,49.56,49.56,0,0,0,6.38-1.52,3.46,3.46,0,0,1,2.18.13l8.29,3.84a1.8,1.8,0,0,0,1.44-.06l8.18-4.72c.11-.07.18-.15.18-.21s-.05-.15-.16-.23l-6.48-4.66a1.27,1.27,0,0,1-.54-.9,1.35,1.35,0,0,1,.36-1,16,16,0,0,0,2.26-3.13,2.38,2.38,0,0,1,1.8-1.18l10.89-.69a.72.72,0,0,0,.65-.69v-6.08a.7.7,0,0,0-.65-.68l-10.89-.69a2.38,2.38,0,0,1-1.8-1.19,16.27,16.27,0,0,0-2.26-3.13,1.33,1.33,0,0,1-.36-1,1.31,1.31,0,0,1,.54-.91l6.48-4.66c.11-.07.17-.16.16-.22s-.07-.15-.18-.21l-8.18-4.72a1.8,1.8,0,0,0-1.44-.07h0l-8.29,3.84a3.32,3.32,0,0,1-2.18.13,47.59,47.59,0,0,0-6.38-1.51,2,2,0,0,1-1.53-1.49l-1-5.46a.87.87,0,0,0-.81-.68h-12a.87.87,0,0,0-.81.68l-1,5.46a2,2,0,0,1-1.53,1.49,48,48,0,0,0-6.38,1.51,3.46,3.46,0,0,1-2.18-.13l-8.29-3.84a1.8,1.8,0,0,0-1.44.07L200,414.37c-.11.06-.18.14-.18.21s.05.15.16.22l6.48,4.66a1.31,1.31,0,0,1,.54.91,1.33,1.33,0,0,1-.36,1,16.27,16.27,0,0,0-2.26,3.13,2.41,2.41,0,0,1-1.8,1.19l-10.9.69a.7.7,0,0,0-.64.68v6.08a.7.7,0,0,0,.64.69l10.9.69a2.4,2.4,0,0,1,1.8,1.18,16,16,0,0,0,2.26,3.13,1.35,1.35,0,0,1,.36,1,1.27,1.27,0,0,1-.54.9l-6.48,4.66c-.11.08-.17.16-.16.23s.07.14.18.21l8.18,4.72a1.84,1.84,0,0,0,1.44.06l8.29-3.84A3.28,3.28,0,0,1,219.17,446.57Zm16.65-4.78a28.65,28.65,0,0,1-14-3.34c-3.82-2.21-5.92-5.16-5.92-8.33s2.1-6.12,5.92-8.32c7.73-4.46,20.3-4.46,28,0,3.82,2.2,5.92,5.16,5.92,8.32s-2.1,6.12-5.92,8.33A28.66,28.66,0,0,1,235.82,441.79Zm0-22.55a27.89,27.89,0,0,0-13.61,3.25c-3.56,2.06-5.52,4.77-5.52,7.63s2,5.58,5.52,7.63c7.51,4.34,19.72,4.34,27.23,0C253,435.7,255,433,255,430.12s-2-5.57-5.52-7.63A27.91,27.91,0,0,0,235.82,419.24Z" style="fill:#fff"></path></g><path id="freepik--shadow--inject-44" d="M307.13,423.57l-.51,0-7.1-.75a4.71,4.71,0,0,1-4.18-5.23l.14-1.1c-.6-.22-1.19-.45-1.76-.7,0,0,0,0,0,0h-.08l-5.39,1.69a5.56,5.56,0,0,1-1.64.24,6,6,0,0,1-3.78-1.31l-3.63-3a4.21,4.21,0,0,1,.82-7.12l1.23-.62-3.33-.57a4.53,4.53,0,0,1-3.58-5.86l1-3.13a5.24,5.24,0,0,1,4.89-3.58l6,.24-.78-.83a4.26,4.26,0,0,1,1.54-7l5.68-2.27a5.67,5.67,0,0,1,2.12-.39,6,6,0,0,1,3.3,1l3.68,2.44h0c1.07-.18,2.15-.33,3.24-.43l1.09-2.13a5.47,5.47,0,0,1,4.76-2.88,4.24,4.24,0,0,1,.51,0l7.1.74a4.69,4.69,0,0,1,4.17,5.23l-.13,1.1c.6.22,1.19.45,1.76.7,0,0,0,0,0,0h.08l5.39-1.69a5.45,5.45,0,0,1,1.63-.24,6,6,0,0,1,3.79,1.31l3.62,3a4.21,4.21,0,0,1-.82,7.12l-1.22.62,3.32.57a4.55,4.55,0,0,1,3.14,2.1,4.63,4.63,0,0,1,.45,3.76l-1,3.13a5.21,5.21,0,0,1-4.88,3.58l-6-.24.78.83a4.26,4.26,0,0,1-1.54,7l-5.68,2.27a5.67,5.67,0,0,1-2.12.39,6,6,0,0,1-3.3-.95l-3.68-2.44h0c-1,.18-2.13.33-3.23.43l-1.1,2.13A5.45,5.45,0,0,1,307.13,423.57Zm1.87-26a17.53,17.53,0,0,0-6.43,1.14c-2.49,1-3.52,2.27-3.64,3.06s.67,1.57,1.16,2c1.9,1.58,5.32,2.56,8.93,2.56a17.58,17.58,0,0,0,6.44-1.14c2.49-1,3.52-2.27,3.64-3.06s-.67-1.56-1.16-2C316,398.52,312.61,397.54,309,397.54Z" style="fill:#ebebeb"></path><path d="M320,384.2a1.55,1.55,0,0,1-1.07-1.6l.33-2.7a1.24,1.24,0,0,0-1.1-1.38l-7.1-.74a2,2,0,0,0-1.83,1l-1.41,2.75a2.48,2.48,0,0,1-1.84,1.2c-1.23.09-2.46.24-3.67.45a3.64,3.64,0,0,1-2.29-.45l-3.82-2.54A2.7,2.7,0,0,0,294,380l-5.68,2.28a.84.84,0,0,0-.59.72h0V383h0v5.8h0a1,1,0,0,0,.28.64l.33.35a3,3,0,0,1-1.56.48l-6.49-.26a1.75,1.75,0,0,0-1.64,1.15l-1,3.14a1.29,1.29,0,0,0,0,.39h0v5.86h0a1.07,1.07,0,0,0,.92,1l5,.86-2,1a.82.82,0,0,0-.51.71h0V410h0a.93.93,0,0,0,.35.65l3.63,3a2.55,2.55,0,0,0,2.17.43l5.52-1.73a3.86,3.86,0,0,1,2.35.16,28.72,28.72,0,0,0,3,1.09,1.5,1.5,0,0,1,.73.51v3.95h0a1.25,1.25,0,0,0,1.11,1.21L307,420a2,2,0,0,0,1.84-1l1.41-2.76a2.46,2.46,0,0,1,1.83-1.19c1.24-.1,2.47-.25,3.68-.46a3.58,3.58,0,0,1,2.29.46l3.82,2.53a2.66,2.66,0,0,0,2.22.23l5.68-2.27a.81.81,0,0,0,.58-.76h0V409h0a1,1,0,0,0-.28-.63l-.33-.35a2.94,2.94,0,0,1,1.56-.49l6.48.27a1.75,1.75,0,0,0,1.64-1.16l1-3.13a2.58,2.58,0,0,0,.05-.36h0v-5.83h0a1,1,0,0,0-.9-1.08l-5-.86,2-1a.79.79,0,0,0,.51-.72h0v-5.82h0a.82.82,0,0,0-.35-.67l-3.62-3a2.61,2.61,0,0,0-2.18-.43l-5.52,1.73a3.86,3.86,0,0,1-2.35-.15A29.42,29.42,0,0,0,320,384.2Zm-23.55,14.69a10.53,10.53,0,0,1,4.84-3.5c6.16-2.47,14.6-1.59,18.87,2a8.15,8.15,0,0,1,1.45,1.52,10.58,10.58,0,0,1-4.86,3.53c-6.15,2.46-14.6,1.58-18.87-2A7.6,7.6,0,0,1,296.44,398.89Z" style="fill:#407BFF"></path><path d="M320,384.2a1.55,1.55,0,0,1-1.07-1.6l.33-2.7a1.24,1.24,0,0,0-1.1-1.38l-7.1-.74a2,2,0,0,0-1.83,1l-1.41,2.75a2.48,2.48,0,0,1-1.84,1.2c-1.23.09-2.46.24-3.67.45a3.64,3.64,0,0,1-2.29-.45l-3.82-2.54A2.7,2.7,0,0,0,294,380l-5.68,2.28a.84.84,0,0,0-.59.72h0V383h0v5.8h0a1,1,0,0,0,.28.64l.33.35a3,3,0,0,1-1.56.48l-6.49-.26a1.75,1.75,0,0,0-1.64,1.15l-1,3.14a1.29,1.29,0,0,0,0,.39h0v5.86h0a1.07,1.07,0,0,0,.92,1l5,.86-2,1a.82.82,0,0,0-.51.71h0V410h0a.93.93,0,0,0,.35.65l3.63,3a2.55,2.55,0,0,0,2.17.43l5.52-1.73a3.86,3.86,0,0,1,2.35.16,28.72,28.72,0,0,0,3,1.09,1.5,1.5,0,0,1,.73.51v3.95h0a1.25,1.25,0,0,0,1.11,1.21L307,420a2,2,0,0,0,1.84-1l1.41-2.76a2.46,2.46,0,0,1,1.83-1.19c1.24-.1,2.47-.25,3.68-.46a3.58,3.58,0,0,1,2.29.46l3.82,2.53a2.66,2.66,0,0,0,2.22.23l5.68-2.27a.81.81,0,0,0,.58-.76h0V409h0a1,1,0,0,0-.28-.63l-.33-.35a2.94,2.94,0,0,1,1.56-.49l6.48.27a1.75,1.75,0,0,0,1.64-1.16l1-3.13a2.58,2.58,0,0,0,.05-.36h0v-5.83h0a1,1,0,0,0-.9-1.08l-5-.86,2-1a.79.79,0,0,0,.51-.72h0v-5.82h0a.82.82,0,0,0-.35-.67l-3.62-3a2.61,2.61,0,0,0-2.18-.43l-5.52,1.73a3.86,3.86,0,0,1-2.35-.15A29.42,29.42,0,0,0,320,384.2Zm-23.55,14.69a10.53,10.53,0,0,1,4.84-3.5c6.16-2.47,14.6-1.59,18.87,2a8.15,8.15,0,0,1,1.45,1.52,10.58,10.58,0,0,1-4.86,3.53c-6.15,2.46-14.6,1.58-18.87-2A7.6,7.6,0,0,1,296.44,398.89Z" style="fill:#fff;opacity:0.2"></path><path d="M286.19,398.23a2.15,2.15,0,0,0-1.51-1.44l-6.17-1.05a1.08,1.08,0,0,1-.92-1v5.78a1.07,1.07,0,0,0,.91,1l5,.86,2.6-1.31a1.22,1.22,0,0,0,.52-1.67A7,7,0,0,1,286.19,398.23Zm1.5-9.42h0a1,1,0,0,0,.28.64l.33.35a2.55,2.55,0,0,0,.54-.41A13,13,0,0,1,290.4,388a1.11,1.11,0,0,0,.16-1.67L288,383.62a1,1,0,0,1-.28-.63Z" style="opacity:0.1"></path><path d="M301.29,389.55c-5.31,2.12-7.18,6-4.84,9.35a10.45,10.45,0,0,1,4.83-3.51c6.16-2.46,14.6-1.59,18.88,2a8,8,0,0,1,1.43,1.52c1.64-2.35,1.26-5.12-1.43-7.37C315.89,388,307.44,387.08,301.29,389.55Z" style="opacity:0.1"></path><path d="M310.81,409.75a2.21,2.21,0,0,0-.59.68l-1.41,2.76a2.07,2.07,0,0,1-1.05.87v5.84a1.88,1.88,0,0,0,1-.87l1.42-2.76a2,2,0,0,1,.61-.67Zm19.52-.78h0a.81.81,0,0,1-.59.76L324.07,412a2.58,2.58,0,0,1-1.49.06v5.84a2.58,2.58,0,0,0,1.49-.06l5.68-2.27a.83.83,0,0,0,.59-.76Zm-37.67-2.45-5.44,1.72a2.5,2.5,0,0,1-1.38,0V414a2.47,2.47,0,0,0,1.37,0l5.46-1.71Zm47.78-9.23a1,1,0,0,1-.06.34l-1,3.14a1.74,1.74,0,0,1-1.64,1.15l-6.49-.26a2.54,2.54,0,0,0-1,.21v5.84a2.73,2.73,0,0,1,1-.21l6.49.26a1.73,1.73,0,0,0,1.63-1.15l1-3.13a1,1,0,0,0,.06-.36ZM337,387.83a.65.65,0,0,1-.05.2.7.7,0,0,1-.19.3,1.64,1.64,0,0,1-.29.2l-4.55,2.29a.84.84,0,0,0-.28.2,1.14,1.14,0,0,0-.31.47,1.33,1.33,0,0,0-.07.45l0,.24a1.63,1.63,0,0,0,.11.31,8.66,8.66,0,0,1,.46,1.22,2.15,2.15,0,0,0,1.51,1.46l1.14.18,2-1a.83.83,0,0,0,.51-.73h0Z" style="fill:#407BFF"></path><path d="M310.81,409.75a2.21,2.21,0,0,0-.59.68l-1.41,2.76a2.07,2.07,0,0,1-1.05.87v5.84a1.88,1.88,0,0,0,1-.87l1.42-2.76a2,2,0,0,1,.61-.67Zm19.52-.78h0a.81.81,0,0,1-.59.76L324.07,412a2.58,2.58,0,0,1-1.49.06v5.84a2.58,2.58,0,0,0,1.49-.06l5.68-2.27a.83.83,0,0,0,.59-.76Zm-37.67-2.45-5.44,1.72a2.5,2.5,0,0,1-1.38,0V414a2.47,2.47,0,0,0,1.37,0l5.46-1.71Zm47.78-9.23a1,1,0,0,1-.06.34l-1,3.14a1.74,1.74,0,0,1-1.64,1.15l-6.49-.26a2.54,2.54,0,0,0-1,.21v5.84a2.73,2.73,0,0,1,1-.21l6.49.26a1.73,1.73,0,0,0,1.63-1.15l1-3.13a1,1,0,0,0,.06-.36ZM337,387.83a.65.65,0,0,1-.05.2.7.7,0,0,1-.19.3,1.64,1.64,0,0,1-.29.2l-4.55,2.29a.84.84,0,0,0-.28.2,1.14,1.14,0,0,0-.31.47,1.33,1.33,0,0,0-.07.45l0,.24a1.63,1.63,0,0,0,.11.31,8.66,8.66,0,0,1,.46,1.22,2.15,2.15,0,0,0,1.51,1.46l1.14.18,2-1a.83.83,0,0,0,.51-.73h0Z" style="fill:#fff;opacity:0.7000000000000001"></path><path d="M330.81,383.71l-5.52,1.73a3.86,3.86,0,0,1-2.35-.15A29.42,29.42,0,0,0,320,384.2a1.55,1.55,0,0,1-1.07-1.6l.33-2.7a1.24,1.24,0,0,0-1.1-1.38l-7.1-.74a2,2,0,0,0-1.83,1l-1.41,2.75a2.48,2.48,0,0,1-1.84,1.2c-1.23.09-2.46.24-3.67.45a3.64,3.64,0,0,1-2.29-.45l-3.82-2.54A2.7,2.7,0,0,0,294,380l-5.68,2.28a.79.79,0,0,0-.31,1.38l2.58,2.74a1.1,1.1,0,0,1-.16,1.66,15.1,15.1,0,0,0-1.55,1.39,3.17,3.17,0,0,1-2.1.89l-6.49-.26a1.75,1.75,0,0,0-1.64,1.15l-1,3.14a1.08,1.08,0,0,0,.87,1.42l6.17,1.05a2.11,2.11,0,0,1,1.5,1.45,8.28,8.28,0,0,0,.47,1.22,1.25,1.25,0,0,1-.52,1.68l-4.56,2.28a.77.77,0,0,0-.15,1.38l3.62,3a2.55,2.55,0,0,0,2.17.43l5.52-1.73a3.93,3.93,0,0,1,2.35.15,28.12,28.12,0,0,0,3,1.09,1.54,1.54,0,0,1,1.06,1.61l-.32,2.69a1.23,1.23,0,0,0,1.1,1.38l7.09.75a2,2,0,0,0,1.84-1l1.41-2.75a2.5,2.5,0,0,1,1.84-1.2c1.23-.09,2.46-.24,3.67-.45a3.58,3.58,0,0,1,2.29.46l3.82,2.53a2.67,2.67,0,0,0,2.22.23l5.68-2.27a.8.8,0,0,0,.31-1.39l-2.58-2.74a1.09,1.09,0,0,1,.16-1.66,15.1,15.1,0,0,0,1.55-1.39,3.15,3.15,0,0,1,2.1-.89l6.49.26a1.73,1.73,0,0,0,1.63-1.15l1-3.14a1.07,1.07,0,0,0-.87-1.41l-6.17-1.06a2.12,2.12,0,0,1-1.51-1.45,8.22,8.22,0,0,0-.46-1.22,1.23,1.23,0,0,1,.52-1.67l4.55-2.29a.76.76,0,0,0,.16-1.37l-3.62-3A2.61,2.61,0,0,0,330.81,383.71Zm-10.66,7.8c4.27,3.56,2.74,8.43-3.41,10.9s-14.6,1.58-18.87-2-2.74-8.43,3.42-10.9S315.89,388,320.15,391.51Z" style="fill:#407BFF"></path><g style="opacity:0.55"><path d="M330.81,383.71l-5.52,1.73a3.86,3.86,0,0,1-2.35-.15A29.42,29.42,0,0,0,320,384.2a1.55,1.55,0,0,1-1.07-1.6l.33-2.7a1.24,1.24,0,0,0-1.1-1.38l-7.1-.74a2,2,0,0,0-1.83,1l-1.41,2.75a2.48,2.48,0,0,1-1.84,1.2c-1.23.09-2.46.24-3.67.45a3.64,3.64,0,0,1-2.29-.45l-3.82-2.54A2.7,2.7,0,0,0,294,380l-5.68,2.28a.79.79,0,0,0-.31,1.38l2.58,2.74a1.1,1.1,0,0,1-.16,1.66,15.1,15.1,0,0,0-1.55,1.39,3.17,3.17,0,0,1-2.1.89l-6.49-.26a1.75,1.75,0,0,0-1.64,1.15l-1,3.14a1.08,1.08,0,0,0,.87,1.42l6.17,1.05a2.11,2.11,0,0,1,1.5,1.45,8.28,8.28,0,0,0,.47,1.22,1.25,1.25,0,0,1-.52,1.68l-4.56,2.28a.77.77,0,0,0-.15,1.38l3.62,3a2.55,2.55,0,0,0,2.17.43l5.52-1.73a3.93,3.93,0,0,1,2.35.15,28.12,28.12,0,0,0,3,1.09,1.54,1.54,0,0,1,1.06,1.61l-.32,2.69a1.23,1.23,0,0,0,1.1,1.38l7.09.75a2,2,0,0,0,1.84-1l1.41-2.75a2.5,2.5,0,0,1,1.84-1.2c1.23-.09,2.46-.24,3.67-.45a3.58,3.58,0,0,1,2.29.46l3.82,2.53a2.67,2.67,0,0,0,2.22.23l5.68-2.27a.8.8,0,0,0,.31-1.39l-2.58-2.74a1.09,1.09,0,0,1,.16-1.66,15.1,15.1,0,0,0,1.55-1.39,3.15,3.15,0,0,1,2.1-.89l6.49.26a1.73,1.73,0,0,0,1.63-1.15l1-3.14a1.07,1.07,0,0,0-.87-1.41l-6.17-1.06a2.12,2.12,0,0,1-1.51-1.45,8.22,8.22,0,0,0-.46-1.22,1.23,1.23,0,0,1,.52-1.67l4.55-2.29a.76.76,0,0,0,.16-1.37l-3.62-3A2.61,2.61,0,0,0,330.81,383.71Zm-10.66,7.8c4.27,3.56,2.74,8.43-3.41,10.9s-14.6,1.58-18.87-2-2.74-8.43,3.42-10.9S315.89,388,320.15,391.51Z" style="fill:#fff"></path><path d="M307.12,414.68h-.2l-7.09-.74a1.72,1.72,0,0,1-1.18-.65,1.7,1.7,0,0,1-.36-1.29l.32-2.69a1,1,0,0,0-.71-1.07,31.3,31.3,0,0,1-3-1.11,3.4,3.4,0,0,0-2-.14l-5.52,1.73a3.08,3.08,0,0,1-2.64-.52l-3.62-3a1.26,1.26,0,0,1,.25-2.2l4.55-2.29a.75.75,0,0,0,.3-1,8.12,8.12,0,0,1-.49-1.29,1.64,1.64,0,0,0-1.12-1.1l-6.17-1a1.6,1.6,0,0,1-1.1-.74,1.56,1.56,0,0,1-.15-1.32l1-3.14a2.23,2.23,0,0,1,2.13-1.5l6.49.27a2.66,2.66,0,0,0,1.72-.75,17.26,17.26,0,0,1,1.6-1.43.6.6,0,0,0,.11-.93L287.62,384a1.3,1.3,0,0,1,.48-2.19l5.68-2.27a3.16,3.16,0,0,1,2.68.28l3.82,2.53a3.13,3.13,0,0,0,1.93.39,37.42,37.42,0,0,1,3.72-.47,2,2,0,0,0,1.44-.93l1.41-2.75a2.49,2.49,0,0,1,2.32-1.26l7.1.74a1.72,1.72,0,0,1,1.18.65,1.7,1.7,0,0,1,.36,1.29l-.32,2.7a1,1,0,0,0,.71,1.06,31.3,31.3,0,0,1,3,1.11,3.36,3.36,0,0,0,2,.14l5.53-1.73a3.09,3.09,0,0,1,2.64.52l3.62,3a1.25,1.25,0,0,1-.25,2.19l-4.56,2.29a.75.75,0,0,0-.29,1,9.21,9.21,0,0,1,.49,1.29,1.61,1.61,0,0,0,1.11,1.1l6.17,1.06a1.58,1.58,0,0,1,1.11.73,1.6,1.6,0,0,1,.15,1.32l-1,3.14a2.25,2.25,0,0,1-2.13,1.5l-6.49-.26a2.67,2.67,0,0,0-1.72.74,15.93,15.93,0,0,1-1.61,1.43.68.68,0,0,0-.27.47.59.59,0,0,0,.17.46l2.58,2.74a1.29,1.29,0,0,1-.49,2.19l-5.67,2.27a3.18,3.18,0,0,1-2.69-.28l-3.81-2.53a3.06,3.06,0,0,0-1.93-.38c-1.21.21-2.47.36-3.73.46a2,2,0,0,0-1.43.93l-1.41,2.75A2.52,2.52,0,0,1,307.12,414.68Zm-13.5-8.78a4.23,4.23,0,0,1,1.66.31,27.75,27.75,0,0,0,2.91,1.07,2.06,2.06,0,0,1,1.41,2.14l-.33,2.69a.76.76,0,0,0,.16.56.73.73,0,0,0,.5.27l7.1.74a1.52,1.52,0,0,0,1.34-.72l1.41-2.76a3,3,0,0,1,2.24-1.46c1.23-.09,2.45-.25,3.63-.45a4.06,4.06,0,0,1,2.65.53l3.81,2.54a2.23,2.23,0,0,0,1.77.18l5.67-2.27c.16-.07.26-.16.28-.25a.4.4,0,0,0-.15-.34l-2.57-2.74a1.55,1.55,0,0,1-.44-1.21,1.65,1.65,0,0,1,.65-1.18,16.54,16.54,0,0,0,1.51-1.34,3.57,3.57,0,0,1,2.47-1l6.49.26a1.27,1.27,0,0,0,1.14-.81l1-3.14a.61.61,0,0,0,0-.5.65.65,0,0,0-.43-.28l-6.17-1.05a2.58,2.58,0,0,1-1.9-1.8,8,8,0,0,0-.44-1.15,1.73,1.73,0,0,1,.75-2.33l4.55-2.28a.4.4,0,0,0,.24-.25.37.37,0,0,0-.18-.3l-3.62-3a2.12,2.12,0,0,0-1.71-.33l-5.52,1.73a4.37,4.37,0,0,1-2.69-.18,30.2,30.2,0,0,0-2.91-1.07,2,2,0,0,1-1.41-2.13l.33-2.7a.72.72,0,0,0-.16-.55.71.71,0,0,0-.51-.28l-7.09-.74a1.49,1.49,0,0,0-1.34.72l-1.41,2.76a2.94,2.94,0,0,1-2.24,1.46c-1.23.1-2.45.25-3.63.45a4.06,4.06,0,0,1-2.65-.53l-3.82-2.54a2.25,2.25,0,0,0-1.76-.18l-5.68,2.28a.31.31,0,0,0-.13.58l2.58,2.74a1.6,1.6,0,0,1,.44,1.22,1.66,1.66,0,0,1-.66,1.17,16.39,16.39,0,0,0-1.5,1.34,3.62,3.62,0,0,1-2.47,1.05l-6.49-.27a1.23,1.23,0,0,0-1.14.81l-1,3.14a.61.61,0,0,0,.05.5.62.62,0,0,0,.43.28l6.17,1.05a2.61,2.61,0,0,1,1.9,1.8,7.74,7.74,0,0,0,.44,1.15,1.73,1.73,0,0,1-.75,2.33l-4.55,2.29c-.15.07-.24.16-.25.25a.4.4,0,0,0,.18.29l3.63,3a2.08,2.08,0,0,0,1.71.34l5.52-1.73A3.33,3.33,0,0,1,293.62,405.9Zm15.43-1.61c-4.42,0-8.78-1.21-11.49-3.47-2-1.63-2.86-3.62-2.54-5.63.39-2.49,2.61-4.72,6.08-6.11,6.3-2.52,15-1.6,19.37,2.05,1.95,1.63,2.85,3.63,2.54,5.63-.4,2.49-2.61,4.72-6.08,6.11A21.48,21.48,0,0,1,309.05,404.29Zm0-15.65a20.59,20.59,0,0,0-7.54,1.36c-3.14,1.26-5.13,3.21-5.47,5.35-.26,1.67.49,3.29,2.19,4.71,4.14,3.44,12.38,4.29,18.37,1.89,3.14-1.26,5.13-3.21,5.47-5.35.26-1.66-.5-3.29-2.19-4.7h0C317.29,389.78,313.19,388.64,309,388.64Z" style="fill:#fff"></path></g></g></g><g id="freepik--character-2--inject-44"><g id="freepik--Chartacter--inject-44"><g id="freepik--Bottom--inject-44"><path d="M42.88,383.56c.64-9.43,1-13.84,1.88-30.69h0c.08-4.31.23-8.94.52-13.05C46.26,326,48,322.7,49.22,318s2.15-13.61,4-43.35A153,153,0,0,1,58.67,241h42.59c4.38,18.64,5.62,59,5.49,78.22-.06,9.79-.17,60.4.07,64.44a13.63,13.63,0,0,0,4.1,8.78c3.51,3.76,6,5.29,10.42,8.57-.63,1.68-9.85,1.62-12.47.34a99.46,99.46,0,0,1-11-6.46c-3.61-2.68-4.46-4.29-4.52-8.36a10.51,10.51,0,0,1,0-1.33c-.07-2.38-6.92-37.84-8.42-45.85-1.16-6.22.11-18.26.11-18.26l-4.51-29.63s-5.09,19.66-7.81,31.64c-2,8.8-6.94,22.71-10.18,36.78h0c-3.78,14.31-4.08,15.57-6.31,25.82-1.13,5.16-3.88,22.54-5.13,26.11-4,11.53-13.2,5.8-13.71-.57C37.08,407,42.74,385.59,42.88,383.56Z" style="fill:#ffbda7"></path><path d="M80.57,291.48l3.3-21.37s12.75-1.51,17.39-6c0,0-5.85,8.25-14.5,9.6l-3.64,17.71L85,320.85Z" style="fill:#f0997a"></path><path d="M131.1,405.8a3.71,3.71,0,0,1-.66,3.76c-1.48,1.31-5.85,3.47-11.67,2.79s-9-2.46-11.32-4.38-5.63-4.62-8.27-5.18c-2.44-.51-6.43-1.84-7.22-2.59s-.71-4.1-.71-4.1Z" style="fill:#263238"></path><path d="M93.31,384.32a1.79,1.79,0,0,0-.92,1.15c-.17.93-.17,2.11-.54,3.63a27.1,27.1,0,0,0-.48,8.16c.34,1.71,5.65,3.12,8.21,4.06a32.59,32.59,0,0,1,8.29,5.11,23.88,23.88,0,0,0,12.3,4.43c5.78,0,9.5-1.58,10.63-3.67,1.41-2.59.27-4.06-6.4-7.07-1.27-.57-5.71-3.13-7.22-4.06a34.48,34.48,0,0,1-4.56-3.32,27.31,27.31,0,0,1-2.05-2,9.37,9.37,0,0,1-1.7-2.13c-.08-.17-.13-.38-.2-.56a9.45,9.45,0,0,1-.45-1.55c-.11-.55-.19-1.36-.72-1.68a4.33,4.33,0,0,0-2.37-.26,20,20,0,0,0-2.56.39c-1,.23-3.43.08-4,1a4.88,4.88,0,0,0-.52,2.41c0,.39,0,.78,0,1.17,0,.16.07.46-.16.39s-.47-.64-.56-.83c-.19-.43-.31-.9-.52-1.32a3.75,3.75,0,0,0-.84-1.4c-1.11-.92-2.18-.72-2.5-1C93.47,385.35,93.35,384.65,93.31,384.32Z" style="fill:#37474f"></path><path d="M125.47,400.62c-8.36.66-10.93,5.86-11.25,9.06a19.57,19.57,0,0,0,6,1.18c5.78,0,9.74-1.58,10.87-3.67C132.36,404.75,131.43,402.81,125.47,400.62Z" style="fill:#fafafa"></path><path d="M112.94,400.84a.39.39,0,0,1-.26-.09.41.41,0,0,1-.07-.58,9.86,9.86,0,0,1,7.53-3.06.41.41,0,0,1,.37.45.4.4,0,0,1-.45.36,9.11,9.11,0,0,0-6.81,2.76A.41.41,0,0,1,112.94,400.84Z" style="fill:#f0f0f0"></path><path d="M109.31,398.78a.43.43,0,0,1-.26-.09.41.41,0,0,1-.06-.58,9.82,9.82,0,0,1,7.53-3.06.41.41,0,1,1-.08.81,9.15,9.15,0,0,0-6.82,2.76A.38.38,0,0,1,109.31,398.78Z" style="fill:#f0f0f0"></path><path d="M106,396.42a.42.42,0,0,1-.33-.67,9.84,9.84,0,0,1,7.53-3.06.4.4,0,0,1,.37.44.4.4,0,0,1-.44.37,9.13,9.13,0,0,0-6.82,2.76A.43.43,0,0,1,106,396.42Z" style="fill:#f0f0f0"></path><path d="M102.65,394.05a.38.38,0,0,1-.25-.08.42.42,0,0,1-.08-.58c1.58-2,5.19-3.41,8.23-3.11a.41.41,0,0,1,.37.45.42.42,0,0,1-.45.37c-2.74-.27-6.1,1-7.5,2.8A.41.41,0,0,1,102.65,394.05Z" style="fill:#f0f0f0"></path><path d="M52.39,413.15c-.66,3.89-1.55,6.42-3.2,8.57s-4.34,2.57-6.92,1.6-5.78-3.14-6.17-6.6-.57-5.83.43-9.39Z" style="fill:#263238"></path><path d="M42.88,383.56c-1.11,0-1.39,5.19-2.61,10.38-1.3,5.57-2.36,7.72-3.48,12.28-1.27,5.21-.66,7.66.84,11.07s7.71,7.26,11.44,3c3-3.44,3.62-7.57,4-12.87a77.29,77.29,0,0,1,2.2-13.16c.93-4.22,1.94-8,1-8.58a37.91,37.91,0,0,1-1.12,4.19c-.15.29-.65,1-.7-.15,0-.33.17-1.08.18-1.4a1.4,1.4,0,0,0-.85-1.38,10.6,10.6,0,0,0-4.55-1.54c-2.13-.25-4-.52-5.23,0-.76.28-.82,1-1,1.63s-.25,1.27-.43,1.09C42.25,387.76,42.93,384.14,42.88,383.56Z" style="fill:#37474f"></path><path d="M36.15,409.25a13.2,13.2,0,0,0,1.16,8.25c1.49,3.41,8.23,7.34,12,3.12,1.86-2.1,2.59-4.75,3.11-7.47C50.85,409.41,39.54,406.58,36.15,409.25Z" style="fill:#fafafa"></path><path d="M50.64,407.14l-.13-.05A18.68,18.68,0,0,0,40.59,405a.41.41,0,0,1-.45-.36.4.4,0,0,1,.36-.45A19.31,19.31,0,0,1,51,406.39a.42.42,0,0,1,.13.57A.43.43,0,0,1,50.64,407.14Z" style="fill:#f0f0f0"></path><path d="M41.27,401.09a.4.4,0,0,1-.31-.31.41.41,0,0,1,.31-.49c5.09-1.12,10.25,2,10.45,2.11a.41.41,0,1,1-.46.68s-5.08-3-9.81-2A.54.54,0,0,1,41.27,401.09Z" style="fill:#f0f0f0"></path><path d="M41.86,397.39a.38.38,0,0,1-.31-.3.4.4,0,0,1,.3-.49c5.6-1.34,10.47,2,10.65,2.1a.4.4,0,0,1,.07.57.41.41,0,0,1-.57.08s-4.74-3.2-10-2A.28.28,0,0,1,41.86,397.39Z" style="fill:#f0f0f0"></path><path d="M42.53,393.77a.41.41,0,0,1-.31-.3.42.42,0,0,1,.3-.5c5.26-1.33,10.51,2.08,10.7,2.22a.4.4,0,0,1,.09.57.4.4,0,0,1-.57.09s-5.14-3.32-10-2.09A.41.41,0,0,1,42.53,393.77Z" style="fill:#ebebeb"></path><path d="M55.29,241c-1.6,11.62-2.1,14.48-3.84,40.38-1.68,25.11-1.82,28.79-2.07,31.82-.57,6.93-3.64,9.33-4.54,25.7-.82,15-1.32,33.51-1.32,33.51s2,2.77,7.74,3.29c5.27.47,7.91-1.51,7.91-1.51s9.77-35,12.5-43.78c3.7-11.95,8.9-32.93,8.9-32.93l3.45,24a86.26,86.26,0,0,0,1.12,22.36C87.9,357.33,90.73,372,90.73,372a17.94,17.94,0,0,0,7.94,1c6.17-.62,8.23-2.06,8.23-2.06s1.73-40.67,1.73-55.53-.18-51.22-1-74.34Z" style="fill:#455a64"></path><path d="M80.57,297.5l4.28-26s8.6-2.27,14.13-8.05c-.41,4.31-8.06,9.83-11.65,10.69l-4.78,23L84,321.51Z" style="fill:#37474f"></path><path d="M70.58,245.05a35.44,35.44,0,0,0-3.22,6.82,67.23,67.23,0,0,0-2.15,7.22,74.79,74.79,0,0,0-1.36,7.41,49.75,49.75,0,0,0-.5,7.52c.6-2.45,1.16-4.87,1.72-7.3s1.09-4.85,1.68-7.26,1.17-4.82,1.78-7.23S69.83,247.45,70.58,245.05Z" style="fill:#37474f"></path><path d="M67.3,246a26.77,26.77,0,0,0-3.4,3.82,35.6,35.6,0,0,0-2.76,4.29,32.65,32.65,0,0,0-2.1,4.67,20.12,20.12,0,0,0-1.15,5l2.29-4.5c.77-1.48,1.54-3,2.35-4.4s1.61-2.92,2.41-4.39S66.56,247.5,67.3,246Z" style="fill:#37474f"></path><path d="M72.76,276c-1.08,7.79-2.06,15.59-3,23.38s-2.88,16.39-4.31,24.08-10.53,37.85-11.72,45.62c1.8-7.66,11.76-37.59,13.27-45.33s3.23-16.4,4-24.23S72.29,283.86,72.76,276Z" style="fill:#37474f"></path><path d="M100.73,276l1.28,20.5c.19,3.41.41,6.82.57,10.23s.36,6.84.3,10.21-.28,36.1.18,42.95c.8-7.63,1.17-36,1.4-42.93,0-6.92-.61-13.73-1.22-20.56S101.79,282.78,100.73,276Z" style="fill:#37474f"></path><path d="M90.09,368.67l1.16,7.12s2.85,1.82,8.84,1.2,6.85-2.55,6.85-2.55v-6.7s-1.44,1.39-6.91,2A23.66,23.66,0,0,1,90.09,368.67Z" style="fill:#37474f"></path><path d="M43.65,367.47l-.53,7.19s2.35,2.44,8.31,3.23,7.26-.89,7.26-.89l1.56-6.51s-1.72,1-7.18.34A23.53,23.53,0,0,1,43.65,367.47Z" style="fill:#37474f"></path></g><g id="freepik--Top--inject-44"><path d="M98.36,182.85c8.67,1.75,11.8,4.26,16.66,12.37,3.59,6,5.77,9.88,11.61,18.33l18.28,2-3.68,13.19s-11.26.36-17.63.86c-4.77.38-5.86,0-8.83-3.57-6.13-7.37-13.51-17.86-13.51-17.86Z" style="fill:#e0e0e0"></path><g id="freepik--Chest--inject-44"><path id="freepik--chest--inject-44" d="M71.61,180.88c-3.34.54-12.5,3.09-18,4.8,0,0-2.86,7.64.68,34.16.45,3.41.37,11.58.24,17.5s-.77,12.41-1.39,18.56c0,0,10.2,5.79,33.57,3.4,18.36-1.88,21.3-6.41,21.3-6.41s.14-25.06.39-38.64c.29-16.39-5.92-26.9-10.07-31.4C93.51,181.42,85.52,181,85.52,181Z" style="fill:#f0f0f0"></path><path d="M54.47,185.41c-7,1.39-7.64,2.83-10.85,10-2.34,5.23-8.12,18.78-9.46,28.65-.51,3.71.53,8.63,2.54,10.86,4.62,5.12,15.77-14,15.77-14L61.67,206S61.42,187.3,54.47,185.41Z" style="fill:#e0e0e0"></path></g><g id="freepik--Head--inject-44"><path d="M97.32,153.67c1.87-4.63-.25-10.65-2.71-13.43-3.56-4-9-5.66-17-4.93-6.14.55-13.43,3.49-14.41,9.84-5.61,3-3.37,10.89-1.76,14.18,3.38,6.9,8.06,12.24,8.25,15.95Z" style="fill:#263238"></path><path d="M97.4,171.22a10.45,10.45,0,0,1-7.51,6.49,20.39,20.39,0,0,1-3.28.35l.25,4.1c2.64,1.82,3.08,8.55.74,10.68a34,34,0,0,1-18-9.3l-.41-15.08s-1.93,2.31-5.26.27c-2.28-1.41-4.39-5.35-2.46-8.68A4.22,4.22,0,0,1,68,159c1,1,1.57,2.86,2.39,2.57a3,3,0,0,0,2-2.11,18.36,18.36,0,0,0,.88-6.67,8.69,8.69,0,0,0,2.48-2,8.24,8.24,0,0,0,2.07-5.13c6.95-2.39,15-1.58,18,.59,1.76,2.91,2,9.78,2.39,13.73C98.62,164.22,98.57,167.79,97.4,171.22Z" style="fill:#ffbda7"></path><path d="M83.74,159.06a1.42,1.42,0,0,1-1.46,1.37,1.41,1.41,0,1,1,1.46-1.37Z" style="fill:#263238"></path><path d="M94.69,157.86a1.42,1.42,0,1,1-2.83-.09,1.42,1.42,0,0,1,2.83.09Z" style="fill:#263238"></path><path d="M86.61,178.06c-3.59-.1-10.85-1.58-12.83-3.53s-2.91-6-2.91-6,.43,5.17,2,7.41,5.33,3.13,7.63,3.64a56.53,56.53,0,0,0,6.26.77Z" style="fill:#f0997a"></path><polygon points="86.94 155.94 87.98 165.89 92.87 164.04 86.94 155.94" style="fill:#f0997a"></polygon><path d="M83.74,169.16a1.56,1.56,0,1,0,1.53-1.6A1.56,1.56,0,0,0,83.74,169.16Z" style="fill:#b16668"></path><path d="M86.36,170.27a1.59,1.59,0,0,1-1,.42,1.56,1.56,0,0,1-1.59-1.53,1.46,1.46,0,0,1,.2-.78A4.73,4.73,0,0,1,86.36,170.27Z" style="fill:#f28f8f"></path><path d="M92.31,153.61l3.26,1.4a1.87,1.87,0,0,0-1-2.39A1.73,1.73,0,0,0,92.31,153.61Z" style="fill:#263238"></path><path d="M82.31,154.38,79,155.74a1.86,1.86,0,0,1,1-2.37A1.73,1.73,0,0,1,82.31,154.38Z" style="fill:#263238"></path><path d="M92.07,138l-15.79,7.2c-11.84,5.47-8.63,14.63-6,16.39a13.26,13.26,0,0,0,7.31-14.45c1.47,3.22,6.48,5.61,9.36,5.74-1.42-1.52-1.09-4.15-1.09-4.15s1.41,1.53,6,2c5.43.56,8.5-1.85,8.5-1.85S98,140.89,92.07,138Z" style="fill:#263238"></path></g><g id="freepik--Tie--inject-44"><path d="M89.79,194.42S92,188.78,91.91,187l-3.13-2.82-.32,7.93Z" style="fill:#407BFF"></path><path d="M89.79,194.42S92,188.78,91.91,187l-3.13-2.82-.32,7.93Z" style="opacity:0.2"></path><polygon points="85.81 192.2 80.58 189.14 76.61 192.22 84.54 195.62 85.81 192.2" style="fill:#407BFF"></polygon><polygon points="85.81 192.2 80.58 189.14 76.61 192.22 84.54 195.62 85.81 192.2" style="opacity:0.2"></polygon><path d="M84.15,230.52c.63-16.12,2.24-28.33,2-32.25L88.9,198c1.83,4.73,7.72,18.8,7.42,29.94.08,3.89-2.49,12.65-5.11,12.7S84.06,232.89,84.15,230.52Z" style="fill:#407BFF"></path><path d="M84.15,230.52c.63-16.12,2.24-28.33,2-32.25L88.9,198c1.83,4.73,7.72,18.8,7.42,29.94.08,3.89-2.49,12.65-5.11,12.7S84.06,232.89,84.15,230.52Z" style="fill:#fff;opacity:0.1"></path><path d="M89.13,198.64c-.1-.25-.16-.42-.23-.6h0l-2.74.23h0c0,.33,0,.66,0,1.18A4.82,4.82,0,0,0,89.13,198.64Z" style="opacity:0.2"></path><path d="M85.7,192.15a18,18,0,0,1,2.76-.17,6.3,6.3,0,0,1,1.47,2.13,9.37,9.37,0,0,1-1,3.93,3.34,3.34,0,0,1-2.75.23,5.75,5.75,0,0,1-1.93-2.67A4.88,4.88,0,0,1,85.7,192.15Z" style="fill:#407BFF"></path><path d="M85.7,192.15a18,18,0,0,1,2.76-.17,6.3,6.3,0,0,1,1.47,2.13,9.37,9.37,0,0,1-1,3.93,3.34,3.34,0,0,1-2.75.23,5.75,5.75,0,0,1-1.93-2.67A4.88,4.88,0,0,1,85.7,192.15Z" style="fill:#fff;opacity:0.1"></path><path d="M86.05,192.1l-.35.05c-2-.91-2.5-1.34-3-1.16-.94.33-3,4.45-3.44,5.78s-.38,1.3-2.21.24c-3.54-2.07-7.82-5.16-9.65-7.48a15.9,15.9,0,0,1-3.05-6.94,24.94,24.94,0,0,0,2.78-2.91c1.31-2,1.39-3,2.3-3.24l0,1.76c.3,1.77,3.09,3.3,5.71,5.3S82,187.3,83,188.16A21.61,21.61,0,0,1,86.05,192.1Z" style="fill:#e6e6e6"></path><path d="M94.91,192.77c-.23.75-2.89-4.8-4-4.61-.54.07-2,2.46-2.43,3.82h-.57a17.3,17.3,0,0,0,.54-4.82c.11-1.95-1.57-5-1.57-5l-.25-4.1c.32,0,.93,0,1.37-.08.31.27.91,1.48,1.49,2.2,1.34,1.66,4.39,4.08,4.89,6.23A18.8,18.8,0,0,1,94.91,192.77Z" style="fill:#e6e6e6"></path></g><g id="freepik--Tablet--inject-44"><polygon points="156.4 198.63 115.37 208.16 99.26 253.92 100.04 254.96 139.14 245.13 157.18 199.67 156.4 198.63" style="fill:#407BFF"></polygon><polygon points="116.14 209.19 100.04 254.96 99.26 253.92 115.37 208.16 116.14 209.19" style="opacity:0.35000000000000003"></polygon><polygon points="157.18 199.67 116.14 209.19 100.04 254.96 139.14 245.13 157.18 199.67" style="opacity:0.25"></polygon><g style="opacity:0.1"><path d="M144.21,208s.23-.69.5-1.54-2.09-.65-5.29.45l-7.36,1.36c-3.2,1.1-6.19,1.84-6.47,2.69l-.5,1.54Z"></path></g><path d="M147.35,201.1c.18-.53-.74-.52-2-.33l-2.36.52s1.18-2.18-4.37-1.32c-6.1.95-6.55,3.89-6.55,3.89a29.06,29.06,0,0,1-3,.72c-2,.42-2.3.78-2.52,1.31l-.4,1L147.07,202S147.18,201.63,147.35,201.1Z" style="fill:#37474f"></path><path d="M144.9,203.89c-2,.63-2.78,1-3.21,2.27-.48,1.5-.62,2.13-.62,2.13l-10.94,3s.82-2.19,1-2.93-1.16-.89-3.07-.26l.64-1.83,17-4.24Z" style="fill:#37474f"></path><path d="M144.75,208.05s.22-.69.5-1.54-2.09-.65-5.29.44l-7.36,1.37c-3.2,1.09-6.19,1.84-6.47,2.69l-.5,1.54Z" style="fill:#37474f"></path><path d="M151.41,220.71c1.4-1.54,1.32-1.77.77-2.71a5.36,5.36,0,0,0-4.06-2.72,11.05,11.05,0,0,0-3.78,0c-.81.3-.35,2,1.53,2.64,3,1,2.84,1.86,2.84,1.86a39.47,39.47,0,0,0-3.84-1.15,29.46,29.46,0,0,0-4.54.15c-1.3.06-1.75,1.68.36,2.5l-2.39.1c-1.68.07-2.34.88-1.17,2a2.39,2.39,0,0,0,1.42.73s-1.75-.2-1.85.37c-.3,1.66.73,2.23,4.15,3.67,2.68,1.13,3.67,2.7,3.48,3.87l-.27.67s1.16-.73,2.47-1.42c1-.51,1.79-1.11,1.55-2.54,0,0,1.92.26,2.18-.91a6.19,6.19,0,0,0-.16-2.61,2.13,2.13,0,0,0,1.29-1.86,3.4,3.4,0,0,0-.46-2.17Z" style="fill:#ffbda7"></path><path d="M140.69,221.26a11.16,11.16,0,0,1,2.16,0,7,7,0,0,1,2,.9,25.33,25.33,0,0,1,3.49,2.43,25.87,25.87,0,0,1-3.8-1.89,12.1,12.1,0,0,0-1.79-1C142.1,221.57,141.36,221.48,140.69,221.26Z" style="fill:#f0997a"></path><path d="M138.55,224.14a4.71,4.71,0,0,1,2.32.21,11.15,11.15,0,0,1,2.11,1,21.18,21.18,0,0,1,3.77,2.62,43.21,43.21,0,0,1-4.07-2.08A12.16,12.16,0,0,0,138.55,224.14Z" style="fill:#f0997a"></path></g><g id="freepik--Hand--inject-44"><path d="M57.45,194.74a21.38,21.38,0,0,0,4-7.44c.83-3.16,3.38-6.05,4.25-7.24s2.73-2.94,4.16-4.61,1.84-2.13,3.87-2.45c2.78-.43,5-.84,6-.49s1,1.06.09,2-3,1.15-3.57,1.33-2,.75-2,.75l-2.62,3.75a37,37,0,0,1,5.19,1.34c.85.47,1.55,2.69,1.16,3.91a2.35,2.35,0,0,1,.93,2.67s1,1.28.28,2.32a17.45,17.45,0,0,1-2.63,2.84A7.13,7.13,0,0,1,74,194a19.08,19.08,0,0,1-3.34,3.76c-1.51,1.09-2.49,1-4.16,3.3Z" style="fill:#ffbda7"></path><path d="M73.61,180.76c1-.43,1.28-1.12,2.25-.74s.58,1.49.58,1.49Z" style="fill:#f0997a"></path><path d="M78,185.69a10,10,0,0,0-2.1-1.39c-.71-.36-2.19-.91-2.19-.91a10.69,10.69,0,0,1,3,.76,8.37,8.37,0,0,1,1.42.74,2.64,2.64,0,0,1-.11.71Z" style="fill:#f0997a"></path><path d="M78.1,187.16a7.85,7.85,0,0,1,1,.52,2.68,2.68,0,0,1-.18.7,8.6,8.6,0,0,0-2.71-1.74A8.9,8.9,0,0,1,78.1,187.16Z" style="fill:#f0997a"></path><path d="M73.55,194.53a21.2,21.2,0,0,1,2.17-3.4,1.57,1.57,0,0,1,2.13-.17c.27.42-1.14.35-1.56.52A13.57,13.57,0,0,0,73.55,194.53Z" style="fill:#f0997a"></path><path d="M70.47,180.22s.81-1.12,2.26-2.89,1.36-1.51,2.75-1.76,4-.69,4.75-1.51a4,4,0,0,1-.4.46c-.93.92-3,1.15-3.57,1.33s-2,.75-2,.75l-2.7,3.85Z" style="fill:#f0997a"></path><path d="M57.45,194.74C52.72,200.3,40,213.63,37,219c-2.06,3.69-2.68,12.33-.68,15.5S44.21,236.4,49,232.3c4.14-3.54,7.67-12.14,10.73-18.25s6.71-13,6.71-13Z" style="fill:#ffbda7"></path><path d="M57.45,194.74a28.88,28.88,0,0,0,2.84-4.5,15.44,15.44,0,0,0,.94-2.48,14.53,14.53,0,0,1,.89-2.52,24.27,24.27,0,0,1,2.9-4.47,38.18,38.18,0,0,1,3.5-4c.61-.64,1.19-1.31,1.77-2a4.61,4.61,0,0,1,2.15-1.59,22.29,22.29,0,0,1,2.64-.5c.87-.14,1.75-.28,2.64-.36a8.7,8.7,0,0,1,1.35,0,2.3,2.3,0,0,1,1.32.44.77.77,0,0,1,.28.7,1.47,1.47,0,0,1-.29.66,3.24,3.24,0,0,1-1,1,8.48,8.48,0,0,1-2.56.85,13.56,13.56,0,0,0-2.49.85l.06,0-2.63,3.74-.08-.19a45.34,45.34,0,0,1,4.7,1.15,2.42,2.42,0,0,1,.58.25,1.75,1.75,0,0,1,.45.45,4.23,4.23,0,0,1,.54,1.11,4.31,4.31,0,0,1,.15,2.44l0-.12a3.15,3.15,0,0,1,1,1.23,2.12,2.12,0,0,1,.15.78,2.09,2.09,0,0,1-.16.78v-.09a2.36,2.36,0,0,1,.38,2.23A10.46,10.46,0,0,1,78,192.23c-.26.27-.53.54-.81.8a2.56,2.56,0,0,1-.94.67A9.65,9.65,0,0,1,74,194l.06,0c-.5.71-1,1.4-1.61,2.06a10,10,0,0,1-1.9,1.78c-.71.51-1.53.82-2.24,1.33A8.36,8.36,0,0,0,66.45,201a8.19,8.19,0,0,1,1.79-1.88c.7-.52,1.52-.85,2.22-1.36a9.9,9.9,0,0,0,1.86-1.8c.56-.66,1.08-1.35,1.57-2.06l0,0h0a9.6,9.6,0,0,0,2.21-.34,2.4,2.4,0,0,0,.88-.65c.28-.26.54-.52.8-.8a9.63,9.63,0,0,0,1.4-1.74,2.16,2.16,0,0,0-.37-2.05l0,0,0-.05a2,2,0,0,0,.14-.71,1.76,1.76,0,0,0-.14-.71,2.86,2.86,0,0,0-.91-1.13l-.06,0,0-.07a4.06,4.06,0,0,0-.16-2.31c-.26-.73-.63-1.51-1.44-1.67a46.65,46.65,0,0,0-4.67-1.12l-.19,0,.11-.15,2.61-3.76,0,0,0,0a14.27,14.27,0,0,1,2.53-.88,8.29,8.29,0,0,0,2.48-.8,3.08,3.08,0,0,0,.93-.87c.25-.33.38-.77,0-1a3.69,3.69,0,0,0-2.48-.35c-.87.08-1.75.21-2.63.35a20.21,20.21,0,0,0-2.6.48,4.37,4.37,0,0,0-2.07,1.52c-.58.66-1.16,1.34-1.78,2a36.84,36.84,0,0,0-3.51,4,24.36,24.36,0,0,0-2.91,4.43,13.74,13.74,0,0,0-.91,2.49,15.23,15.23,0,0,1-1,2.48A28.75,28.75,0,0,1,57.45,194.74Z" style="fill:#f0997a"></path></g></g></g></g><g id="freepik--character-1--inject-44"><g id="freepik--Character--inject-44"><g id="freepik--bottom--inject-44"><path d="M458.17,334.42c.74,2,1.87,4.34,3.21,8.53s.43,4.52,5.06,14.81c2.78,6.17,2.91,8.79-.13,14.9-3.24,6.53-7.85,6.1-11.82.12-3.4-5.12-3.68-7.71-4.66-13.43s-1.31-7.38-2.34-11.88c-.9-4-1-6.75-1.8-9.77Z" style="fill:#37474f"></path><path d="M465.92,360.75c-.55-3-2.51-6.81-3.8-10.87-1.73-5.41-2.88-11.13-3.8-14.83-.05-.19-.1-.4-.15-.6-1.36-5.8-3.3-23.67-6.11-40.74-2.43-14.8-5.68-18.5-7.1-21.67,0,0-1.13-14.83-2.75-44.67-1-19-7.74-26.17-9.08-31.15l-40.68.35c-.33,5.7-1.69,13.57-2.06,21.19-1,19.93.11,43.27.6,57.77.12,3.7.61,12.31,1.18,21.54h0c.84,18.5,1.79,33.43,1.16,38s-.9,6.16-2.08,9.37-3.15,7.51-4.91,9.58c0,0-5.07,5.4-3.94,6s11.74,1.68,16.49.25,5.25-5.47,6.87-12.83,3-18.1,3-18.1-.13-.31-.49-1.25c-.44-1.17,1.21-8,2-13h0c1.39-7.24,2.84-15.19,3.32-19,1.47-11.67-1.29-18.39-1.29-18.39l4.81-28.62s2.16,15.86,5.45,27.49c1.46,5.17,7.58,22.31,7.58,22.31,1.54,4.8,11.18,26.08,15.59,39.16,0,0,3.92,18.11,6.45,25.94a1.56,1.56,0,0,0,2.36.83,14.19,14.19,0,0,1,9.53-2.24A1.56,1.56,0,0,0,465.92,360.75Z" style="fill:#ffa8a7"></path><path d="M417.15,249.08l-4.86-23.51s-12.13-.8-16.74-4.94c0,0,6,7.82,14.2,8.67l4.36,17.27-1.75,30.88Z" style="fill:#f28f8f"></path><path d="M413.5,340.31c-.32,1.72-1.79,3.67-2.45,6.34a47.69,47.69,0,0,0-1.39,9.3l-.24,4.38-1.19-.06s.31-5.55.44-8,0-4.22-1.16-4.54C407.51,347.75,407.74,340,413.5,340.31Z" style="fill:#263238"></path><path d="M408.58,328.34c.77,2,3.35,4.88,4.46,6.82a7.34,7.34,0,0,1,.91,3.33,3.54,3.54,0,0,1-1.05,2.61,39.45,39.45,0,0,0-3.69,4.08c-1.46,1.95-4.18,6.5-4.94,9.71s-1.19,6.05-3.95,7.64c-2.15,1.24-11,3-15.44,3.26-6.1.39-7.68-2.54-5.4-4.89s6.16-6.35,6.86-6.85a11,11,0,0,1,5.66.79c3.42,1.47,4.51,3.46,8.09,1.67,3.25-1.62,4.54-7.63,4.27-16.26C404.05,330.44,408.58,328.34,408.58,328.34Z" style="fill:#37474f"></path><path d="M392.28,196.22c-.27,2.93-.78,8.06-1.19,11.19s-.95,8.46-1.19,13.22-.34,14.69-.34,20.77c0,13.48.25,32.66.51,37.33s.85,9.43.85,9.43,25.47,8,49.62,0c-1.37-11.14-2.07-22.38-2.07-22.38s3.51,13.56,6.13,20.82c2.39-1.38,6.4-4.32,6.4-4.32s-2.07-5.67-3.75-10.39c-2.13-6-2.05-13.89-2.84-24.65s0-27.15-5.92-40.78l-4.79-10.57Z" style="fill:#263238"></path></g><g id="freepik--top--inject-44"><path d="M322.71,132.74c-1-.33-1.28.61-.74,1.4,1.3,1.87,4.07,2.08,5.3,2.93.28.25,3.56,4,3.55,5-1-.57-3.93-2.62-4.94-3.14-.29-.15-1.14-.41-3.76-1.19a3.74,3.74,0,0,0-1.38-.28c-.33.06-.74.7-.23,1.44.92,1.32,2.85,1.48,4.26,2.24.7.34,2.84,1.57,3.35,3.1-2.13-.88-3.56-.95-7-1-.4,0-.49.19-.5.45a1.42,1.42,0,0,0,.64,1.1c.89.6,2.25.54,3.72.91a9.62,9.62,0,0,1,4,2.35,4.11,4.11,0,0,1,1,1.39,20.63,20.63,0,0,1,.63,2.07,7.22,7.22,0,0,0,6.47,4.85,1,1,0,0,0,.55-.09,1.1,1.1,0,0,0,.38-.88c.23-3.25-1-6.4-1.84-9.55-.27-1-2.46-8.8-2.59-9.07-.06-.12-7.59-3-7.83-3.09C325,133.51,323.66,133.05,322.71,132.74Z" style="fill:#f28f8f"></path><path d="M384.88,155.25c-2.52,1-22.2,8.75-22.2,8.75s-14.29-9.26-17.18-11.45c-4-3-5-6.24-5.87-9.07-1.27-4-1.87-4.33-3.57-5.73-1.06-.87-3.39-3.27-3.48-3.35a3.67,3.67,0,0,0-1.28-.64c-.23-.1-1.23-.45-1.48-.54-1.39-.49-2.27-.72-3.66-1.22a6.7,6.7,0,0,0-1.31-.36.57.57,0,0,0-.29,0,.5.5,0,0,0-.17.5,3.26,3.26,0,0,0,1.39,2.21,11.38,11.38,0,0,0,2.39,1.2c.51.21.8.29,1.82.72a2.54,2.54,0,0,1,1,.87,30.67,30.67,0,0,1,3.57,5.34,10.74,10.74,0,0,1-4.59-3.26c-1.11-1.4-2.45.09-1.51,2.24,1.09,2.48,3.09,3,4.46,6.35s-1.5,6.06,2.23,9a35.68,35.68,0,0,1,6.13,4.89c3.16,3.4,13,14,15.23,15.79,4.86,3.95,5.46,3.62,17.26-.47,16.65-5.77,19.59-7.17,19.59-7.17l6.21-18.8C395.08,151.5,393.37,152,384.88,155.25Z" style="fill:#ffa8a7"></path><path d="M399.58,150.18c-2.18.34-2.75.48-11.12,3.58s-25.68,9.87-25.68,9.87l-4.86-3.16a11.09,11.09,0,0,1-2.52,5.93,19.6,19.6,0,0,1-5.48,4.79s.31.33,4.3,4.4,5.91,4.69,7.33,5.08,3.27-.41,7-1.55S394,170.27,394,170.27Z" style="fill:#37474f"></path><path d="M334.57,142.5a13,13,0,0,1,2.73,2c.29.32.3-.71-1-1.94s-2.5-1.26-2.78-1.79Z" style="fill:#f28f8f"></path><path d="M385.2,190.34c0,16-.29,21.28-.29,21.28,19.12-8.07,38.47-.61,58.12,4.52,0,0-3.34-13.44-6.84-20.25s-2.7-9.38-2-12.49,3.24-15.14.27-24.86H392.16a27.61,27.61,0,0,0-6.08,14.05A146.18,146.18,0,0,0,385.2,190.34Z" style="fill:#37474f"></path><g id="freepik--chest--inject-44"><path d="M430.65,151.65a87.11,87.11,0,0,0-10.23-1.91s-5.11-.19-10.72,0-6.84.31-8.34.46c0,0-4.69,2-10.31,10.3-4.4,6.5-5.64,9-5.47,13.29.19,4.86,4.68,8,4.68,8,.38,4.28.7,10.42.81,12.38-.17,5.21-1.26,11.64-1.66,15.22,3.63,12.76,35,13.6,41.24-2.46,4.16,7.84,10.39,8.8,11.9,8.8-.54-1.75-1.36-8.34-3.68-14-2.15-5.21-5.15-10-5.11-13.52,0-1.8,1.43-6.66,2.07-11.36C438.06,160.72,434.75,153.51,430.65,151.65Z" style="fill:#407BFF"></path><path d="M404.44,181.68c5.42,3.34,14.81,2.06,17.94-5.33-.66,3.56-2.32,7.34-7.12,8.58C409.22,186.49,405,182.82,404.44,181.68Z" style="opacity:0.15"></path></g><path d="M405.38,149.88s-5.8,3.71-11.72,12.39c-5,7.29-7,13.82-8.46,28.07.05-10.58-.86-15.93.29-21.44s7.2-14,14.09-18.72l5.8-1.31Z" style="fill:#455a64"></path><path d="M390.64,167.34c1.42-5.13,6-11.86,9-15.69a22.87,22.87,0,0,1,5.74-5.09v3.32S397.61,155.39,390.64,167.34Z" style="fill:#37474f"></path><g id="freepik--head--inject-44"><path d="M387.76,129.77c-.45-1.63-2.27-1.83-2.6-4s.86-3.63,2.67-4.55,2.22-2.68,1.95-6.34,2.39-5.77,5.4-6.14c1.49-.18,3.21,0,4.27-1A7.58,7.58,0,0,0,400.5,106c1.49-2.61,4.18-3.69,7.74-3.58a12,12,0,0,1,4.63,1,12.25,12.25,0,0,1,4.43,3.11c2-.26,5.62.26,7.56,2.06A8,8,0,0,1,428,114c.29,2.17.33,3.22,1.23,4.42,1.83,2.44,3.24,2.73,3.84,4.93,1,3.69-2.06,4.78-.23,8.3a4.69,4.69,0,0,1-3.54,7c-2.2.26-3.69.93-4.66,2.9a4.82,4.82,0,0,1-4,3c-4.1.85-3.9-2.79-5.91-3.08-2.74-.39-3.81,1.63-6.47-.18-.92-.62-1.45-1.7-2.37-2.31-2.94-1.86-3.93-.92-7.57.28-.95.32-4.09,1.11-6.16-1.3a8.16,8.16,0,0,1-1.7-5.55c-.66,2-5.22,1.82-5.6-1.36A1.59,1.59,0,0,0,387.76,129.77Z" style="fill:#263238"></path><path d="M422.38,135.38a3.65,3.65,0,0,0,4.21-1.52c2-2.6,2.39-5.44,1.13-7.24-1.13-1.62-3-1.65-4.7-.77a4.2,4.2,0,0,0-2.2,2.94c-.51,2-3.6,2.22-2.75-1.88-2.35-.58-2.78-3.63-2.67-5,.25-3-.35-4.58-2.06-5.89-2.07-1.59-4.14,1.26-8.82,1.35-3.3.07-4.43-3-6.51-1.83-1.49.87-3.31,4.1-3.54,12.27-.25,9,1.39,13.88,4.18,16.05a10.77,10.77,0,0,0,6.73,1.68V151c-2.85,3.55-5.8,8.71-5,13.61,10.26-3.95,16.36-8.14,20.25-14.3l0-16.79A2.46,2.46,0,0,0,422.38,135.38Z" style="fill:#ffa8a7"></path><path d="M397.33,126.54a1.41,1.41,0,1,0,1.59-1.18A1.4,1.4,0,0,0,397.33,126.54Z" style="fill:#263238"></path><path d="M396.66,123.33l3.43-1.5a1.79,1.79,0,0,0-2.41-1A2,2,0,0,0,396.66,123.33Z" style="fill:#263238"></path><path d="M408.16,127.2a1.4,1.4,0,1,0,1.27-1.53A1.4,1.4,0,0,0,408.16,127.2Z" style="fill:#263238"></path><path d="M409.18,122.65l3.3,1.76a1.79,1.79,0,0,0-.7-2.51A2,2,0,0,0,409.18,122.65Z" style="fill:#263238"></path><path d="M408.18,135.23l-4.87,1.65a2.57,2.57,0,0,0,3.49,1.52A2.41,2.41,0,0,0,408.18,135.23Z" style="fill:#b16668"></path><path d="M405.4,138.57a2.68,2.68,0,0,1,2.67-2.44l.25,0a2.27,2.27,0,0,1-1.52,2.25A3,3,0,0,1,405.4,138.57Z" style="fill:#f28f8f"></path><polygon points="405.35 123.86 404.61 133.59 399.33 131.69 405.35 123.86" style="fill:#f28f8f"></polygon><path d="M405.38,145.58c3.13-.27,7-1.17,9.29-2.58a8.62,8.62,0,0,0,4-5.64,8.35,8.35,0,0,1-3.44,7.26c-3.42,2.64-9.81,3.17-9.81,3.17Z" style="fill:#f28f8f"></path></g><path d="M420.64,148.87a15.77,15.77,0,0,1-2.43,4.51c-1.88,2.56-6.17,13.65-5.77,21.35,1.62,31.33,5,51,5,51s14.94-2,25.59-9.59a70.5,70.5,0,0,0-5.8-18.86c-2.87-6-3.45-8.44-2.63-12s2.63-12.91,2.39-18.67-.47-12.7-7-15.65C426.86,150.32,420.64,148.87,420.64,148.87Z" style="fill:#455a64"></path><path d="M412.74,169.59c.67-3.54,6.33-13,8.65-15.73a48.54,48.54,0,0,1,3.69-4l-4.45-4v1.48s-1.92,3.4-3.91,7.38S412.74,169.59,412.74,169.59Z" style="fill:#37474f"></path></g><g id="freepik--Glass--inject-44"><path d="M398.88,243.21c-.05,0-.12-.06-.17-.1L319.15,191h0c-1.51-.89-2.42-2.77-2.38-5.42.09-5.31,4-11.72,8.68-14.31,2.36-1.3,4.47-1.4,6-.51h0l84.4,44.09.17.1a2.64,2.64,0,0,0,.29.15A16.28,16.28,0,0,1,422,237.64a16.83,16.83,0,0,1-22.86,5.74Z" style="fill:#407BFF"></path><path d="M325.45,171.28c4.71-2.6,8.45-.4,8.36,4.9s-4,11.72-8.68,14.32-8.45.4-8.36-4.91S320.75,173.87,325.45,171.28Z" style="opacity:0.25"></path><path d="M406.77,221.61l-74-40.36a15.2,15.2,0,0,0,1.09-5.06c0-2.64-.84-4.51-2.35-5.41l84.37,44.08.17.1a2.64,2.64,0,0,0,.29.15A16.28,16.28,0,0,1,422,237.64C423.53,232.59,416.47,227,406.77,221.61Z" style="opacity:0.1"></path><path d="M292,167.17a11.13,11.13,0,0,1,5.25-8.65,3.61,3.61,0,0,1,3.61-.31h0L329,174.76h0a3.47,3.47,0,0,1,1.44,3.27,11.14,11.14,0,0,1-5.25,8.66,3.66,3.66,0,0,1-3.61.31l-28.17-16.56h0A3.49,3.49,0,0,1,292,167.17Z" style="fill:#e0e0e0"></path><path d="M316.32,167.31l-10.47-6.16q-2.27,7-5,13.65l10.3,6Q314,174.24,316.32,167.31Z" style="opacity:0.25"></path><path d="M318.24,53.87,300.36,43.64c-13.54-7.81-32.26-6.68-52.94,5.24-41.35,23.88-74.87,81.94-74.87,129.7,0,23.88,8.38,40.64,21.94,48.47l17.83,10.19a38.47,38.47,0,0,0,19.5,5c10.06,0,21.42-3.28,33.44-10.23,41.35-23.86,74.87-81.93,74.87-129.67C340.13,78.47,331.76,61.69,318.24,53.87Zm-95.62,67.06c13.11-22.72,30.37-41,48.59-51.54,9.55-5.51,18.83-8.49,26.89-8.62a31.26,31.26,0,0,1,4.12.18C307.92,68.1,311,79,311,92.8c0,21-7.23,45.14-20.34,67.85s-30.37,41-48.59,51.52c-9.78,5.65-19.29,8.63-27.49,8.63a31.15,31.15,0,0,1-3.52-.19,30.49,30.49,0,0,1-2.82-4.23c-3.9-6.93-6-16.28-6-27.61C202.28,167.73,209.5,143.64,222.62,120.93Z" style="fill:#455a64"></path><path d="M192.12,109l28.14,16.14q1.14-2.11,2.36-4.21a170.06,170.06,0,0,1,13.55-20.07L208,84.67A183.22,183.22,0,0,0,192.12,109ZM226.2,64.68c-3.48,3.2-6.85,6.62-10.1,10.22l28.36,16.28a132.34,132.34,0,0,1,10.41-10.05Z" style="fill:#fff;opacity:0.1"></path><path d="M212.23,237.18l-17.74-10.13c-13.56-7.83-21.94-24.6-21.94-48.47,0-.92,0-1.83.06-2.76L190.43,186c0,.93,0,1.84,0,2.76C190.39,212.58,198.74,229.33,212.23,237.18Z" style="fill:#37474f"></path><path d="M320.34,71.69A25.17,25.17,0,0,0,302.22,61C307.92,68.1,311,79,311,92.8c0,21-7.23,45.14-20.34,67.85s-30.37,41-48.59,51.52c-9.78,5.65-19.29,8.63-27.49,8.63a31.15,31.15,0,0,1-3.52-.19,25.18,25.18,0,0,0,19.18,9.68c.5,0,1,0,1.54,0,8.21,0,17.71-3,27.5-8.63,18.21-10.51,35.46-28.82,48.58-51.53s20.34-46.82,20.34-67.85C328.24,89.26,325.45,78.83,320.34,71.69Z" style="fill:#263238"></path><path d="M265.26,59.09C223.91,83,190.39,141,190.39,188.77s33.52,67.1,74.87,43.23,74.87-81.93,74.87-129.68S306.61,35.22,265.26,59.09ZM259.32,221.7c-9.79,5.65-19.29,8.63-27.5,8.63-10.44,0-18.5-5-23.54-14-3.9-6.93-6-16.28-6-27.61,0-21,7.22-45.13,20.34-67.84s30.37-41,48.59-51.54c9.55-5.52,18.83-8.49,26.9-8.62h.59c18.5,0,29.54,15.54,29.54,41.56,0,21-7.22,45.14-20.34,67.85S277.53,211.18,259.32,221.7Z" style="fill:#37474f"></path><path d="M208.55,121.84a173.25,173.25,0,0,0-15.2,42.54,121,121,0,0,0-2.55,22.44,83.62,83.62,0,0,0,2.46,22.36c1.91,7.23,5,14.28,9.92,20A36,36,0,0,0,222,240.75a47,47,0,0,0,22.33-.34A80.44,80.44,0,0,0,265.26,232a80.7,80.7,0,0,1-20.84,8.84,47.34,47.34,0,0,1-22.57.49,36.61,36.61,0,0,1-19.23-11.7c-5.05-5.76-8.24-12.9-10.22-20.22a84.38,84.38,0,0,1-2.34-22.6,121.24,121.24,0,0,1,2.71-22.55,157,157,0,0,1,6.38-21.78A183.51,183.51,0,0,1,208.55,121.84Z" style="fill:#455a64"></path><path d="M298.7,60.76a28.5,28.5,0,0,1,11,2,25.49,25.49,0,0,1,9.14,6.51,33.83,33.83,0,0,1,5.89,9.62,50,50,0,0,1,3.11,10.85,86.66,86.66,0,0,1,.64,22.52,123.34,123.34,0,0,1-4.18,22.14,147.22,147.22,0,0,1-7.73,21.17A173.79,173.79,0,0,1,306,175.48a155.06,155.06,0,0,1-28.71,34.66,109.06,109.06,0,0,1-18.42,13.13,63.3,63.3,0,0,1-21.35,7.7,34.49,34.49,0,0,1-11.51-.13,26,26,0,0,1-10.6-4.66,25.27,25.27,0,0,1-4.24-4,29.63,29.63,0,0,1-3.35-4.71,41.88,41.88,0,0,1-4.26-10.61,75,75,0,0,1-1.89-22.51,115.75,115.75,0,0,1,3.49-22.24,144,144,0,0,1,7.29-21.25,164.54,164.54,0,0,1,10.2-20,162.24,162.24,0,0,0-16.36,41.49,116.59,116.59,0,0,0-3.12,22,73.24,73.24,0,0,0,2.16,22,40,40,0,0,0,4.2,10.07,26.77,26.77,0,0,0,7.11,8,23.83,23.83,0,0,0,9.77,4.24,32.35,32.35,0,0,0,10.8.06,61.2,61.2,0,0,0,20.55-7.55,107.27,107.27,0,0,0,18-12.92,152.82,152.82,0,0,0,28.45-34,167.77,167.77,0,0,0,18.39-40.44A121.89,121.89,0,0,0,327,112.12a86.21,86.21,0,0,0-.29-22.18,49,49,0,0,0-2.8-10.71,33,33,0,0,0-5.53-9.54,25.09,25.09,0,0,0-8.81-6.59A28.32,28.32,0,0,0,298.7,60.76Z" style="fill:#455a64"></path><path d="M307.32,62a28.46,28.46,0,0,0-8.62-1.27h-.6c-8.06.13-17.34,3.11-26.89,8.62C253,79.92,235.73,98.21,222.62,120.93s-20.34,46.8-20.34,67.84c0,11.33,2.1,20.68,6,27.61a28.57,28.57,0,0,0,6.51,8,28.35,28.35,0,0,0,8.61,1.28c8.21,0,17.71-3,27.5-8.64,18.21-10.51,35.47-28.81,48.58-51.53s20.34-46.81,20.34-67.85C319.82,81.11,315.35,68.79,307.32,62Z" style="fill:#fff;opacity:0.30000000000000004"></path></g><g id="freepik--Arm--inject-44"><path d="M430.65,151.65c7.46,1.51,10.34,8,7.93,16.32-2.11,7.3-12.35,26.19-14,29.26s-3.15,4.29-8.07,7.36-18.24,9.6-22.11,11.6-6.07,4.8-9.65,7.23-9,3.21-11.71,3.21a6.34,6.34,0,0,1-3.83-1.87c-2-.17-2.35-.9-2.33-1.57-1.71,0-2.49-.28-2.07-1.53.89-2.62,5.45-3,9.39-4.6,3.76-1.52,6.55-3.73,5.46-4.08-2.17-.71-5.24,1.13-8.56-.08-1.94-.71-1.9-2.32-1.05-2.44,1.58-.22,4.48-1.76,8.29-2.57,3.46-.73,8.08-.09,10.45-1.56,5.56-3.43,21.91-15.68,21.91-15.68l10.86-25.18S424.12,155.42,430.65,151.65Z" style="fill:#ffa8a7"></path><path d="M405,194.88l5.43-4.48,10.32-24.93s3.5-11.84,9.3-14.42c5.84,1.24,7.51,3.35,8.71,5.84.76,1.56,2.11,6.81-1.21,15.63s-11.07,21.8-12.68,24.92-1.81,3.41-5.42,5.58-6.3,3.52-6.3,3.52C408.77,203.84,405.78,200.14,405,194.88Z" style="fill:#37474f"></path></g></g></g><g id="freepik--speech-bubble--inject-44"><g id="freepik--speech-bubble--inject-44"><g id="freepik--speech-bubble--inject-44"><polygon points="446.75 114.55 451 109.86 448.35 102.2 448.35 97.51 456.46 102.2 456.46 106.89 453.67 110.55 446.75 114.55" style="fill:#407BFF"></polygon><path d="M430.38,54.7a5.39,5.39,0,0,1,2.43-4.21l2-1.15a5.42,5.42,0,0,1,4.87,0l30.4,17.59a5.35,5.35,0,0,1,2.44,4.21v40.17a5.4,5.4,0,0,1-2.44,4.22l-2,1.15a5.42,5.42,0,0,1-4.87,0l-11.84-6.84a13.65,13.65,0,0,1-8,6.24,1.19,1.19,0,0,1-1.36-1.79,11.88,11.88,0,0,0,1.25-9.13l-10.45-6.07a5.34,5.34,0,0,1-2.43-4.21Z" style="fill:#407BFF"></path><path d="M430.38,54.7a5.39,5.39,0,0,1,2.43-4.21l2-1.15a5.42,5.42,0,0,1,4.87,0l30.4,17.59a5.35,5.35,0,0,1,2.44,4.21v40.17a5.4,5.4,0,0,1-2.44,4.22l-2,1.15a5.42,5.42,0,0,1-4.87,0l-11.84-6.84a13.65,13.65,0,0,1-8,6.24,1.19,1.19,0,0,1-1.36-1.79,11.88,11.88,0,0,0,1.25-9.13l-10.45-6.07a5.34,5.34,0,0,1-2.43-4.21Z" style="fill:#fff;opacity:0.30000000000000004"></path><path d="M472.5,111.32a5.35,5.35,0,0,1-2.44,4.21l-2,1.15a5.43,5.43,0,0,1-4.45.19c1.14.44,2-.21,2-1.6V75.1a5,5,0,0,0-.71-2.4l6.85-4a5,5,0,0,1,.72,2.4Z" style="fill:#407BFF"></path><path d="M430.45,54c.29-1,1.23-1.36,2.36-.71l30.4,17.58a5,5,0,0,1,1.72,1.82l6.85-4a5,5,0,0,0-1.72-1.82L439.67,49.34a5.44,5.44,0,0,0-4.88,0l-2,1.15A5.39,5.39,0,0,0,430.45,54Z" style="fill:#fff;opacity:0.30000000000000004"></path></g><path d="M437.32,69.18v4.55L458.53,86V81.42c0-2.25-1.18-4.76-2.65-5.6L454,74.7v1.83c0,1.55-.82,2.34-1.83,1.76a4.86,4.86,0,0,1-1.83-3.88V72.59l-4.73-2.73v1.82c0,1.55-.81,2.35-1.83,1.76a4.85,4.85,0,0,1-1.83-3.87V67.75L440,66.63C438.51,65.79,437.32,66.93,437.32,69.18Z" style="fill:#fafafa"></path><polygon points="442.67 78.55 442.67 83.38 437.32 80.3 437.32 75.47 442.67 78.55" style="fill:#fafafa"></polygon><polygon points="442.67 85.11 442.67 89.98 437.32 86.9 437.32 82.03 442.67 85.11" style="fill:#fafafa"></polygon><path d="M437.32,88.64l5.35,3.08v4.94l-2.49-1.44a6.84,6.84,0,0,1-2.86-5.45Z" style="fill:#fafafa"></path><polygon points="451.12 83.43 451.12 88.26 444.42 84.39 444.42 79.56 451.12 83.43" style="fill:#fafafa"></polygon><polygon points="451.12 89.99 451.12 94.87 444.42 91 444.42 86.12 451.12 89.99" style="fill:#fafafa"></polygon><polygon points="444.42 92.73 451.12 96.6 451.12 101.54 444.42 97.67 444.42 92.73" style="fill:#fafafa"></polygon><polygon points="458.53 87.71 458.53 92.54 452.87 89.27 452.87 84.44 458.53 87.71" style="fill:#fafafa"></polygon><polygon points="458.53 94.27 458.53 99.15 452.87 95.88 452.87 91 458.53 94.27" style="fill:#fafafa"></polygon><path d="M452.87,97.61l5.66,3.27V102c0,2.1-1.28,3.06-2.84,2.15l-2.82-1.62Z" style="fill:#fafafa"></path><path d="M452.12,77h0c.62.36,1.13,0,1.13-.85V72.41a2.72,2.72,0,0,0-1.13-2.16h0c-.63-.36-1.13,0-1.13.85v3.77A2.69,2.69,0,0,0,452.12,77Z" style="fill:#fafafa"></path><path d="M443.73,72.19h0A2.72,2.72,0,0,1,442.6,70V66.26c0-.83.51-1.21,1.13-.85h0a2.7,2.7,0,0,1,1.14,2.16v3.76C444.87,72.17,444.36,72.55,443.73,72.19Z" style="fill:#fafafa"></path></g></g></svg>