<svg width="904" height="510" viewBox="0 0 904 510" fill="none" xmlns="http://www.w3.org/2000/svg">
<g clip-path="url(#clip0_366_199)">
<path d="M67.9991 508.89L67.0479 507.131C79.8014 500.234 95.6737 491.65 103.964 477.564C112.136 463.678 112.32 444.821 104.442 428.353C97.7388 414.337 85.4246 401.781 68.8314 392.04C65.5584 390.119 62.1226 388.298 58.7999 386.537C50.7684 382.28 42.4635 377.878 35.6156 371.634C26.1839 363.033 19.0477 348.599 24.3665 335.743C26.1158 331.639 28.9806 328.108 32.6356 325.551C36.2907 322.994 40.5895 321.512 45.0441 321.275L45.1568 323.272C41.076 323.489 37.1375 324.845 33.7883 327.187C30.4391 329.528 27.8134 332.762 26.2091 336.52C21.2665 348.468 28.0477 362.025 36.9632 370.156C43.6239 376.23 51.815 380.571 59.7364 384.769C63.078 386.54 66.5335 388.372 69.8441 390.315C86.7826 400.259 99.3705 413.113 106.247 427.49C114.407 444.55 114.193 464.126 105.688 478.579C97.1148 493.145 80.971 501.876 67.9991 508.89Z" fill="#F1F1F1"/>
<path d="M57.72 331.816C67.385 331.816 75.22 328.011 75.22 323.316C75.22 318.622 67.385 314.816 57.72 314.816C48.055 314.816 40.22 318.622 40.22 323.316C40.22 328.011 48.055 331.816 57.72 331.816Z" fill="#F1F1F1"/>
<path d="M71.72 387.816C81.3849 387.816 89.22 384.011 89.22 379.316C89.22 374.622 81.3849 370.816 71.72 370.816C62.055 370.816 54.22 374.622 54.22 379.316C54.22 384.011 62.055 387.816 71.72 387.816Z" fill="#F1F1F1"/>
<path d="M39.72 396.816C49.385 396.816 57.22 393.011 57.22 388.316C57.22 383.622 49.385 379.816 39.72 379.816C30.055 379.816 22.22 383.622 22.22 388.316C22.22 393.011 30.055 396.816 39.72 396.816Z" fill="#F1F1F1"/>
<path d="M89.72 443.816C99.385 443.816 107.22 440.011 107.22 435.316C107.22 430.622 99.385 426.816 89.72 426.816C80.055 426.816 72.22 430.622 72.22 435.316C72.22 440.011 80.055 443.816 89.72 443.816Z" fill="#F1F1F1"/>
<path d="M124.72 443.816C134.385 443.816 142.22 440.011 142.22 435.316C142.22 430.622 134.385 426.816 124.72 426.816C115.055 426.816 107.22 430.622 107.22 435.316C107.22 440.011 115.055 443.816 124.72 443.816Z" fill="#F1F1F1"/>
<path d="M903.807 15.4297H341.011V282.486H903.807V15.4297Z" fill="#E6E6E6"/>
<path d="M887.715 38.3301H357.104V261.144H887.715V38.3301Z" fill="white"/>
<path d="M903.567 0H340.771V23.9092H903.567V0Z" fill="#1A6CE8"/>
<path d="M358.539 15.4899C360.986 15.4899 362.97 13.5059 362.97 11.0584C362.97 8.611 360.986 6.62695 358.539 6.62695C356.091 6.62695 354.107 8.611 354.107 11.0584C354.107 13.5059 356.091 15.4899 358.539 15.4899Z" fill="white"/>
<path d="M375.359 15.4899C377.807 15.4899 379.791 13.5059 379.791 11.0584C379.791 8.611 377.807 6.62695 375.359 6.62695C372.912 6.62695 370.928 8.611 370.928 11.0584C370.928 13.5059 372.912 15.4899 375.359 15.4899Z" fill="white"/>
<path d="M392.181 15.4899C394.628 15.4899 396.612 13.5059 396.612 11.0584C396.612 8.611 394.628 6.62695 392.181 6.62695C389.733 6.62695 387.749 8.611 387.749 11.0584C387.749 13.5059 389.733 15.4899 392.181 15.4899Z" fill="white"/>
<path d="M594.432 91.207C593.863 91.207 593.317 91.4332 592.914 91.8358C592.512 92.2385 592.286 92.7845 592.286 93.3539C592.286 93.9233 592.512 94.4694 592.914 94.872C593.317 95.2746 593.863 95.5008 594.432 95.5008H712.236C712.806 95.5008 713.352 95.2746 713.755 94.872C714.157 94.4694 714.383 93.9233 714.383 93.3539C714.383 92.7845 714.157 92.2385 713.755 91.8358C713.352 91.4332 712.806 91.207 712.236 91.207H594.432Z" fill="#E6E6E6"/>
<path d="M594.432 104.09C593.864 104.091 593.319 104.318 592.917 104.72C592.516 105.123 592.29 105.668 592.29 106.237C592.29 106.805 592.516 107.351 592.917 107.753C593.319 108.156 593.864 108.382 594.432 108.384H654.574C655.142 108.382 655.687 108.156 656.089 107.753C656.49 107.351 656.716 106.805 656.716 106.237C656.716 105.668 656.49 105.123 656.089 104.72C655.687 104.318 655.142 104.091 654.574 104.09H594.432Z" fill="#E6E6E6"/>
<path d="M591.468 166.443C590.899 166.443 590.353 166.67 589.95 167.072C589.547 167.475 589.321 168.021 589.321 168.59C589.321 169.16 589.547 169.706 589.95 170.108C590.353 170.511 590.899 170.737 591.468 170.737H812.351C812.92 170.737 813.466 170.511 813.869 170.108C814.272 169.706 814.498 169.16 814.498 168.59C814.498 168.021 814.272 167.475 813.869 167.072C813.466 166.67 812.92 166.443 812.351 166.443H591.468Z" fill="#E6E6E6"/>
<path d="M591.468 179.326C590.899 179.327 590.354 179.554 589.953 179.957C589.551 180.359 589.326 180.904 589.326 181.473C589.326 182.042 589.551 182.587 589.953 182.99C590.354 183.392 590.899 183.619 591.468 183.62H754.688C755.257 183.619 755.802 183.392 756.203 182.99C756.605 182.587 756.831 182.042 756.831 181.473C756.831 180.904 756.605 180.359 756.203 179.957C755.802 179.554 755.257 179.327 754.688 179.326H591.468Z" fill="#E6E6E6"/>
<path d="M591.468 191.918C590.899 191.919 590.354 192.146 589.953 192.548C589.551 192.951 589.326 193.496 589.326 194.065C589.326 194.633 589.551 195.179 589.953 195.581C590.354 195.984 590.899 196.211 591.468 196.212H812.351C812.919 196.211 813.464 195.984 813.866 195.581C814.268 195.179 814.493 194.633 814.493 194.065C814.493 193.496 814.268 192.951 813.866 192.548C813.464 192.146 812.919 191.919 812.351 191.918H591.468Z" fill="#E6E6E6"/>
<path d="M591.468 204.799C590.899 204.8 590.354 205.027 589.953 205.429C589.551 205.832 589.326 206.377 589.326 206.946C589.326 207.514 589.551 208.06 589.953 208.462C590.354 208.865 590.899 209.091 591.468 209.093H754.688C755.257 209.091 755.802 208.865 756.203 208.462C756.605 208.06 756.831 207.514 756.831 206.946C756.831 206.377 756.605 205.832 756.203 205.429C755.802 205.027 755.257 204.8 754.688 204.799H591.468Z" fill="#E6E6E6"/>
<path d="M475.989 175.156C486.314 175.156 494.683 166.786 494.683 156.462C494.683 146.137 486.314 137.768 475.989 137.768C465.664 137.768 457.295 146.137 457.295 156.462C457.295 166.786 465.664 175.156 475.989 175.156Z" fill="#A0616A"/>
<path d="M470.069 141.506C470.069 141.506 478.793 143.843 483.311 144.778C487.829 145.712 487.361 143.064 487.361 143.064C487.361 143.064 493.281 143.843 492.97 143.22C492.658 142.597 495.462 139.325 492.191 135.586C488.919 131.847 489.854 129.043 489.854 129.043H487.05L486.271 127.953H481.909C481.909 127.953 477.086 123.724 468.518 124.97C459.95 126.216 449.817 129.511 448.882 134.651C448.755 135.349 448.589 136.123 448.395 136.942C446.052 146.833 451.03 156.088 456.193 164.844C457.462 166.996 463.6 171.689 463.443 168.469C463.286 165.25 457.918 158.019 461.657 157.552C465.396 157.085 471.783 147.582 470.069 141.506Z" fill="#2F2E41"/>
<path d="M465.384 216.898C461.775 216.61 458.196 216.022 454.685 215.14L454.882 211.412L456.518 181.77L456.533 181.543H489.464L494.632 208.836L495.329 212.519C493.965 213.049 492.586 213.549 491.177 213.989C491.161 213.989 491.161 214.004 491.146 214.004C489.191 214.61 487.206 215.14 485.205 215.58C482.545 216.154 479.853 216.569 477.143 216.822C475.049 217.03 472.945 217.132 470.84 217.126C469.021 217.126 467.187 217.05 465.384 216.898Z" fill="#1A6CE8"/>
<path d="M444.213 211.624C442.849 211.033 441.531 210.397 440.228 209.73L439.667 209.442C439.288 209.245 438.894 209.033 438.515 208.82C438 208.533 437.499 208.245 437.015 207.957C436.545 207.684 436.06 207.396 435.59 207.108C435.56 207.093 435.545 207.078 435.515 207.078C433.878 206.032 432.272 204.956 430.726 203.789C430.468 203.592 430.211 203.395 429.953 203.198L429.68 198.834L430.074 198.591L456.519 181.77L456.882 181.542L456.912 181.527L460.64 181.542V195.424C462.747 198.47 464.171 204.85 465.05 213.2C465.172 214.397 465.278 215.625 465.384 216.898C461.775 216.609 458.197 216.021 454.685 215.14C454.306 215.064 453.942 214.973 453.563 214.867C451.355 214.289 449.179 213.591 447.047 212.776C446.395 212.533 445.759 212.276 445.122 212.018L445.062 211.988C444.789 211.867 444.486 211.745 444.213 211.624Z" fill="#2F2E41"/>
<path d="M438.515 208.821C437.999 208.533 437.499 208.245 437.014 207.957C436.545 207.684 436.06 207.396 435.59 207.108C435.56 207.093 435.545 207.078 435.515 207.078C433.878 206.032 432.271 204.956 430.726 203.789C430.468 203.592 430.21 203.395 429.952 203.198C429.832 203.092 429.71 203.001 429.573 202.895C428.604 202.153 427.664 201.38 426.755 200.562C426.71 200.531 426.679 200.486 426.634 200.456C427.552 199.749 428.581 199.201 429.68 198.834L430.756 199.152L438.424 201.456L438.469 204.562L438.515 208.821Z" fill="#2F2E41"/>
<path d="M503.088 208.865C502.633 209.107 502.179 209.35 501.724 209.577C501.618 209.638 501.527 209.683 501.436 209.729C500.83 210.032 500.239 210.335 499.633 210.623C499.618 210.638 499.587 210.638 499.587 210.653C499.557 210.668 499.512 210.683 499.482 210.699C498.118 211.35 496.738 211.956 495.329 212.517C493.965 213.048 492.586 213.548 491.177 213.987C491.161 213.987 491.161 214.002 491.147 214.002C489.192 214.608 487.206 215.139 485.205 215.578C485.183 214.333 485.347 213.092 485.691 211.896L485.706 211.684L487.009 190.589L485.266 181.541L490.267 180.799L517.773 195.605C517.773 195.605 514.742 198.636 502.3 205.091C501.2 205.662 502.815 207.562 503.088 208.865Z" fill="#2F2E41"/>
<path d="M476.811 213.184C474.84 213.366 472.84 213.457 470.84 213.457C468.9 213.457 466.975 213.381 465.05 213.199C465.172 214.396 465.278 215.624 465.384 216.897C467.187 217.048 469.021 217.124 470.84 217.124C472.945 217.13 475.049 217.029 477.144 216.821C479.853 216.567 482.545 216.152 485.205 215.578C485.183 214.333 485.347 213.092 485.691 211.896L485.706 211.684C482.78 212.396 479.808 212.897 476.811 213.184ZM534.078 128.137C530.876 118.938 525.706 110.549 518.928 103.553C512.15 96.5577 503.928 91.1249 494.835 87.6336C485.742 84.1423 475.996 82.6765 466.278 83.3384C456.561 84.0003 447.104 86.774 438.568 91.4661C430.033 96.1582 422.623 102.656 416.856 110.506C411.09 118.355 407.105 127.369 405.179 136.917C403.254 146.465 403.434 156.318 405.708 165.79C407.982 175.261 412.294 184.122 418.345 191.755C418.951 192.513 419.572 193.271 420.209 193.998C420.269 194.059 420.3 194.104 420.345 194.15C421.909 195.954 423.574 197.669 425.331 199.287C425.755 199.681 426.194 200.075 426.634 200.454C426.68 200.484 426.71 200.53 426.755 200.56C427.664 201.378 428.604 202.151 429.574 202.894C429.71 203 429.832 203.091 429.952 203.197C430.211 203.394 430.468 203.591 430.726 203.788C432.271 204.955 433.878 206.031 435.515 207.077C435.545 207.077 435.56 207.092 435.59 207.107C436.06 207.395 436.545 207.683 437.015 207.956C437.5 208.243 438 208.531 438.515 208.819C438.894 209.031 439.288 209.244 439.667 209.441L440.227 209.729C441.531 210.395 442.849 211.032 444.213 211.623C444.486 211.744 444.789 211.865 445.062 211.987L445.122 212.017C445.759 212.274 446.395 212.532 447.047 212.775C449.179 213.59 451.355 214.288 453.563 214.866C453.942 214.972 454.306 215.063 454.685 215.139C458.196 216.02 461.775 216.608 465.384 216.897C467.187 217.048 469.021 217.124 470.84 217.124C472.945 217.13 475.049 217.029 477.144 216.821C479.853 216.567 482.545 216.152 485.205 215.578C487.206 215.139 489.191 214.608 491.146 214.002C491.161 214.002 491.161 213.987 491.177 213.987C492.586 213.548 493.965 213.047 495.329 212.517C496.738 211.956 498.118 211.35 499.481 210.699C499.512 210.683 499.557 210.668 499.587 210.653C499.587 210.638 499.618 210.638 499.633 210.623C500.239 210.335 500.83 210.032 501.436 209.729C501.527 209.683 501.618 209.638 501.724 209.577C502.179 209.35 502.633 209.107 503.088 208.865C503.118 208.85 503.133 208.834 503.163 208.819C504.361 208.153 505.543 207.455 506.71 206.713C507.028 206.516 507.347 206.319 507.665 206.092C508.135 205.804 508.589 205.485 509.028 205.167C509.62 204.758 510.21 204.334 510.787 203.894C510.978 203.771 511.16 203.634 511.332 203.485C512.742 202.424 514.105 201.303 515.408 200.121C525.291 191.314 532.341 179.775 535.664 166.961C538.987 154.148 538.436 140.637 534.078 128.137ZM514.272 196.211C512.631 197.754 510.912 199.211 509.12 200.575C508.726 200.878 508.316 201.182 507.908 201.454C507.513 201.757 507.119 202.045 506.71 202.318C506.362 202.561 506.013 202.803 505.649 203.03C505.619 203.061 505.574 203.076 505.543 203.106C505.285 203.288 505.013 203.455 504.755 203.621C503.952 204.121 503.118 204.622 502.3 205.091C502.103 205.197 501.921 205.319 501.724 205.425C501.618 205.485 501.512 205.546 501.391 205.607C500.936 205.864 500.481 206.092 500.027 206.334C499.966 206.379 499.891 206.395 499.83 206.44C499.807 206.444 499.786 206.454 499.769 206.47C499.451 206.637 499.133 206.789 498.815 206.94C498.542 207.077 498.284 207.213 498.011 207.334C496.905 207.865 495.768 208.365 494.632 208.834C493.435 209.319 492.223 209.759 490.995 210.168C490.692 210.274 490.373 210.395 490.055 210.486C488.615 210.941 487.176 211.35 485.706 211.684C482.78 212.396 479.808 212.897 476.811 213.184C474.84 213.366 472.84 213.457 470.84 213.457C468.9 213.457 466.975 213.381 465.05 213.199C461.617 212.885 458.216 212.287 454.882 211.411C454.76 211.38 454.624 211.35 454.503 211.32C451.768 210.607 449.089 209.695 446.486 208.592C446.35 208.531 446.198 208.486 446.077 208.425C445.925 208.365 445.789 208.319 445.668 208.259C445.516 208.198 445.38 208.137 445.244 208.077C444.107 207.577 443.001 207.031 441.895 206.47L441.379 206.198C440.394 205.682 439.424 205.152 438.469 204.561C438.136 204.379 437.788 204.167 437.454 203.955C437.075 203.727 436.696 203.485 436.332 203.242C436.242 203.182 436.151 203.121 436.06 203.061C435.211 202.485 434.348 201.909 433.529 201.288C432.954 200.863 432.393 200.454 431.832 200.015C431.468 199.742 431.105 199.454 430.756 199.151C430.529 198.984 430.302 198.787 430.074 198.59C429.771 198.332 429.468 198.075 429.165 197.802C428.695 197.423 428.256 196.999 427.831 196.605C426.125 195.032 424.511 193.363 422.997 191.604C422.482 191.028 421.996 190.452 421.527 189.846C421.418 189.727 421.316 189.6 421.224 189.467C413.594 179.836 408.933 168.192 407.808 155.957C406.684 143.722 409.144 131.424 414.89 120.563C420.636 109.702 429.418 100.748 440.166 94.794C450.913 88.8396 463.162 86.142 475.416 87.0301C487.671 87.9183 499.403 92.3539 509.179 99.7959C518.956 107.238 526.356 117.364 530.475 128.94C534.595 140.516 535.256 153.04 532.379 164.985C529.502 176.931 523.21 187.78 514.272 196.211Z" fill="#1A6CE8"/>
<path d="M163.436 496.697L175.696 496.696L181.528 449.408L163.434 449.409L163.436 496.697Z" fill="#A0616A"/>
<path d="M160.309 492.694L184.453 492.693H184.454C188.535 492.694 192.448 494.315 195.334 497.2C198.219 500.086 199.84 503.999 199.841 508.08V508.58L160.31 508.581L160.309 492.694Z" fill="#2F2E41"/>
<path d="M209.436 496.697L221.696 496.696L227.528 449.408L209.434 449.409L209.436 496.697Z" fill="#A0616A"/>
<path d="M206.309 492.694L230.453 492.693H230.454C234.535 492.694 238.448 494.315 241.334 497.2C244.219 500.086 245.84 503.999 245.841 508.08V508.58L206.31 508.581L206.309 492.694Z" fill="#2F2E41"/>
<path d="M126.237 309.841C127.24 308.766 127.996 307.485 128.45 306.087C128.905 304.689 129.047 303.208 128.868 301.749C128.688 300.29 128.191 298.888 127.411 297.642C126.631 296.396 125.587 295.336 124.353 294.537L132.871 259.832L115.379 266.065L109.972 298.066C108.767 300.228 108.397 302.756 108.932 305.173C109.466 307.59 110.869 309.726 112.874 311.177C114.879 312.629 117.347 313.294 119.809 313.048C122.272 312.802 124.559 311.66 126.237 309.841Z" fill="#9E616A"/>
<path d="M256.378 306.841C255.374 305.766 254.619 304.485 254.164 303.087C253.709 301.689 253.567 300.208 253.746 298.749C253.926 297.29 254.423 295.888 255.203 294.642C255.983 293.396 257.027 292.336 258.261 291.537L249.743 256.832L267.235 263.065L272.642 295.066C273.847 297.228 274.217 299.756 273.683 302.173C273.148 304.59 271.745 306.726 269.74 308.177C267.735 309.629 265.268 310.295 262.805 310.048C260.342 309.802 258.055 308.66 256.378 306.841Z" fill="#9E616A"/>
<path d="M142.367 285.513L159.36 484.578L184.224 482.311L194.175 328.461L203.033 389.379L204.807 486.145L227.307 484.645L239.801 380.545L236.736 279.728L151.319 271.078L142.367 285.513Z" fill="#2F2E41"/>
<path d="M189.112 104.368C203.353 104.368 214.898 92.8237 214.898 78.5826C214.898 64.3415 203.353 52.7969 189.112 52.7969C174.871 52.7969 163.326 64.3415 163.326 78.5826C163.326 92.8237 174.871 104.368 189.112 104.368Z" fill="#A0616A"/>
<path d="M180.946 57.9538C180.946 57.9538 192.98 61.177 199.211 62.4663C205.443 63.7556 204.798 60.1026 204.798 60.1026C204.798 60.1026 212.964 61.177 212.534 60.3174C212.104 59.4579 215.972 54.9454 211.46 49.7883C206.947 44.6311 208.236 40.7633 208.236 40.7633H204.369L203.294 39.2591H197.277C197.277 39.2591 190.625 33.4261 178.807 35.1451C166.988 36.8641 153.012 41.4079 151.723 48.499C151.548 49.4608 151.317 50.5294 151.05 51.658C147.818 65.3016 154.685 78.0673 161.807 90.1451C163.557 93.1133 172.023 99.5858 171.807 95.1451C171.59 90.7043 164.186 80.7312 169.343 80.0865C174.5 79.4419 183.31 66.3341 180.946 57.9538Z" fill="#2F2E41"/>
<path d="M162.28 113.176H207.691L239.801 282.751C239.801 282.751 211.807 285.144 195.807 291.144C179.807 297.144 153.209 277.439 153.209 277.439L162.28 113.176Z" fill="#1A6CE8"/>
<path d="M167.949 132.326V113.176L162.807 113.145L125.24 137.03L133.392 267.892C133.392 267.892 143.04 311.55 157.673 311.097C172.307 310.645 183.591 155.007 167.949 132.326Z" fill="#2F2E41"/>
<path d="M137.307 140.644L125.24 137.029C125.24 137.029 116.307 139.644 116.307 148.644C116.307 157.644 108.61 285.512 108.61 285.512L133.061 287.673L138.307 222.644L137.307 140.644Z" fill="#2F2E41"/>
<path d="M204.307 125.645L201.902 113.176L208.807 112.145L233.807 122.145C233.807 122.145 256.307 286.645 246.307 291.645C236.307 296.645 229.555 292.771 229.555 292.771C229.555 292.771 196.664 171.445 202.485 155.045L204.307 125.645Z" fill="#2F2E41"/>
<path d="M216.307 124.646L220.574 122.788C220.574 122.788 233.097 116.583 240.202 129.114C247.307 141.646 272.307 281.646 272.307 281.646L251.737 285.514L236.358 235.13L216.307 124.646Z" fill="#2F2E41"/>
<path d="M382 509.145H1C0.734784 509.145 0.480429 509.039 0.292892 508.852C0.105356 508.664 0 508.41 0 508.145C0 507.879 0.105356 507.625 0.292892 507.437C0.480429 507.25 0.734784 507.145 1 507.145H382C382.265 507.145 382.52 507.25 382.707 507.437C382.895 507.625 383 507.879 383 508.145C383 508.41 382.895 508.664 382.707 508.852C382.52 509.039 382.265 509.145 382 509.145Z" fill="#CACACA"/>
</g>
<defs>
<clipPath id="clip0_366_199">
<rect width="903.807" height="509.145" fill="white"/>
</clipPath>
</defs>
</svg>
